<svg width="24" height="24" viewBox="0 0 24 24" fill="none" xmlns="http://www.w3.org/2000/svg">
<path d="M12 0C9.62663 0 7.30655 0.703788 5.33316 2.02236C3.35977 3.34094 1.8217 5.21508 0.913451 7.4078C0.00519941 9.60051 -0.232441 12.0133 0.230582 14.3411C0.693605 16.6689 1.83649 18.807 3.51472 20.4853C5.19295 22.1635 7.33115 23.3064 9.65892 23.7694C11.9867 24.2324 14.3995 23.9948 16.5922 23.0866C18.7849 22.1783 20.6591 20.6402 21.9776 18.6668C23.2962 16.6935 24 14.3734 24 12C24 10.4241 23.6896 8.8637 23.0866 7.4078C22.4835 5.95189 21.5996 4.62902 20.4853 3.51472C19.371 2.40042 18.0481 1.5165 16.5922 0.913446C15.1363 0.310389 13.5759 0 12 0ZM13.2 16.8C13.2 17.1183 13.0736 17.4235 12.8485 17.6485C12.6235 17.8736 12.3183 18 12 18C11.6817 18 11.3765 17.8736 11.1515 17.6485C10.9264 17.4235 10.8 17.1183 10.8 16.8V10.8C10.8 10.4817 10.9264 10.1765 11.1515 9.95147C11.3765 9.72643 11.6817 9.6 12 9.6C12.3183 9.6 12.6235 9.72643 12.8485 9.95147C13.0736 10.1765 13.2 10.4817 13.2 10.8V16.8ZM12 8.4C11.7627 8.4 11.5307 8.32962 11.3333 8.19776C11.136 8.0659 10.9822 7.87849 10.8913 7.65922C10.8005 7.43995 10.7768 7.19867 10.8231 6.96589C10.8694 6.73311 10.9837 6.51929 11.1515 6.35147C11.3193 6.18365 11.5331 6.06936 11.7659 6.02306C11.9987 5.97675 12.24 6.00052 12.4592 6.09134C12.6785 6.18217 12.8659 6.33598 12.9978 6.53331C13.1296 6.73065 13.2 6.96266 13.2 7.2C13.2 7.51826 13.0736 7.82348 12.8485 8.04853C12.6235 8.27357 12.3183 8.4 12 8.4Z" fill="white"/>
</svg>
