<svg width="24" height="24" viewBox="0 0 24 24" fill="none" xmlns="http://www.w3.org/2000/svg">
<path d="M11.9857 0C13.6487 0 15.2067 0.315412 16.6595 0.946237C18.1123 1.57706 19.3835 2.4325 20.4731 3.51254C21.5627 4.59259 22.4229 5.85902 23.0538 7.31183C23.6846 8.76464 24 10.3226 24 11.9857C24 13.6487 23.6846 15.2067 23.0538 16.6595C22.4229 18.1123 21.5627 19.3835 20.4731 20.4731C19.3835 21.5627 18.1123 22.4229 16.6595 23.0538C15.2067 23.6846 13.6487 24 11.9857 24C10.3226 24 8.76464 23.6846 7.31183 23.0538C5.85902 22.4229 4.59259 21.5627 3.51254 20.4731C2.4325 19.3835 1.57706 18.1123 0.946237 16.6595C0.315412 15.2067 0 13.6487 0 11.9857C0 10.3226 0.315412 8.76464 0.946237 7.31183C1.57706 5.85902 2.4325 4.59259 3.51254 3.51254C4.59259 2.4325 5.85902 1.57706 7.31183 0.946237C8.76464 0.315412 10.3226 0 11.9857 0ZM8.25806 9.00358H5.24731V18.7527H8.25806V9.00358ZM6.73835 8.22939C7.1589 8.22939 7.51732 8.08602 7.81362 7.79928C8.10992 7.51254 8.25806 7.1589 8.25806 6.73835C8.25806 6.3178 8.10992 5.96416 7.81362 5.67742C7.51732 5.39068 7.1589 5.24731 6.73835 5.24731C6.3178 5.24731 5.96416 5.39068 5.67742 5.67742C5.39068 5.96416 5.24731 6.3178 5.24731 6.73835C5.24731 7.1589 5.39068 7.51254 5.67742 7.79928C5.96416 8.08602 6.3178 8.22939 6.73835 8.22939ZM18.7527 13.1039C18.7527 12.4158 18.5615 11.7419 18.1792 11.0824C17.7969 10.4229 17.2999 9.92115 16.6882 9.57706C16.1338 9.27121 15.4886 9.10872 14.7527 9.08961C14.0167 9.07049 13.3429 9.19474 12.7312 9.46237V9.00358H9.7491V18.7527H12.7312V12.7885L13.9928 12.1864C14.1458 12.1099 14.3513 12.0717 14.6093 12.0717C14.8674 12.0717 15.0729 12.1195 15.2258 12.2151C15.3405 12.2724 15.4552 12.3967 15.5699 12.5878C15.6846 12.779 15.7419 12.951 15.7419 13.1039V18.7527H18.7527V13.1039Z" fill="white"/>
</svg>
