<svg width="2105" height="912" viewBox="0 0 2105 912" fill="none" xmlns="http://www.w3.org/2000/svg">
<path d="M1810.36 507.851L1870.08 593.998L1894.24 627.262H1904.34H1927.61L2025.98 647.733C2042.96 672.184 2078.33 722.109 2083.95 726.203C2089.57 730.297 2086.3 768.85 2083.95 787.614L2044.87 862.673L2000.51 875.893L1952.21 895.937H1621.08H1402.82L1355.39 863.952L1314.55 791.879L1323.33 729.615H1111.66L1029.98 707.012L968.934 610.204L998.797 517.66L1088.38 459.66L1166.99 471.601L1195.98 408.057L1293.47 316.793L1366.37 302.72L1482.75 316.793L1567.94 393.984L1598.68 459.66C1606.88 463.641 1624.6 471.601 1629.86 471.601C1635.13 471.601 1680.08 463.641 1701.89 459.66L1810.36 507.851Z" fill="url(#paint0_linear_670_1440)"/>
<path d="M1109.59 446.242C1126.42 446.242 1142.77 448.783 1158.4 453.812C1186.84 354.244 1280.47 284 1388.81 284C1495.81 284 1589.85 354.103 1618.73 452.789C1635.22 449.271 1652.26 447.232 1669.8 447.232C1778.13 447.232 1871.74 517.458 1900.18 617.043C1915.81 611.997 1932.15 609.455 1948.99 609.455C2034.79 609.455 2104.59 677.228 2104.59 760.547C2104.59 843.885 2034.79 911.673 1948.99 911.673H1428.06C1356.26 911.673 1297.85 854.933 1297.85 785.202C1297.85 772.4 1299.87 760.069 1303.53 748.425H1109.59C1023.79 748.425 954 680.655 954 597.334C954 514.013 1023.79 446.242 1109.59 446.242ZM1428.06 876.756H1948.99C2014.97 876.756 2068.63 824.62 2068.63 760.547C2068.63 696.493 2014.97 644.372 1948.99 644.372C1930.15 644.372 1912.15 648.5 1895.47 656.649C1890.42 659.121 1884.47 659.121 1879.38 656.665C1874.3 654.21 1870.72 649.573 1869.7 644.151C1852.23 550.278 1768.15 482.149 1669.8 482.149C1558.48 482.149 1467.32 570.072 1466.64 678.148C1466.6 683.314 1464.21 688.207 1460.12 691.498C1456.02 694.788 1450.59 696.135 1445.39 695.215C1439.63 694.192 1433.81 693.663 1428.06 693.663C1376.1 693.663 1333.8 734.734 1333.8 785.202C1333.8 835.685 1376.1 876.756 1428.06 876.756ZM1109.59 713.508H1320.88C1345.01 679.661 1385.73 657.753 1431.61 658.797C1439.81 569.147 1500.99 493.965 1584.26 462.767C1559.9 378.686 1479.89 318.917 1388.81 318.917C1290.44 318.917 1206.34 387.047 1188.87 480.92C1187.85 486.343 1184.27 490.98 1179.22 493.435C1174.16 495.891 1168.17 495.907 1163.12 493.419C1146.42 485.285 1128.41 481.159 1109.59 481.159C1043.63 481.159 989.956 533.28 989.956 597.334C989.956 661.389 1043.63 713.508 1109.59 713.508Z" fill="url(#paint1_linear_670_1440)"/>
<path d="M294.233 325.851L234.507 411.998L210.354 445.262H200.253H176.978L78.607 465.733C61.6261 490.184 26.2591 540.109 20.6379 544.203C15.0167 548.297 18.2958 586.85 20.6379 605.614L59.7229 680.673L104.078 693.893L152.385 713.937H483.509H701.77L749.199 681.952L790.04 609.879L781.257 547.615H992.931L1074.61 525.012L1135.66 428.204L1105.79 335.66L1016.21 277.66L937.597 289.601L908.613 226.057L811.12 134.793L738.22 120.72L621.843 134.793L536.647 211.984L505.906 277.66C497.708 281.641 479.996 289.601 474.726 289.601C469.456 289.601 424.516 281.641 402.704 277.66L294.233 325.851Z" fill="url(#paint2_linear_670_1440)"/>
<path d="M995.004 264.242C978.168 264.242 961.822 266.783 946.195 271.812C917.754 172.244 824.125 102 715.783 102C608.779 102 514.742 172.103 485.862 270.789C469.371 267.271 452.328 265.232 434.788 265.232C326.466 265.232 232.853 335.458 204.411 435.043C188.785 429.997 172.441 427.455 155.603 427.455C69.8049 427.455 0 495.228 0 578.547C0 661.885 69.8049 729.673 155.603 729.673H676.526C748.334 729.673 806.744 672.933 806.744 603.202C806.744 590.4 804.716 578.069 801.059 566.425H995.004C1080.8 566.425 1150.59 498.655 1150.59 415.334C1150.59 332.013 1080.8 264.242 995.004 264.242ZM676.526 694.756H155.603C89.6256 694.756 35.956 642.62 35.956 578.547C35.956 514.493 89.6256 462.372 155.603 462.372C174.442 462.372 192.438 466.5 209.116 474.649C214.173 477.121 220.124 477.121 225.216 474.665C230.289 472.21 233.872 467.573 234.89 462.151C252.359 368.278 336.436 300.149 434.788 300.149C546.115 300.149 637.269 388.072 637.954 496.148C637.99 501.314 640.377 506.207 644.467 509.498C648.575 512.788 654.001 514.135 659.199 513.215C664.957 512.192 670.785 511.663 676.526 511.663C728.495 511.663 770.788 552.734 770.788 603.202C770.788 653.685 728.495 694.756 676.526 694.756ZM995.004 531.508H783.709C759.583 497.661 718.86 475.753 672.981 476.797C664.781 387.147 603.606 311.965 520.33 280.767C544.69 196.686 624.699 136.917 715.783 136.917C814.153 136.917 898.248 205.047 915.718 298.92C916.737 304.343 920.318 308.98 925.373 311.435C930.431 313.891 936.417 313.907 941.473 311.419C958.169 303.285 976.183 299.159 995.004 299.159C1060.96 299.159 1114.63 351.28 1114.63 415.334C1114.63 479.389 1060.96 531.508 995.004 531.508Z" fill="url(#paint3_linear_670_1440)"/>
<path d="M645.744 297.277L566.428 411.681L534.352 455.857H520.939H490.029L359.391 483.042C336.84 515.513 289.872 581.815 282.407 587.252C274.942 592.689 279.297 643.887 282.407 668.807L334.312 768.486L393.216 786.043L457.369 812.661H897.106H1186.96L1249.95 770.185L1304.18 674.47L1292.52 591.783H1573.62L1682.1 561.766L1763.17 433.203L1723.51 310.304L1604.53 233.279L1500.14 249.137L1461.65 164.75L1332.18 43.5501L1235.37 24.8604L1080.82 43.5501L967.674 146.061L926.85 233.279C915.963 238.565 892.44 249.137 885.442 249.137C878.443 249.137 818.762 238.565 789.796 233.279L645.744 297.277Z" fill="url(#paint4_linear_670_1440)"/>
<path d="M1576.38 215.46C1554.02 215.46 1532.31 218.833 1511.56 225.513C1473.79 93.2856 1349.45 0 1205.57 0C1063.47 0 938.584 93.0978 900.231 224.154C878.331 219.483 855.697 216.775 832.405 216.775C688.551 216.775 564.231 310.035 526.461 442.285C505.709 435.585 484.004 432.209 461.643 432.209C347.702 432.209 255 522.212 255 632.861C255 743.535 347.702 833.559 461.643 833.559H1153.44C1248.8 833.559 1326.37 758.207 1326.37 665.603C1326.37 648.601 1323.67 632.225 1318.82 616.763H1576.38C1690.32 616.763 1783 526.763 1783 416.112C1783 305.46 1690.32 215.46 1576.38 215.46ZM1153.44 787.188H461.643C374.024 787.188 302.75 717.95 302.75 632.861C302.75 547.797 374.024 478.579 461.643 478.579C486.661 478.579 510.56 484.06 532.709 494.883C539.425 498.166 547.328 498.166 554.089 494.904C560.827 491.644 565.585 485.486 566.936 478.285C590.136 353.621 701.792 263.145 832.405 263.145C980.249 263.145 1101.3 379.908 1102.21 523.434C1102.26 530.294 1105.43 536.793 1110.86 541.163C1116.32 545.531 1123.52 547.321 1130.42 546.099C1138.07 544.741 1145.81 544.038 1153.44 544.038C1222.45 544.038 1278.62 598.581 1278.62 665.603C1278.62 732.645 1222.45 787.188 1153.44 787.188ZM1576.38 570.393H1295.78C1263.74 525.444 1209.66 496.349 1148.73 497.735C1137.84 378.679 1056.6 278.837 946.005 237.405C978.355 125.745 1084.61 46.3704 1205.57 46.3704C1336.21 46.3704 1447.89 136.848 1471.09 261.513C1472.44 268.714 1477.19 274.872 1483.91 278.132C1490.62 281.394 1498.57 281.415 1505.29 278.111C1527.46 267.309 1551.38 261.83 1576.38 261.83C1663.97 261.83 1735.25 331.047 1735.25 416.112C1735.25 501.178 1663.97 570.393 1576.38 570.393Z" fill="url(#paint5_linear_670_1440)"/>
<defs>
<linearGradient id="paint0_linear_670_1440" x1="1528" y1="302.72" x2="1528" y2="895.937" gradientUnits="userSpaceOnUse">
<stop stop-color="white"/>
<stop offset="0.0001" stop-color="#DBDBDB"/>
<stop offset="1" stop-color="#BBBBBB"/>
</linearGradient>
<linearGradient id="paint1_linear_670_1440" x1="1529.3" y1="284" x2="1529.3" y2="911.673" gradientUnits="userSpaceOnUse">
<stop stop-color="white"/>
<stop offset="0.0001" stop-color="#DBDBDB"/>
<stop offset="1" stop-color="#BBBBBB"/>
</linearGradient>
<linearGradient id="paint2_linear_670_1440" x1="576.595" y1="120.72" x2="576.595" y2="713.937" gradientUnits="userSpaceOnUse">
<stop stop-color="white"/>
<stop offset="0.0001" stop-color="#DBDBDB"/>
<stop offset="1" stop-color="#BBBBBB"/>
</linearGradient>
<linearGradient id="paint3_linear_670_1440" x1="575.295" y1="102" x2="575.295" y2="729.673" gradientUnits="userSpaceOnUse">
<stop stop-color="white"/>
<stop offset="0.0001" stop-color="#DBDBDB"/>
<stop offset="1" stop-color="#BBBBBB"/>
</linearGradient>
<linearGradient id="paint4_linear_670_1440" x1="1020.73" y1="24.8604" x2="1020.73" y2="812.661" gradientUnits="userSpaceOnUse">
<stop stop-color="white"/>
<stop offset="0.0001" stop-color="#DBDBDB"/>
<stop offset="1" stop-color="#BBBBBB"/>
</linearGradient>
<linearGradient id="paint5_linear_670_1440" x1="1019" y1="0" x2="1019" y2="833.559" gradientUnits="userSpaceOnUse">
<stop stop-color="white"/>
<stop offset="0.0001" stop-color="#DBDBDB"/>
<stop offset="1" stop-color="#BBBBBB"/>
</linearGradient>
</defs>
</svg>
