<svg width="1360" height="806" viewBox="0 0 1360 806" fill="none" xmlns="http://www.w3.org/2000/svg">
<g clip-path="url(#clip0_673_2123)">
<mask id="mask0_673_2123" style="mask-type:luminance" maskUnits="userSpaceOnUse" x="37" y="0" width="800" height="800">
<path d="M837 0H37V800H837V0Z" fill="white"/>
</mask>
<g mask="url(#mask0_673_2123)">
<path d="M437 0C429.64 0 423.667 5.97333 423.667 13.3333V93.3333C423.667 100.693 429.64 106.667 437 106.667C444.36 106.667 450.334 100.693 450.334 93.3333V13.3333C450.334 5.97333 444.36 0 437 0Z" fill="#F0C419"/>
<path d="M437 693.333C429.64 693.333 423.667 699.306 423.667 706.666V786.666C423.667 794.026 429.64 800 437 800C444.36 800 450.334 794.026 450.334 786.666V706.666C450.334 699.306 444.36 693.333 437 693.333Z" fill="#F0C419"/>
<path d="M823.666 386.667H743.666C736.306 386.667 730.333 392.64 730.333 400C730.333 407.36 736.306 413.334 743.666 413.334H823.666C831.026 413.334 837 407.36 837 400C837 392.64 831.026 386.667 823.666 386.667Z" fill="#F0C419"/>
<path d="M143.667 400C143.667 392.64 137.693 386.667 130.333 386.667H50.3333C42.9733 386.667 37 392.64 37 400C37 407.36 42.9733 413.334 50.3333 413.334H130.333C137.693 413.334 143.667 407.36 143.667 400Z" fill="#F0C419"/>
<path d="M653.853 196.48C657.267 196.48 660.68 195.173 663.28 192.573L739.76 116.093C744.973 110.88 744.973 102.453 739.76 97.2401C734.547 92.0267 726.12 92.0267 720.907 97.2401L644.427 173.72C639.213 178.933 639.213 187.36 644.427 192.573C647.027 195.187 650.44 196.48 653.853 196.48Z" fill="#F0C419"/>
<path d="M210.72 607.427L134.24 683.907C129.027 689.12 129.027 697.547 134.24 702.76C136.84 705.36 140.253 706.667 143.667 706.667C147.08 706.667 150.493 705.36 153.093 702.76L229.573 626.28C234.787 621.067 234.787 612.64 229.573 607.427C224.36 602.213 215.933 602.213 210.72 607.427Z" fill="#F0C419"/>
<path d="M663.28 607.427C658.067 602.213 649.64 602.213 644.427 607.427C639.213 612.64 639.213 621.067 644.427 626.28L720.907 702.76C723.507 705.36 726.92 706.667 730.333 706.667C733.747 706.667 737.16 705.36 739.76 702.76C744.973 697.547 744.973 689.12 739.76 683.907L663.28 607.427Z" fill="#F0C419"/>
<path d="M153.093 97.2401C147.88 92.0267 139.453 92.0267 134.24 97.2401C129.027 102.453 129.027 110.88 134.24 116.093L210.72 192.573C213.32 195.173 216.733 196.48 220.147 196.48C223.56 196.48 226.973 195.173 229.573 192.573C234.787 187.36 234.787 178.933 229.573 173.72L153.093 97.2401Z" fill="#F0C419"/>
<path d="M707.012 285.387C709.172 290.467 714.107 293.52 719.293 293.52C721.027 293.52 722.799 293.173 724.492 292.453L761.319 276.827C768.092 273.947 771.267 266.12 768.387 259.347C765.507 252.573 757.666 249.4 750.906 252.28L714.079 267.907C707.292 270.787 704.132 278.613 707.012 285.387Z" fill="#F0C419"/>
<path d="M166.986 514.613C164.106 507.84 156.28 504.667 149.506 507.547L112.68 523.173C105.906 526.053 102.733 533.88 105.613 540.653C107.773 545.733 112.706 548.787 117.893 548.787C119.626 548.787 121.4 548.44 123.093 547.72L159.92 532.093C166.706 529.213 169.866 521.387 166.986 514.613Z" fill="#F0C419"/>
<path d="M763.413 517.506L726.333 502.506C719.52 499.746 711.733 503.053 708.973 509.88C706.213 516.706 709.52 524.48 716.346 527.24L753.44 542.226C755.08 542.88 756.773 543.2 758.426 543.2C763.706 543.2 768.706 540.053 770.8 534.853C773.546 528.04 770.253 520.266 763.413 517.506Z" fill="#F0C419"/>
<path d="M110.586 282.507L147.666 297.494C149.306 298.147 151 298.467 152.653 298.467C157.933 298.467 162.933 295.32 165.026 290.12C167.786 283.294 164.48 275.52 157.653 272.76L120.56 257.774C113.72 255.014 105.96 258.307 103.2 265.147C100.453 271.96 103.746 279.734 110.586 282.507Z" fill="#F0C419"/>
<path d="M569.093 677.08C566.213 670.307 558.387 667.147 551.613 670.014C544.84 672.894 541.667 680.72 544.547 687.494L560.173 724.32C562.333 729.4 567.267 732.454 572.453 732.454C574.187 732.454 575.96 732.107 577.653 731.387C584.427 728.507 587.6 720.68 584.72 713.907L569.093 677.08Z" fill="#F0C419"/>
<path d="M317.187 131.054C318.92 131.054 320.693 130.707 322.387 129.987C329.16 127.107 332.333 119.28 329.453 112.507L313.827 75.6805C310.96 68.8938 303.133 65.7205 296.347 68.6138C289.573 71.4938 286.4 79.3205 289.28 86.0938L304.907 122.92C307.053 128 312 131.054 317.187 131.054Z" fill="#F0C419"/>
<path d="M327.12 671.974C320.306 669.24 312.52 672.507 309.76 679.347L294.773 716.44C292.013 723.267 295.32 731.04 302.146 733.8C303.786 734.454 305.48 734.774 307.133 734.774C312.413 734.774 317.413 731.627 319.506 726.427L334.493 689.334C337.253 682.507 333.946 674.734 327.12 671.974Z" fill="#F0C419"/>
<path d="M551.866 129C557.146 129 562.146 125.853 564.24 120.653L579.226 83.5597C581.986 76.733 578.68 68.9597 571.853 66.1997C565.04 63.4397 557.253 66.7463 554.493 73.573L539.506 110.666C536.746 117.493 540.053 125.266 546.88 128.026C548.52 128.68 550.213 129 551.866 129Z" fill="#F0C419"/>
<path d="M437 666.666C584.276 666.666 703.666 547.276 703.666 400C703.666 252.724 584.276 133.333 437 133.333C289.724 133.333 170.333 252.724 170.333 400C170.333 547.276 289.724 666.666 437 666.666Z" fill="#F0C419"/>
<path d="M437 600C547.457 600 637 510.457 637 400C637 289.543 547.457 200 437 200C326.543 200 237 289.543 237 400C237 510.457 326.543 600 437 600Z" fill="#EDE21B"/>
</g>
<path d="M347.785 347.906L277.19 445.62L248.641 483.351H236.702H209.19L92.9157 506.57C72.8443 534.303 31.0405 590.932 24.3962 595.576C17.7519 600.22 21.6277 643.949 24.3962 665.233L70.5947 750.369L123.022 765.365L180.121 788.1H571.511H829.495L885.556 751.82L933.831 670.07L923.449 599.446H1173.65L1270.2 573.808L1342.35 464.001L1307.05 359.032L1201.16 293.245L1108.24 306.789L1073.98 234.714L958.747 131.195L872.579 115.232L735.022 131.195L634.32 218.751L597.984 293.245C588.294 297.76 567.358 306.789 561.129 306.789C554.9 306.789 501.78 297.76 475.999 293.245L347.785 347.906Z" fill="white"/>
<path d="M1176.1 278.026C1156.2 278.026 1136.87 280.908 1118.4 286.613C1084.79 173.676 974.117 94 846.056 94C719.578 94 608.426 173.516 574.29 285.452C554.797 281.462 534.652 279.149 513.921 279.149C385.883 279.149 275.232 358.803 241.615 471.76C223.144 466.037 203.826 463.154 183.923 463.154C82.5095 463.154 0 540.026 0 634.532C0 729.06 82.5095 805.95 183.923 805.95H799.655C884.531 805.95 953.573 741.591 953.573 662.497C953.573 647.976 951.176 633.989 946.853 620.783H1176.1C1277.51 620.783 1360 543.913 1360 449.404C1360 354.896 1277.51 278.026 1176.1 278.026ZM799.655 766.344H183.923C105.938 766.344 42.5 707.208 42.5 634.532C42.5 561.878 105.938 502.759 183.923 502.759C206.191 502.759 227.462 507.44 247.176 516.684C253.153 519.488 260.187 519.488 266.205 516.702C272.202 513.918 276.437 508.658 277.64 502.507C298.288 396.03 397.668 318.754 513.921 318.754C645.509 318.754 753.253 418.483 754.063 541.069C754.105 546.929 756.927 552.479 761.762 556.212C766.617 559.943 773.03 561.472 779.174 560.428C785.98 559.268 792.869 558.668 799.655 558.668C861.082 558.668 911.073 605.254 911.073 662.497C911.073 719.759 861.082 766.344 799.655 766.344ZM1176.1 581.177H926.345C897.828 542.786 849.694 517.936 795.464 519.12C785.772 417.433 713.463 332.157 615.03 296.769C643.824 201.4 738.395 133.605 846.056 133.605C962.33 133.605 1061.73 210.883 1082.38 317.36C1083.58 323.511 1087.82 328.771 1093.79 331.555C1099.77 334.341 1106.85 334.359 1112.82 331.537C1132.56 322.311 1153.85 317.632 1176.1 317.632C1254.06 317.632 1317.5 376.75 1317.5 449.404C1317.5 522.061 1254.06 581.177 1176.1 581.177Z" fill="white"/>
</g>
<defs>
<clipPath id="clip0_673_2123">
<rect width="1360" height="806" fill="white"/>
</clipPath>
</defs>
</svg>
