<svg width="24" height="18" viewBox="0 0 24 18" fill="none" xmlns="http://www.w3.org/2000/svg">
<path d="M20.4 0H3.6C2.64522 0 1.72955 0.355579 1.05442 0.988515C0.379285 1.62145 0 2.47989 0 3.375V14.625C0 15.5201 0.379285 16.3786 1.05442 17.0115C1.72955 17.6444 2.64522 18 3.6 18H20.4C21.3548 18 22.2705 17.6444 22.9456 17.0115C23.6207 16.3786 24 15.5201 24 14.625V3.375C24 2.47989 23.6207 1.62145 22.9456 0.988515C22.2705 0.355579 21.3548 0 20.4 0ZM19.596 2.25L12 7.59375L4.404 2.25H19.596ZM20.4 15.75H3.6C3.28174 15.75 2.97652 15.6315 2.75147 15.4205C2.52643 15.2095 2.4 14.9234 2.4 14.625V3.65625L11.28 9.9C11.4877 10.0461 11.7404 10.125 12 10.125C12.2596 10.125 12.5123 10.0461 12.72 9.9L21.6 3.65625V14.625C21.6 14.9234 21.4736 15.2095 21.2485 15.4205C21.0235 15.6315 20.7183 15.75 20.4 15.75Z" fill="white"/>
</svg>
