<svg width="1907" height="809" viewBox="0 0 1907 809" fill="none" xmlns="http://www.w3.org/2000/svg">
<g clip-path="url(#clip0_673_2148)">
<path d="M1640.07 450.495L1694.18 526.913L1716.06 556.42H1725.21H1746.3L1835.41 574.579C1850.8 596.269 1882.84 640.555 1887.93 644.187C1893.02 647.818 1890.06 682.017 1887.93 698.662L1852.53 765.244L1812.34 776.971L1768.58 794.751H1468.6H1270.87L1227.9 766.379L1190.9 702.445L1198.86 647.213H1007.1L933.098 627.163L877.794 541.288L904.848 459.196L986.005 407.747L1057.22 418.339L1083.48 361.972L1171.8 281.015L1237.85 268.531L1343.28 281.015L1420.46 349.488L1448.31 407.747C1455.73 411.278 1471.79 418.339 1476.55 418.339C1481.33 418.339 1522.05 411.278 1541.81 407.747L1640.07 450.495Z" fill="url(#paint0_linear_673_2148)"/>
<path d="M1005.22 395.844C1020.47 395.844 1035.28 398.098 1049.44 402.559C1075.2 314.237 1160.03 251.926 1258.18 251.926C1355.11 251.926 1440.31 314.111 1466.47 401.652C1481.41 398.531 1496.85 396.723 1512.74 396.723C1610.88 396.723 1695.68 459.017 1721.45 547.355C1735.61 542.879 1750.41 540.624 1765.66 540.624C1843.39 540.624 1906.63 600.743 1906.63 674.652C1906.63 748.578 1843.39 808.71 1765.66 808.71H1293.73C1228.69 808.71 1175.77 758.378 1175.77 696.523C1175.77 685.167 1177.6 674.228 1180.92 663.899H1005.22C927.491 663.899 864.265 603.783 864.265 529.872C864.265 455.961 927.491 395.844 1005.22 395.844ZM1293.73 777.737H1765.66C1825.44 777.737 1874.05 731.489 1874.05 674.652C1874.05 617.832 1825.44 571.598 1765.66 571.598C1748.6 571.598 1732.29 575.26 1717.18 582.488C1712.6 584.681 1707.21 584.681 1702.6 582.503C1698 580.325 1694.76 576.211 1693.83 571.402C1678.01 488.131 1601.83 427.696 1512.74 427.696C1411.89 427.696 1329.3 505.689 1328.69 601.559C1328.65 606.142 1326.48 610.482 1322.78 613.402C1319.06 616.32 1314.15 617.515 1309.43 616.699C1304.22 615.791 1298.94 615.322 1293.73 615.322C1246.66 615.322 1208.34 651.755 1208.34 696.523C1208.34 741.304 1246.66 777.737 1293.73 777.737ZM1005.22 632.926H1196.64C1218.5 602.901 1255.39 583.468 1296.95 584.394C1304.38 504.869 1359.8 438.178 1435.24 410.503C1413.17 335.918 1340.69 282.899 1258.18 282.899C1169.06 282.899 1092.87 343.335 1077.04 426.606C1076.12 431.416 1072.88 435.53 1068.3 437.707C1063.72 439.886 1058.29 439.9 1053.71 437.693C1038.59 430.478 1022.27 426.818 1005.22 426.818C945.464 426.818 896.839 473.052 896.839 529.872C896.839 586.693 945.464 632.926 1005.22 632.926Z" fill="url(#paint1_linear_673_2148)"/>
<path d="M266.557 289.05L212.449 365.467L190.568 394.975H181.417H160.331L71.213 413.134C55.8293 434.823 23.789 479.11 18.6966 482.741C13.6041 486.373 16.5748 520.572 18.6966 537.217L54.1052 603.799L94.2881 615.526L138.051 633.306H438.029H635.76L678.728 604.933L715.727 541L707.77 485.768H899.534L973.53 465.718L1028.84 379.843L1001.78 297.751L920.623 246.301L849.405 256.894L823.147 200.526L734.824 119.57L668.782 107.086L563.351 119.57L486.169 188.043L458.319 246.301C450.893 249.833 434.847 256.894 430.072 256.894C425.298 256.894 384.585 249.833 364.825 246.301L266.557 289.05Z" fill="url(#paint2_linear_673_2148)"/>
<path d="M901.412 234.399C886.16 234.399 871.351 236.653 857.194 241.114C831.428 152.791 746.606 90.4805 648.455 90.4805C551.516 90.4805 466.324 152.666 440.161 240.207C425.221 237.086 409.781 235.277 393.891 235.277C295.758 235.277 210.95 297.572 185.184 385.91C171.028 381.434 156.221 379.179 140.967 379.179C63.2389 379.179 0 439.298 0 513.207C0 587.133 63.2389 647.265 140.967 647.265H612.891C677.944 647.265 730.86 596.933 730.86 535.077C730.86 523.721 729.023 512.783 725.71 502.454H901.412C979.138 502.454 1042.36 442.338 1042.36 368.427C1042.36 294.516 979.138 234.399 901.412 234.399ZM612.891 616.291H140.967C81.1953 616.291 32.5739 570.044 32.5739 513.207C32.5739 456.387 81.1953 410.153 140.967 410.153C158.034 410.153 174.337 413.814 189.446 421.043C194.028 423.236 199.419 423.236 204.032 421.057C208.628 418.879 211.874 414.766 212.796 409.957C228.622 326.685 304.79 266.251 393.891 266.251C494.746 266.251 577.326 344.244 577.947 440.114C577.979 444.697 580.142 449.037 583.847 451.956C587.569 454.875 592.484 456.07 597.194 455.253C602.41 454.346 607.69 453.877 612.891 453.877C659.971 453.877 698.286 490.309 698.286 535.077C698.286 579.859 659.971 616.291 612.891 616.291ZM901.412 471.48H709.992C688.135 441.456 651.243 422.022 609.679 422.948C602.251 343.423 546.83 276.732 471.387 249.058C493.455 174.473 565.939 121.454 648.455 121.454C737.572 121.454 813.757 181.889 829.584 265.161C830.507 269.971 833.751 274.084 838.331 276.262C842.913 278.441 848.336 278.455 852.916 276.248C868.042 269.033 884.362 265.373 901.412 265.373C961.164 265.373 1009.79 311.607 1009.79 368.427C1009.79 425.248 961.164 471.48 901.412 471.48Z" fill="url(#paint3_linear_673_2148)"/>
<path d="M585.004 263.703L513.149 365.186L484.09 404.373H471.939H443.936L325.586 428.488C305.156 457.292 262.606 516.106 255.843 520.929C249.081 525.752 253.026 571.167 255.843 593.273L302.866 681.694L356.229 697.268L414.348 720.88H812.723H1075.31L1132.38 683.201L1181.51 598.296L1170.94 524.948H1425.6L1523.88 498.321L1597.32 384.278L1561.39 275.259L1453.61 206.933L1359.03 221L1324.16 146.143L1206.87 38.6316L1119.17 22.0527L979.156 38.6316L876.653 129.565L839.669 206.933C829.806 211.622 808.496 221 802.156 221C795.815 221 741.748 211.622 715.506 206.933L585.004 263.703Z" fill="url(#paint4_linear_673_2148)"/>
<path d="M1428.1 191.126C1407.85 191.126 1388.18 194.118 1369.38 200.044C1335.16 82.7501 1222.52 0 1092.17 0C963.438 0 850.299 82.5835 815.554 198.838C795.714 194.695 775.209 192.293 754.107 192.293C623.785 192.293 511.158 275.02 476.941 392.334C458.141 386.391 438.478 383.396 418.22 383.396C314.996 383.396 231.014 463.234 231.014 561.387C231.014 659.561 314.996 739.418 418.22 739.418H1044.95C1131.34 739.418 1201.61 672.576 1201.61 590.431C1201.61 575.349 1199.16 560.822 1194.77 547.107H1428.1C1531.33 547.107 1615.29 467.271 1615.29 369.117C1615.29 270.962 1531.33 191.126 1428.1 191.126ZM1044.95 698.284H418.22C338.843 698.284 274.273 636.866 274.273 561.387C274.273 485.93 338.843 424.529 418.22 424.529C440.885 424.529 462.536 429.391 482.601 438.992C488.686 441.904 495.845 441.904 501.97 439.01C508.075 436.118 512.385 430.656 513.609 424.268C534.627 313.684 635.78 233.426 754.107 233.426C888.045 233.426 997.71 337.002 998.534 464.318C998.579 470.403 1001.45 476.168 1006.37 480.045C1011.32 483.92 1017.84 485.507 1024.09 484.423C1031.02 483.219 1038.03 482.595 1044.95 482.595C1107.46 482.595 1158.35 530.978 1158.35 590.431C1158.35 649.901 1107.46 698.284 1044.95 698.284ZM1428.1 505.974H1173.9C1144.87 466.101 1095.88 440.292 1040.68 441.522C1030.81 335.912 957.214 247.346 857.022 210.593C886.329 111.544 982.59 41.1334 1092.17 41.1334C1210.52 41.1334 1311.7 121.393 1332.72 231.978C1333.94 238.366 1338.24 243.828 1344.33 246.72C1350.41 249.614 1357.61 249.632 1363.7 246.702C1383.78 237.119 1405.45 232.259 1428.1 232.259C1507.45 232.259 1572.03 293.659 1572.03 369.117C1572.03 444.576 1507.45 505.974 1428.1 505.974Z" fill="url(#paint5_linear_673_2148)"/>
</g>
<defs>
<linearGradient id="paint0_linear_673_2148" x1="1384.27" y1="268.531" x2="1384.27" y2="794.751" gradientUnits="userSpaceOnUse">
<stop stop-color="white"/>
<stop offset="0.0001" stop-color="#DBDBDB"/>
<stop offset="1" stop-color="#BBBBBB"/>
</linearGradient>
<linearGradient id="paint1_linear_673_2148" x1="1385.45" y1="251.926" x2="1385.45" y2="808.71" gradientUnits="userSpaceOnUse">
<stop stop-color="white"/>
<stop offset="0.0001" stop-color="#DBDBDB"/>
<stop offset="1" stop-color="#BBBBBB"/>
</linearGradient>
<linearGradient id="paint2_linear_673_2148" x1="522.359" y1="107.086" x2="522.359" y2="633.306" gradientUnits="userSpaceOnUse">
<stop stop-color="white"/>
<stop offset="0.0001" stop-color="#DBDBDB"/>
<stop offset="1" stop-color="#BBBBBB"/>
</linearGradient>
<linearGradient id="paint3_linear_673_2148" x1="521.182" y1="90.4805" x2="521.182" y2="647.265" gradientUnits="userSpaceOnUse">
<stop stop-color="white"/>
<stop offset="0.0001" stop-color="#DBDBDB"/>
<stop offset="1" stop-color="#BBBBBB"/>
</linearGradient>
<linearGradient id="paint4_linear_673_2148" x1="924.718" y1="22.0527" x2="924.718" y2="720.88" gradientUnits="userSpaceOnUse">
<stop stop-color="white"/>
<stop offset="0.0001" stop-color="#DBDBDB"/>
<stop offset="1" stop-color="#BBBBBB"/>
</linearGradient>
<linearGradient id="paint5_linear_673_2148" x1="923.151" y1="0" x2="923.151" y2="739.418" gradientUnits="userSpaceOnUse">
<stop stop-color="white"/>
<stop offset="0.0001" stop-color="#DBDBDB"/>
<stop offset="1" stop-color="#BBBBBB"/>
</linearGradient>
<clipPath id="clip0_673_2148">
<rect width="1907" height="809" fill="white"/>
</clipPath>
</defs>
</svg>
