<svg width="24" height="24" viewBox="0 0 24 24" fill="none" xmlns="http://www.w3.org/2000/svg">
<path d="M4 10.1667H7.33333V21.5H4V10.1667ZM5.65667 8.83333H5.638C4.64333 8.83333 4 8.092 4 7.166C4 6.22 4.66333 5.5 5.676 5.5C6.69 5.5 7.31467 6.22 7.33333 7.166C7.33333 8.09133 6.69 8.83333 5.65667 8.83333ZM20 21.5H16.6667V15.434C16.6667 13.9687 15.85 12.9687 14.5387 12.9687C13.538 12.9687 12.9967 13.6433 12.734 14.2953C12.638 14.5287 12.6667 15.174 12.6667 15.5V21.5H9.33333V10.1667H12.6667V11.9107C13.1473 11.1667 13.9 10.1667 15.8253 10.1667C18.2107 10.1667 19.9993 11.6667 19.9993 15.016L20 21.5Z" fill="black"/>
</svg>
