<svg width="24" height="24" viewBox="0 0 24 24" fill="none" xmlns="http://www.w3.org/2000/svg">
<path fill-rule="evenodd" clip-rule="evenodd" d="M12 24C18.6274 24 24 18.6274 24 12C24 5.37258 18.6274 0 12 0C5.37258 0 0 5.37258 0 12C0 18.6274 5.37258 24 12 24ZM16.07 10.394C15.5623 10.5418 14.8269 10.7403 14.0436 10.8997C14.0762 11.2026 14.0955 11.5001 14.0955 11.7814C14.0955 12.1917 14.0544 12.6383 13.9901 13.0873C14.9278 12.8919 15.7879 12.642 16.2295 12.5063C16.2677 12.2705 16.2875 12.0284 16.2875 11.7814C16.2875 11.2968 16.2111 10.8307 16.07 10.394ZM16.0133 13.3331C15.4666 13.491 14.6811 13.6999 13.8593 13.8589C13.7003 14.6807 13.4914 15.4662 13.3335 16.0129C14.5735 15.558 15.5584 14.5731 16.0133 13.3331ZM12.5067 16.2291C12.6424 15.7875 12.8923 14.9274 13.0877 13.9897C12.6387 14.054 12.1921 14.0951 11.7818 14.0951C11.3714 14.0951 10.9248 14.054 10.4758 13.9897C10.6713 14.9274 10.9211 15.7875 11.0568 16.2291C11.2926 16.2673 11.5348 16.2871 11.7818 16.2871C12.0288 16.2871 12.2709 16.2673 12.5067 16.2291ZM10.2301 16.0129C10.0722 15.4662 9.86322 14.6807 9.70425 13.8589C8.88245 13.6999 8.09693 13.491 7.55028 13.3331C8.00517 14.5731 8.99005 15.558 10.2301 16.0129ZM7.33403 12.5063C7.77568 12.642 8.63577 12.8919 9.57341 13.0873C9.5091 12.6383 9.46803 12.1917 9.46803 11.7814C9.46803 11.5001 9.48731 11.2026 9.51993 10.8997C8.73663 10.7403 8.00126 10.5418 7.4936 10.394C7.35243 10.8307 7.27607 11.2968 7.27607 11.7814C7.27607 12.0284 7.29591 12.2705 7.33403 12.5063ZM10.2408 11.0314C10.2138 11.2947 10.1987 11.5472 10.1987 11.7814C10.1987 12.2189 10.2515 12.7179 10.3341 13.229C10.8453 13.3117 11.3443 13.3645 11.7818 13.3645C12.2193 13.3645 12.7183 13.3117 13.2294 13.229C13.3121 12.7179 13.3649 12.2189 13.3649 11.7814C13.3649 11.5472 13.3497 11.2947 13.3228 11.0314C12.7954 11.1159 12.2634 11.1725 11.7818 11.1725C11.3001 11.1725 10.7682 11.1159 10.2408 11.0314ZM13.9437 10.1743C14.6449 10.0299 15.3065 9.85357 15.787 9.71526C15.2721 8.71916 14.3963 7.93979 13.3335 7.54989C13.5212 8.1997 13.7813 9.18799 13.9437 10.1743ZM12.5067 7.33362C12.6777 7.89018 13.0288 9.10767 13.2251 10.3071C12.7158 10.3893 12.2183 10.4418 11.7818 10.4418C11.3452 10.4418 10.8477 10.3893 10.3385 10.3071C10.5347 9.10766 10.8859 7.89018 11.0568 7.33362C11.2926 7.29551 11.5348 7.27567 11.7818 7.27567C12.0288 7.27567 12.2709 7.29551 12.5067 7.33362ZM10.2301 7.54989C9.16723 7.9398 8.29151 8.71915 7.77656 9.71526C8.25703 9.85358 8.9186 10.0299 9.61984 10.1743C9.78226 9.18799 10.0424 8.1997 10.2301 7.54989ZM16.6318 9.804C16.881 10.4146 17.0181 11.0824 17.0181 11.7814C17.0181 12.1524 16.9795 12.5148 16.9059 12.8646C16.4802 14.8876 14.888 16.4798 12.865 16.9055C12.5152 16.9791 12.1528 17.0177 11.7818 17.0177C11.4107 17.0177 11.0483 16.9791 10.6985 16.9055C8.67554 16.4798 7.08334 14.8876 6.65766 12.8646C6.58406 12.5148 6.54541 12.1524 6.54541 11.7814C6.54541 11.0819 6.68276 10.4136 6.93231 9.80257C7.58044 8.21573 8.98451 7.01793 10.6985 6.65726C11.0483 6.58366 11.4107 6.54501 11.7818 6.54501C12.1528 6.54501 12.5152 6.58366 12.865 6.65727C14.5796 7.01804 15.984 8.21645 16.6318 9.804Z" fill="white"/>
</svg>
