<svg width="1411" height="1108" viewBox="0 0 1411 1108" fill="none" xmlns="http://www.w3.org/2000/svg">
<path d="M1087 599.215L1104.66 539" stroke="#3CAED6" stroke-width="12" stroke-linecap="round"/>
<path d="M1387.08 972.056L1404.75 911.841" stroke="#3CAED6" stroke-width="12" stroke-linecap="round"/>
<path d="M1207.72 822.18L1225.39 761.965" stroke="#3CAED6" stroke-width="12" stroke-linecap="round"/>
<path d="M996.223 723.438L1013.89 663.224" stroke="#3CAED6" stroke-width="12" stroke-linecap="round"/>
<path d="M1259.33 659.078L1276.99 598.864" stroke="#3CAED6" stroke-width="12" stroke-linecap="round"/>
<path d="M1015.68 822.18L1033.35 761.965" stroke="#3CAED6" stroke-width="12" stroke-linecap="round"/>
<path d="M941.226 920.923L958.892 860.708" stroke="#3CAED6" stroke-width="12" stroke-linecap="round"/>
<path d="M1068.97 972.056L1086.63 911.841" stroke="#3CAED6" stroke-width="12" stroke-linecap="round"/>
<path d="M1157.81 792.203L1175.48 731.989" stroke="#3CAED6" stroke-width="12" stroke-linecap="round"/>
<path d="M915 659.078L932.666 598.864" stroke="#3CAED6" stroke-width="12" stroke-linecap="round"/>
<path d="M1128.2 693.46L1145.87 633.246" stroke="#3CAED6" stroke-width="12" stroke-linecap="round"/>
<path d="M1086.74 852.153L1104.4 791.939" stroke="#3CAED6" stroke-width="12" stroke-linecap="round"/>
<path d="M1281.33 912.104L1299 851.889" stroke="#3CAED6" stroke-width="12" stroke-linecap="round"/>
<path d="M1299.09 783.386L1316.76 723.171" stroke="#3CAED6" stroke-width="12" stroke-linecap="round"/>
<path d="M653.998 728.215L671.664 668" stroke="#3CAED6" stroke-width="12" stroke-linecap="round"/>
<path d="M954.079 1101.05L971.745 1040.84" stroke="#3CAED6" stroke-width="12" stroke-linecap="round"/>
<path d="M774.722 951.178L792.388 890.963" stroke="#3CAED6" stroke-width="12" stroke-linecap="round"/>
<path d="M563.223 852.437L580.889 792.222" stroke="#3CAED6" stroke-width="12" stroke-linecap="round"/>
<path d="M826.328 788.075L843.994 727.861" stroke="#3CAED6" stroke-width="12" stroke-linecap="round"/>
<path d="M582.683 951.178L600.349 890.963" stroke="#3CAED6" stroke-width="12" stroke-linecap="round"/>
<path d="M508.226 1049.92L525.892 989.703" stroke="#3CAED6" stroke-width="12" stroke-linecap="round"/>
<path d="M635.967 1101.05L653.633 1040.84" stroke="#3CAED6" stroke-width="12" stroke-linecap="round"/>
<path d="M724.812 921.2L742.478 860.986" stroke="#3CAED6" stroke-width="12" stroke-linecap="round"/>
<path d="M482 788.075L499.666 727.861" stroke="#3CAED6" stroke-width="12" stroke-linecap="round"/>
<path d="M695.204 822.457L712.87 762.243" stroke="#3CAED6" stroke-width="12" stroke-linecap="round"/>
<path d="M653.736 981.153L671.402 920.939" stroke="#3CAED6" stroke-width="12" stroke-linecap="round"/>
<path d="M848.332 1041.1L865.998 980.888" stroke="#3CAED6" stroke-width="12" stroke-linecap="round"/>
<path d="M866.093 912.384L883.759 852.169" stroke="#3CAED6" stroke-width="12" stroke-linecap="round"/>
<path d="M181.998 593.514L199.664 533.299" stroke="#3CAED6" stroke-width="12" stroke-linecap="round"/>
<path d="M482.079 966.354L499.745 906.14" stroke="#3CAED6" stroke-width="12" stroke-linecap="round"/>
<path d="M302.722 816.479L320.388 756.264" stroke="#3CAED6" stroke-width="12" stroke-linecap="round"/>
<path d="M91.2227 717.737L108.889 657.523" stroke="#3CAED6" stroke-width="12" stroke-linecap="round"/>
<path d="M354.328 653.377L371.994 593.163" stroke="#3CAED6" stroke-width="12" stroke-linecap="round"/>
<path d="M110.683 816.479L128.349 756.264" stroke="#3CAED6" stroke-width="12" stroke-linecap="round"/>
<path d="M36.2256 915.222L53.8916 855.007" stroke="#3CAED6" stroke-width="12" stroke-linecap="round"/>
<path d="M163.967 966.354L181.633 906.14" stroke="#3CAED6" stroke-width="12" stroke-linecap="round"/>
<path d="M252.812 786.502L270.477 726.288" stroke="#3CAED6" stroke-width="12" stroke-linecap="round"/>
<path d="M10 653.377L27.666 593.163" stroke="#3CAED6" stroke-width="12" stroke-linecap="round"/>
<path d="M223.204 687.759L240.87 627.544" stroke="#3CAED6" stroke-width="12" stroke-linecap="round"/>
<path d="M181.736 846.452L199.402 786.238" stroke="#3CAED6" stroke-width="12" stroke-linecap="round"/>
<path d="M376.332 906.402L393.998 846.188" stroke="#3CAED6" stroke-width="12" stroke-linecap="round"/>
<path d="M394.094 777.685L411.76 717.47" stroke="#3CAED6" stroke-width="12" stroke-linecap="round"/>
<path d="M294.233 223.851L234.507 309.998L210.354 343.262H200.253H176.978L78.607 363.733C61.6261 388.184 26.2591 438.109 20.6379 442.203C15.0167 446.297 18.2958 484.85 20.6379 503.614L59.7229 578.673L104.078 591.893L152.385 611.937H483.509H701.77L749.199 579.952L790.04 507.879L781.257 445.615H992.931L1074.61 423.012L1135.66 326.204L1105.79 233.66L1016.21 175.66L937.597 187.601L908.613 124.057L811.12 32.7932L738.22 18.7197L621.843 32.7932L536.647 109.984L505.906 175.66C497.708 179.641 479.996 187.601 474.726 187.601C469.456 187.601 424.516 179.641 402.704 175.66L294.233 223.851Z" fill="url(#paint0_linear_670_1456)"/>
<path d="M995.004 162.242C978.168 162.242 961.822 164.783 946.195 169.812C917.754 70.2445 824.125 0 715.783 0C608.779 0 514.742 70.1031 485.862 168.789C469.371 165.271 452.328 163.232 434.788 163.232C326.466 163.232 232.853 233.458 204.411 333.043C188.785 327.997 172.441 325.455 155.603 325.455C69.8049 325.455 0 393.228 0 476.547C0 559.885 69.8049 627.673 155.603 627.673H676.526C748.334 627.673 806.744 570.933 806.744 501.202C806.744 488.4 804.716 476.069 801.059 464.425H995.004C1080.8 464.425 1150.59 396.655 1150.59 313.334C1150.59 230.013 1080.8 162.242 995.004 162.242ZM676.526 592.756H155.603C89.6256 592.756 35.956 540.62 35.956 476.547C35.956 412.493 89.6256 360.372 155.603 360.372C174.442 360.372 192.438 364.5 209.116 372.649C214.173 375.121 220.124 375.121 225.216 372.665C230.289 370.21 233.872 365.573 234.89 360.151C252.359 266.278 336.436 198.149 434.788 198.149C546.115 198.149 637.269 286.072 637.954 394.148C637.99 399.314 640.377 404.207 644.467 407.498C648.575 410.788 654.001 412.135 659.199 411.215C664.957 410.192 670.785 409.663 676.526 409.663C728.495 409.663 770.788 450.734 770.788 501.202C770.788 551.685 728.495 592.756 676.526 592.756ZM995.004 429.508H783.709C759.583 395.661 718.86 373.753 672.981 374.797C664.781 285.147 603.606 209.965 520.33 178.767C544.69 94.6864 624.699 34.9171 715.783 34.9171C814.153 34.9171 898.248 103.047 915.718 196.92C916.737 202.343 920.318 206.98 925.373 209.435C930.431 211.891 936.417 211.907 941.473 209.419C958.169 201.285 976.183 197.159 995.004 197.159C1060.96 197.159 1114.63 249.28 1114.63 313.334C1114.63 377.389 1060.96 429.508 995.004 429.508Z" fill="url(#paint1_linear_670_1456)"/>
<defs>
<linearGradient id="paint0_linear_670_1456" x1="576.595" y1="18.7197" x2="576.595" y2="611.937" gradientUnits="userSpaceOnUse">
<stop stop-color="#D8EEFF"/>
<stop offset="0.0001" stop-color="white"/>
<stop offset="1" stop-color="#D7DEE3"/>
</linearGradient>
<linearGradient id="paint1_linear_670_1456" x1="575.295" y1="0" x2="575.295" y2="627.673" gradientUnits="userSpaceOnUse">
<stop stop-color="#D8EEFF"/>
<stop offset="0.0001" stop-color="white"/>
<stop offset="1" stop-color="#D7DEE3"/>
</linearGradient>
</defs>
</svg>
