<svg width="1039" height="816" viewBox="0 0 1039 816" fill="none" xmlns="http://www.w3.org/2000/svg">
<g clip-path="url(#clip0_673_2155)">
<path d="M800.42 441.299L813.424 396.953" stroke="#3CAED6" stroke-width="12" stroke-linecap="round"/>
<path d="M1021.39 715.882L1034.4 671.536" stroke="#3CAED6" stroke-width="12" stroke-linecap="round"/>
<path d="M889.313 605.504L902.325 561.158" stroke="#3CAED6" stroke-width="12" stroke-linecap="round"/>
<path d="M733.576 532.785L746.585 488.439" stroke="#3CAED6" stroke-width="12" stroke-linecap="round"/>
<path d="M927.316 485.386L940.32 441.041" stroke="#3CAED6" stroke-width="12" stroke-linecap="round"/>
<path d="M747.903 605.504L760.915 561.158" stroke="#3CAED6" stroke-width="12" stroke-linecap="round"/>
<path d="M693.078 678.225L706.087 633.879" stroke="#3CAED6" stroke-width="12" stroke-linecap="round"/>
<path d="M787.144 715.882L800.148 671.536" stroke="#3CAED6" stroke-width="12" stroke-linecap="round"/>
<path d="M852.562 583.427L865.573 539.082" stroke="#3CAED6" stroke-width="12" stroke-linecap="round"/>
<path d="M673.767 485.386L686.775 441.041" stroke="#3CAED6" stroke-width="12" stroke-linecap="round"/>
<path d="M830.758 510.707L843.769 466.361" stroke="#3CAED6" stroke-width="12" stroke-linecap="round"/>
<path d="M800.229 627.579L813.233 583.233" stroke="#3CAED6" stroke-width="12" stroke-linecap="round"/>
<path d="M943.517 671.73L956.528 627.384" stroke="#3CAED6" stroke-width="12" stroke-linecap="round"/>
<path d="M956.594 576.934L969.605 532.588" stroke="#3CAED6" stroke-width="12" stroke-linecap="round"/>
<path d="M481.576 536.303L494.585 491.957" stroke="#3CAED6" stroke-width="12" stroke-linecap="round"/>
<path d="M702.543 810.882L715.551 766.539" stroke="#3CAED6" stroke-width="12" stroke-linecap="round"/>
<path d="M570.472 700.506L583.48 656.16" stroke="#3CAED6" stroke-width="12" stroke-linecap="round"/>
<path d="M414.733 627.787L427.742 583.441" stroke="#3CAED6" stroke-width="12" stroke-linecap="round"/>
<path d="M608.473 580.387L621.481 536.042" stroke="#3CAED6" stroke-width="12" stroke-linecap="round"/>
<path d="M429.062 700.506L442.071 656.16" stroke="#3CAED6" stroke-width="12" stroke-linecap="round"/>
<path d="M374.236 773.226L387.245 728.879" stroke="#3CAED6" stroke-width="12" stroke-linecap="round"/>
<path d="M468.299 810.882L481.307 766.539" stroke="#3CAED6" stroke-width="12" stroke-linecap="round"/>
<path d="M533.721 678.429L546.729 634.084" stroke="#3CAED6" stroke-width="12" stroke-linecap="round"/>
<path d="M354.924 580.387L367.932 536.042" stroke="#3CAED6" stroke-width="12" stroke-linecap="round"/>
<path d="M511.918 605.709L524.926 561.363" stroke="#3CAED6" stroke-width="12" stroke-linecap="round"/>
<path d="M481.383 722.582L494.391 678.236" stroke="#3CAED6" stroke-width="12" stroke-linecap="round"/>
<path d="M624.676 766.731L637.684 722.387" stroke="#3CAED6" stroke-width="12" stroke-linecap="round"/>
<path d="M637.754 671.936L650.762 627.59" stroke="#3CAED6" stroke-width="12" stroke-linecap="round"/>
<path d="M134.016 437.101L147.024 392.755" stroke="#3CAED6" stroke-width="12" stroke-linecap="round"/>
<path d="M354.982 711.683L367.991 667.338" stroke="#3CAED6" stroke-width="12" stroke-linecap="round"/>
<path d="M222.911 601.306L235.92 556.96" stroke="#3CAED6" stroke-width="12" stroke-linecap="round"/>
<path d="M67.1729 528.587L80.1816 484.241" stroke="#3CAED6" stroke-width="12" stroke-linecap="round"/>
<path d="M260.912 481.187L273.921 436.842" stroke="#3CAED6" stroke-width="12" stroke-linecap="round"/>
<path d="M81.502 601.306L94.5104 556.96" stroke="#3CAED6" stroke-width="12" stroke-linecap="round"/>
<path d="M26.6748 674.027L39.6833 629.681" stroke="#3CAED6" stroke-width="12" stroke-linecap="round"/>
<path d="M120.738 711.683L133.747 667.338" stroke="#3CAED6" stroke-width="12" stroke-linecap="round"/>
<path d="M186.16 579.229L199.168 534.884" stroke="#3CAED6" stroke-width="12" stroke-linecap="round"/>
<path d="M7.36328 481.187L20.3718 436.842" stroke="#3CAED6" stroke-width="12" stroke-linecap="round"/>
<path d="M164.357 506.508L177.366 462.162" stroke="#3CAED6" stroke-width="12" stroke-linecap="round"/>
<path d="M133.822 623.38L146.831 579.034" stroke="#3CAED6" stroke-width="12" stroke-linecap="round"/>
<path d="M277.115 667.531L290.124 623.186" stroke="#3CAED6" stroke-width="12" stroke-linecap="round"/>
<path d="M290.194 572.736L303.203 528.39" stroke="#3CAED6" stroke-width="12" stroke-linecap="round"/>
<path d="M216.66 164.858L172.681 228.302L154.895 252.799H147.457H130.319L57.8826 267.875C45.3785 285.883 19.3358 322.65 15.1966 325.666C11.0574 328.681 13.472 357.073 15.1966 370.892L43.9771 426.17L76.6383 435.907L112.21 450.668H356.035H516.753L551.678 427.112L581.751 374.033L575.284 328.178H731.152L791.297 311.532L836.251 240.237L814.256 172.082L748.293 129.367L690.406 138.161L669.063 91.3631L597.274 24.1507L543.593 13.7861L457.898 24.1507L395.164 80.9988L372.527 129.367C366.491 132.299 353.448 138.161 349.568 138.161C345.687 138.161 312.595 132.299 296.534 129.367L216.66 164.858Z" fill="url(#paint0_linear_673_2155)"/>
<path d="M732.678 119.485C720.281 119.485 708.245 121.356 696.737 125.06C675.795 51.7324 606.85 0 527.072 0C448.279 0 379.034 51.6283 357.768 124.307C345.625 121.716 333.075 120.214 320.159 120.214C240.396 120.214 171.463 171.933 150.519 245.274C139.013 241.557 126.978 239.685 114.579 239.685C51.4013 239.685 0 289.598 0 350.959C0 412.334 51.4013 462.257 114.579 462.257H498.165C551.041 462.257 594.052 420.471 594.052 369.116C594.052 359.688 592.558 350.607 589.866 342.031H732.678C795.855 342.031 847.245 292.121 847.245 230.759C847.245 169.396 795.855 119.485 732.678 119.485ZM498.165 436.542H114.579C65.9964 436.542 26.4765 398.146 26.4765 350.959C26.4765 303.785 65.9964 265.4 114.579 265.4C128.452 265.4 141.703 268.44 153.984 274.442C157.708 276.262 162.09 276.262 165.839 274.454C169.575 272.646 172.213 269.231 172.963 265.238C185.826 196.104 247.737 145.929 320.159 145.929C402.136 145.929 469.258 210.681 469.762 290.275C469.788 294.08 471.546 297.683 474.558 300.107C477.583 302.53 481.578 303.522 485.406 302.844C489.646 302.091 493.937 301.701 498.165 301.701C536.433 301.701 567.575 331.949 567.575 369.116C567.575 406.295 536.433 436.542 498.165 436.542ZM732.678 316.316H577.09C559.324 291.389 529.338 275.255 495.554 276.024C489.516 210 444.47 154.631 383.149 131.655C401.086 69.7329 460.002 25.7151 527.072 25.7151C599.507 25.7151 661.431 75.8902 674.296 145.024C675.046 149.018 677.683 152.433 681.405 154.241C685.13 156.05 689.537 156.061 693.26 154.229C705.555 148.239 718.819 145.2 732.678 145.2C781.246 145.2 820.766 183.585 820.766 230.759C820.766 277.933 781.246 316.316 732.678 316.316Z" fill="url(#paint1_linear_673_2155)"/>
</g>
<defs>
<linearGradient id="paint0_linear_673_2155" x1="424.58" y1="13.7861" x2="424.58" y2="450.668" gradientUnits="userSpaceOnUse">
<stop stop-color="#D8EEFF"/>
<stop offset="0.0001" stop-color="white"/>
<stop offset="1" stop-color="#D7DEE3"/>
</linearGradient>
<linearGradient id="paint1_linear_673_2155" x1="423.623" y1="0" x2="423.623" y2="462.257" gradientUnits="userSpaceOnUse">
<stop stop-color="#D8EEFF"/>
<stop offset="0.0001" stop-color="white"/>
<stop offset="1" stop-color="#D7DEE3"/>
</linearGradient>
<clipPath id="clip0_673_2155">
<rect width="1039" height="816" fill="white"/>
</clipPath>
</defs>
</svg>
