<svg width="24" height="24" viewBox="0 0 24 24" fill="none" xmlns="http://www.w3.org/2000/svg">
<path d="M10.5037 0L9.00748 3.5611C8.70823 3.65087 8.4389 3.8005 8.16958 3.95012L4.60848 2.45387L2.45387 4.60848L3.95012 8.16958C3.8005 8.46883 3.6808 8.70823 3.5611 9.00748L0 10.5037V13.4963L3.5611 14.9925C3.6808 15.2918 3.8005 15.5312 3.95012 15.8304L2.45387 19.3915L4.60848 21.5461L8.16958 20.0499C8.4389 20.1696 8.70823 20.3192 9.00748 20.4389L10.5037 24H13.4963L14.9925 20.4389C15.2618 20.3192 15.5611 20.1995 15.8304 20.0499L19.3915 21.5461L21.5461 19.3915L20.0499 15.8304C20.1696 15.5611 20.3192 15.2618 20.4389 14.9925L24 13.4963V10.5037L20.4389 9.00748C20.3491 8.73815 20.1995 8.4389 20.0499 8.16958L21.5461 4.60848L19.3915 2.45387L15.8304 3.95012C15.5611 3.83042 15.2618 3.6808 14.9925 3.5611L13.4963 0L10.5037 0ZM12 7.4813C14.4838 7.4813 16.4888 9.48628 16.4888 11.9701C16.4888 14.4539 14.4838 16.4589 12 16.4589C9.51621 16.4589 7.51122 14.4539 7.51122 11.9701C7.51122 9.48628 9.51621 7.4813 12 7.4813Z" fill="white"/>
</svg>
