<svg width="1379" height="1130" viewBox="0 0 1379 1130" fill="none" xmlns="http://www.w3.org/2000/svg">
<g clip-path="url(#clip0_669_1328)">
<path d="M123.555 770.825C124.447 768.65 127.108 767.924 132.4 767.924C141.637 768.649 158.015 801.275 157.195 780.975C171.173 773 158.45 804.175 173.421 807.075C182.86 817.225 178.503 800.55 179.482 795.475C181.004 788.225 177.582 783.15 172.21 779.525L157.268 764.299C164.757 744.724 183.266 786.05 178.808 762.125C175.255 754.875 181.135 744.725 186.688 744H186.601C188.066 744 189.458 744.724 190.777 746.174C191.974 746.899 193.112 748.35 193.917 750.525H194.004C194.41 751.25 194.83 752.699 195.077 753.424H195.156C195.338 754.149 195.577 754.875 195.635 756.325H195.519C195.562 757.05 195.606 757.775 195.446 759.225H195.33C195.156 759.95 194.961 761.4 194.555 762.125H194.439C193.924 765.025 193.779 767.199 193.866 767.924C193.873 767.924 193.75 768.65 193.757 768.65C193.808 768.65 194.04 769.375 194.207 769.375C194.388 769.375 194.692 770.1 194.997 770.1C195.309 770.1 195.642 769.375 196.055 769.375C197.295 768.65 198.861 766.475 200.746 765.025C203.202 762.85 206.125 759.95 208.799 759.225C210.217 759.225 211.52 759.225 212.783 759.95C213.391 759.95 213.881 760.675 214.427 761.4C215.026 762.125 215.585 763.574 216.093 764.299L201.225 779.525C198.535 780.975 196.338 783.874 195.04 786.049C194.721 786.774 194.41 787.5 194.207 788.225C193.996 788.95 193.859 789.675 193.772 790.4C193.569 791.85 193.692 793.3 194.091 795.475C194.337 796.2 194.199 798.374 194.062 800.549C193.996 801.999 194.134 802.725 194.076 803.45C194.033 804.9 193.844 806.35 193.895 807.075C193.931 807.8 193.946 808.525 194.17 809.25C194.497 809.975 195.149 809.975 196.07 809.975C196.962 809.975 198.281 808.525 199.956 807.075H200.072C201.87 806.35 203.321 805.625 204.41 804.9C204.966 804.175 205.348 803.45 205.756 802.725C206.193 802 206.643 801.274 206.935 800.549C207.47 799.099 207.731 796.925 207.954 795.475H208.069C208.173 794.025 208.157 793.3 208.222 792.575C208.293 791.85 208.239 791.124 208.292 789.674C208.343 788.949 208.385 788.225 208.446 787.5C208.507 786.775 208.697 785.325 208.798 784.6C208.845 784.6 208.998 784.6 209.059 783.875C209.736 780.25 211.319 778.075 216.133 780.975H216.018C215.978 782.425 216.075 783.15 216.147 783.875C216.152 783.875 216.028 783.875 216.033 784.6C216.113 785.325 216.359 785.324 216.536 786.049C216.731 786.774 216.888 786.775 217.187 787.5H218.295C219.078 787.5 220.097 786.774 221.179 786.049C224.385 783.149 228.668 777.35 232.853 773C235.668 770.1 238.472 767.924 240.792 767.924C240.841 767.924 240.859 767.2 240.907 767.2C246.332 767.2 248.81 768.65 249.631 770.825C249.855 771.55 250.037 772.275 250.052 773C250.064 773 249.9 773.725 249.73 774.45C249.411 775.9 248.759 777.35 247.801 779.525C246.01 782.425 243.277 785.325 240.472 788.225C237.606 791.125 234.687 793.3 232.471 794.75C229.37 796.925 227.937 798.375 227.782 799.1C227.741 799.1 227.86 799.825 227.95 799.825C228.777 801.275 234.373 800.55 237.164 802C237.783 802.725 238.246 803.449 238.494 804.174C238.259 804.899 237.936 804.9 237.576 805.625C236.495 807.075 235.005 807.8 233.094 808.525C229.264 809.25 224.198 808.525 219.65 809.25C218.158 809.975 216.764 809.975 215.458 810.7C213.499 811.425 211.828 812.874 210.655 815.049C210.263 816.499 209.946 817.225 209.674 817.95C208.197 818.675 207.14 819.4 206.447 820.125C205.754 820.85 205.469 821.574 205.414 822.299H205.498C205.606 822.299 205.673 822.3 205.896 823.025C208.115 823.75 215.652 822.3 219.049 823.025C221.795 823.75 224.332 823.75 226.65 823.025C228.967 822.3 231.102 821.575 233.098 820.125C234.038 819.4 235.01 818.675 235.897 817.95C236.834 817.225 237.838 816.5 238.727 815.775C240.456 813.6 242.171 811.425 243.791 809.975C244.021 809.25 244.198 808.524 244.542 807.799C244.905 807.074 245.418 806.35 245.888 805.625C246.285 805.625 246.755 804.899 247.204 804.174C247.704 804.174 248.261 804.175 248.803 803.45H250.569C252.226 802.725 253.973 803.45 255.379 803.45C256.428 804.175 257.118 804.9 257.734 805.625C258.041 805.625 258.315 806.35 258.499 806.35C258.679 807.075 258.801 807.074 258.834 807.799H258.72C258.728 808.524 258.66 808.525 258.544 809.25C258.232 810.7 257.255 812.875 254.734 814.325C250.49 816.5 248.487 818.675 248.017 820.125C247.9 820.125 248.007 820.85 248.07 820.85C248.15 820.85 248.067 821.575 248.239 821.575H248.437C249.399 822.3 251.273 823.025 253.699 823.025H253.897H257.797H257.996H266.056C268.301 823.025 269.94 823.75 271.172 825.2H271.569C272.576 825.925 273.245 826.65 273.58 827.375C273.617 827.375 273.632 828.1 273.664 828.1C273.783 828.1 273.997 828.825 274 828.825C274.003 828.825 273.885 829.549 273.885 829.549C273.868 829.549 273.735 830.275 273.594 831C273.034 833.175 271.146 834.624 268.614 836.799C267.36 837.524 266.074 838.25 264.591 838.25C261.564 839.7 258.265 839.7 255.254 838.25C249.542 836.8 247.522 837.525 247.423 838.25C247.503 838.975 248.023 839.699 248.921 840.424C249.868 841.874 251.117 843.324 252.407 844.049C253.562 845.499 254.791 846.95 255.778 848.4H255.862C256.865 849.85 257.769 851.3 258.093 852.025C258.244 852.75 258.353 853.475 258.284 854.2H258.17C258.156 854.925 258.073 854.924 258.055 854.924C257.742 856.374 256.372 858.55 252.823 859.275L237.884 844.775C237.824 844.775 237.861 844.774 237.801 844.049C236.797 843.324 235.848 841.875 234.712 841.15C231.306 838.25 227.211 836.8 222.057 837.525C218.167 838.25 209.465 836.075 207.336 838.25H206.991C206.962 838.975 206.891 838.975 206.877 838.975C206.871 838.975 206.964 838.975 207.045 839.7C207.362 840.425 208.349 841.875 210.301 843.325H210.186C210.344 844.775 210.631 845.5 210.974 845.5C215.443 854.925 234.382 849.125 237.101 854.2C237.275 854.2 237.519 854.925 237.552 855.65H237.438C237.448 855.65 237.538 856.375 237.345 857.1C237.154 857.825 236.782 858.55 236.281 859.275H236.167C233.601 859.275 231.964 859.275 230.897 860C229.985 860 229.372 860.725 229.467 861.45C230.032 865.8 245.971 875.225 249.19 882.475C249.457 882.475 249.734 883.199 249.809 883.924H249.694C249.704 885.374 249.735 886.824 249.594 887.549H249.479C249.33 888.274 249.201 889 248.928 889.725C248.903 889.725 248.838 890.45 248.813 890.45C248.219 891.175 247.315 892.625 246.296 892.625C239.921 895.525 226.203 882.475 222.228 875.95C219.68 872.325 218.263 870.875 217.465 870.875C217.16 871.6 216.937 871.6 216.776 872.325H216.662C216.498 873.05 216.426 873.775 216.31 875.225C216.001 877.4 215.543 880.3 214.059 881.75H213.004C212.139 882.475 211.132 882.475 209.647 881.75C209.645 881.025 209.563 881.025 209.563 881.025C209.55 879.575 209.624 878.124 209.526 876.674C209.518 876.674 209.45 876.675 209.442 875.95C209.337 874.5 209.107 873.05 208.893 871.6H208.809C208.579 870.15 208.318 868.7 207.946 867.25C207.555 865.8 207.143 863.625 206.571 862.9C205.59 860 204.185 857.825 202.558 855.65C202.242 855.65 202.054 854.925 201.71 854.2C200.688 853.475 199.716 852.024 198.426 851.299C197.135 849.849 195.664 849.124 194.083 847.674L194.112 873.049C197.208 878.124 203.264 882.474 207.541 887.549C209.271 888.274 210.495 889 211.487 890.45C211.878 890.45 212.361 891.174 212.648 891.174C212.703 891.174 212.682 891.175 212.732 891.9C213.05 891.9 213.286 892.625 213.466 893.35H213.55C213.787 894.075 214.079 894.8 214.024 895.525C213.976 896.975 213.625 897.699 213.128 898.424C212.425 899.874 211.305 900.6 210.015 900.6C209.513 901.325 209.131 901.325 208.562 901.325C207.547 901.325 206.4 900.6 205.236 899.875C204.071 899.15 202.868 898.425 201.635 896.25C200.659 895.525 199.796 894.075 199.057 893.35C197.585 891.9 196.439 891.175 195.707 890.45C195.446 890.45 195.149 891.174 194.968 891.174C194.518 891.899 194.344 892.625 194.272 894.075C194.199 895.525 194.119 897.7 194.163 899.15C194.214 901.325 194.388 903.499 194.308 905.674H194.192C194.105 907.849 193.982 909.3 193.539 911.475C193.097 912.925 192.263 914.375 191.212 915.825C190.668 916.55 190.139 916.55 189.385 917.275C188.588 917.275 187.761 918 186.681 918C170.861 918 187.275 875.95 171.71 896.25C161.85 908.575 152.903 892.624 165.772 887.549C170.049 882.474 176.292 878.849 179.387 873.049L179.474 848.4C166.787 855.65 163.887 867.975 163.778 881.75C152.773 886.825 161.357 861.45 151.163 875.95C145.907 884.65 123.186 904.949 123.505 883.924C124.831 875.224 157.55 858.55 137.026 859.275C128.804 845.5 160.508 858.55 162.981 843.325C173.392 833.9 157.086 838.975 151.301 837.525C144.435 836.075 139.57 839.7 135.554 844.775L120.568 859.275C100.863 852.025 142.333 833.9 117.966 838.25C106.17 843.325 89.3932 826.65 107.351 823.025C116.871 823.75 135.75 823.75 118.777 814.325C106.17 804.9 125.868 796.925 129.536 809.975C136.206 817.225 143.261 825.925 154.244 823.025C159.682 822.3 175.625 825.925 163.807 817.95C159.457 802.725 138.592 814.324 134.829 804.174C136.816 798.374 153.338 804.175 140.933 794.75C134.285 791.125 120.895 777.35 123.555 770.825Z" fill="#FBFBFB"/>
</g>
<path d="M347.785 253.906L277.19 351.62L248.641 389.351H236.702H209.19L92.9157 412.57C72.8443 440.303 31.0405 496.932 24.3962 501.576C17.7519 506.22 21.6277 549.949 24.3962 571.233L70.5947 656.369L123.022 671.365L180.121 694.1H571.511H829.495L885.556 657.82L933.831 576.07L923.449 505.446H1173.65L1270.2 479.808L1342.35 370.001L1307.05 265.032L1201.16 199.245L1108.24 212.789L1073.98 140.714L958.747 37.1955L872.579 21.2324L735.022 37.1955L634.32 124.751L597.984 199.245C588.294 203.76 567.358 212.789 561.129 212.789C554.9 212.789 501.78 203.76 475.999 199.245L347.785 253.906Z" fill="url(#paint0_linear_669_1328)"/>
<path d="M1176.1 184.026C1156.2 184.026 1136.87 186.908 1118.4 192.613C1084.79 79.676 974.117 0 846.056 0C719.578 0 608.426 79.5157 574.29 191.452C554.797 187.462 534.652 185.149 513.921 185.149C385.883 185.149 275.232 264.803 241.615 377.76C223.144 372.037 203.826 369.154 183.923 369.154C82.5095 369.154 0 446.026 0 540.532C0 635.06 82.5095 711.95 183.923 711.95H799.655C884.531 711.95 953.573 647.591 953.573 568.497C953.573 553.976 951.176 539.989 946.853 526.783H1176.1C1277.51 526.783 1360 449.913 1360 355.404C1360 260.896 1277.51 184.026 1176.1 184.026ZM799.655 672.344H183.923C105.938 672.344 42.5 613.208 42.5 540.532C42.5 467.878 105.938 408.759 183.923 408.759C206.191 408.759 227.462 413.44 247.176 422.684C253.153 425.488 260.187 425.488 266.205 422.702C272.202 419.918 276.437 414.658 277.64 408.507C298.288 302.03 397.668 224.754 513.921 224.754C645.509 224.754 753.253 324.483 754.063 447.069C754.105 452.929 756.927 458.479 761.762 462.212C766.617 465.943 773.03 467.472 779.174 466.428C785.98 465.268 792.869 464.668 799.655 464.668C861.082 464.668 911.073 511.254 911.073 568.497C911.073 625.759 861.082 672.344 799.655 672.344ZM1176.1 487.177H926.345C897.828 448.786 849.694 423.936 795.464 425.12C785.772 323.433 713.463 238.157 615.03 202.769C643.824 107.4 738.395 39.6053 846.056 39.6053C962.33 39.6053 1061.73 116.883 1082.38 223.36C1083.58 229.511 1087.82 234.771 1093.79 237.555C1099.77 240.341 1106.85 240.359 1112.82 237.537C1132.56 228.311 1153.85 223.632 1176.1 223.632C1254.06 223.632 1317.5 282.75 1317.5 355.404C1317.5 428.061 1254.06 487.177 1176.1 487.177Z" fill="url(#paint1_linear_669_1328)"/>
<g clip-path="url(#clip1_669_1328)">
<path d="M1092.52 608.808C1093.14 607.283 1095.01 606.775 1098.72 606.775C1105.19 607.283 1116.68 630.158 1116.1 615.925C1125.9 610.333 1116.98 632.191 1127.48 634.225C1134.1 641.341 1131.04 629.65 1131.73 626.092C1132.8 621.008 1130.4 617.45 1126.63 614.908L1116.15 604.233C1121.4 590.508 1134.38 619.483 1131.26 602.708C1128.76 597.625 1132.89 590.508 1136.78 590H1136.72C1137.75 590 1138.72 590.508 1139.65 591.525C1140.49 592.033 1141.29 593.05 1141.85 594.575H1141.91C1142.2 595.083 1142.49 596.1 1142.66 596.608H1142.72C1142.85 597.116 1143.01 597.625 1143.05 598.641H1142.97C1143 599.15 1143.03 599.658 1142.92 600.675H1142.84C1142.72 601.183 1142.58 602.2 1142.3 602.708H1142.22C1141.85 604.742 1141.75 606.266 1141.81 606.775C1141.82 606.775 1141.73 607.283 1141.74 607.283C1141.77 607.283 1141.94 607.792 1142.05 607.792C1142.18 607.792 1142.39 608.3 1142.61 608.3C1142.83 608.3 1143.06 607.792 1143.35 607.792C1144.22 607.283 1145.32 605.758 1146.64 604.742C1148.36 603.217 1150.41 601.183 1152.28 600.675C1153.28 600.675 1154.19 600.675 1155.08 601.183C1155.5 601.183 1155.85 601.692 1156.23 602.2C1156.65 602.708 1157.04 603.725 1157.4 604.233L1146.97 614.908C1145.09 615.925 1143.55 617.958 1142.64 619.483C1142.41 619.991 1142.2 620.5 1142.05 621.008C1141.91 621.517 1141.81 622.025 1141.75 622.533C1141.61 623.55 1141.69 624.567 1141.97 626.092C1142.14 626.6 1142.05 628.125 1141.95 629.65C1141.91 630.666 1142 631.175 1141.96 631.683C1141.93 632.7 1141.8 633.716 1141.83 634.225C1141.86 634.733 1141.87 635.242 1142.03 635.75C1142.26 636.258 1142.71 636.258 1143.36 636.258C1143.98 636.258 1144.91 635.241 1146.08 634.225H1146.17C1147.43 633.716 1148.44 633.208 1149.21 632.7C1149.6 632.192 1149.86 631.683 1150.15 631.175C1150.46 630.667 1150.77 630.158 1150.98 629.65C1151.35 628.633 1151.54 627.108 1151.69 626.092H1151.77C1151.85 625.075 1151.83 624.566 1151.88 624.058C1151.93 623.55 1151.89 623.041 1151.93 622.025C1151.96 621.516 1151.99 621.008 1152.04 620.5C1152.08 619.992 1152.21 618.975 1152.28 618.467C1152.32 618.467 1152.42 618.467 1152.47 617.958C1152.94 615.417 1154.05 613.892 1157.43 615.925H1157.35C1157.32 616.942 1157.39 617.45 1157.44 617.958C1157.44 617.958 1157.35 617.958 1157.36 618.467C1157.41 618.975 1157.58 618.975 1157.71 619.483C1157.85 619.991 1157.96 619.992 1158.17 620.5H1158.94C1159.49 620.5 1160.21 619.991 1160.96 619.483C1163.21 617.45 1166.22 613.383 1169.15 610.333C1171.12 608.3 1173.09 606.775 1174.72 606.775C1174.75 606.775 1174.76 606.266 1174.8 606.266C1178.6 606.266 1180.34 607.283 1180.91 608.808C1181.07 609.316 1181.2 609.825 1181.21 610.333C1181.22 610.333 1181.1 610.841 1180.98 611.35C1180.76 612.366 1180.3 613.383 1179.63 614.908C1178.37 616.942 1176.46 618.975 1174.49 621.008C1172.48 623.042 1170.44 624.567 1168.88 625.583C1166.71 627.108 1165.7 628.125 1165.59 628.633C1165.57 628.633 1165.65 629.141 1165.71 629.141C1166.29 630.158 1170.22 629.65 1172.17 630.667C1172.61 631.175 1172.93 631.683 1173.1 632.191C1172.94 632.7 1172.71 632.7 1172.46 633.208C1171.7 634.225 1170.66 634.733 1169.32 635.242C1166.63 635.75 1163.08 635.242 1159.89 635.75C1158.85 636.258 1157.87 636.258 1156.95 636.766C1155.58 637.275 1154.41 638.291 1153.59 639.816C1153.31 640.833 1153.09 641.341 1152.9 641.85C1151.86 642.358 1151.12 642.867 1150.64 643.375C1150.15 643.883 1149.95 644.391 1149.91 644.9H1149.97C1150.05 644.9 1150.09 644.9 1150.25 645.408C1151.8 645.917 1157.09 644.9 1159.47 645.408C1161.4 645.917 1163.18 645.917 1164.8 645.408C1166.43 644.9 1167.92 644.392 1169.32 643.375C1169.98 642.867 1170.66 642.358 1171.28 641.85C1171.94 641.341 1172.64 640.833 1173.27 640.325C1174.48 638.8 1175.68 637.275 1176.82 636.258C1176.98 635.75 1177.1 635.241 1177.35 634.733C1177.6 634.225 1177.96 633.717 1178.29 633.208C1178.57 633.208 1178.9 632.7 1179.21 632.191C1179.56 632.191 1179.95 632.191 1180.33 631.683H1181.57C1182.73 631.175 1183.96 631.683 1184.94 631.683C1185.68 632.191 1186.16 632.7 1186.6 633.208C1186.81 633.208 1187 633.717 1187.13 633.717C1187.26 634.225 1187.34 634.225 1187.37 634.733H1187.29C1187.29 635.241 1187.24 635.242 1187.16 635.75C1186.94 636.767 1186.26 638.291 1184.49 639.308C1181.52 640.833 1180.11 642.358 1179.78 643.375C1179.7 643.375 1179.78 643.883 1179.82 643.883C1179.88 643.883 1179.82 644.391 1179.94 644.391H1180.08C1180.75 644.9 1182.07 645.408 1183.77 645.408H1183.9H1186.64H1186.78H1192.43C1194 645.408 1195.15 645.916 1196.02 646.933H1196.3C1197 647.441 1197.47 647.95 1197.71 648.458C1197.73 648.458 1197.74 648.967 1197.76 648.967C1197.85 648.967 1198 649.475 1198 649.475C1198 649.475 1197.92 649.983 1197.92 649.983C1197.91 649.983 1197.81 650.492 1197.72 651C1197.32 652.525 1196 653.541 1194.22 655.066C1193.34 655.575 1192.44 656.083 1191.4 656.083C1189.28 657.1 1186.97 657.1 1184.86 656.083C1180.85 655.067 1179.43 655.575 1179.37 656.083C1179.42 656.592 1179.79 657.1 1180.42 657.608C1181.08 658.625 1181.96 659.641 1182.86 660.15C1183.67 661.166 1184.53 662.183 1185.22 663.2H1185.28C1185.99 664.217 1186.62 665.233 1186.85 665.742C1186.95 666.25 1187.03 666.758 1186.98 667.266H1186.9C1186.89 667.775 1186.83 667.775 1186.82 667.775C1186.6 668.791 1185.64 670.317 1183.15 670.825L1172.68 660.658C1172.64 660.658 1172.66 660.658 1172.62 660.15C1171.91 659.641 1171.25 658.625 1170.45 658.117C1168.07 656.083 1165.19 655.067 1161.58 655.575C1158.85 656.083 1152.75 654.558 1151.26 656.083H1151.02C1151 656.592 1150.95 656.592 1150.94 656.592C1150.93 656.592 1151 656.591 1151.05 657.1C1151.28 657.608 1151.97 658.625 1153.34 659.641H1153.26C1153.37 660.658 1153.57 661.167 1153.81 661.167C1156.94 667.775 1170.22 663.708 1172.13 667.266C1172.25 667.266 1172.42 667.775 1172.44 668.283H1172.36C1172.37 668.283 1172.43 668.792 1172.3 669.3C1172.17 669.808 1171.9 670.317 1171.55 670.825H1171.47C1169.67 670.825 1168.53 670.825 1167.78 671.333C1167.14 671.333 1166.71 671.841 1166.78 672.35C1167.17 675.4 1178.35 682.008 1180.6 687.092C1180.79 687.092 1180.99 687.6 1181.04 688.108H1180.96C1180.96 689.125 1180.99 690.141 1180.89 690.65H1180.81C1180.7 691.158 1180.61 691.667 1180.42 692.175C1180.4 692.175 1180.36 692.683 1180.34 692.683C1179.92 693.191 1179.29 694.208 1178.58 694.208C1174.11 696.242 1164.49 687.091 1161.7 682.516C1159.91 679.975 1158.92 678.958 1158.36 678.958C1158.15 679.467 1157.99 679.466 1157.88 679.975H1157.8C1157.68 680.483 1157.63 680.992 1157.55 682.008C1157.33 683.533 1157.01 685.567 1155.97 686.583H1155.23C1154.63 687.092 1153.92 687.092 1152.88 686.583C1152.88 686.075 1152.82 686.075 1152.82 686.075C1152.81 685.058 1152.86 684.041 1152.79 683.025C1152.79 683.025 1152.74 683.025 1152.73 682.516C1152.66 681.5 1152.5 680.483 1152.35 679.467H1152.29C1152.13 678.45 1151.95 677.433 1151.69 676.417C1151.41 675.4 1151.12 673.875 1150.72 673.367C1150.03 671.333 1149.05 669.808 1147.91 668.283C1147.69 668.283 1147.56 667.775 1147.31 667.266C1146.6 666.758 1145.92 665.741 1145.01 665.233C1144.11 664.216 1143.07 663.708 1141.97 662.691L1141.99 680.483C1144.16 684.041 1148.4 687.091 1151.4 690.65C1152.62 691.158 1153.47 691.666 1154.17 692.683C1154.44 692.683 1154.78 693.191 1154.98 693.191C1155.02 693.191 1155.01 693.192 1155.04 693.7C1155.26 693.7 1155.43 694.208 1155.56 694.717H1155.62C1155.78 695.225 1155.99 695.733 1155.95 696.242C1155.91 697.258 1155.67 697.766 1155.32 698.275C1154.83 699.291 1154.04 699.8 1153.14 699.8C1152.79 700.308 1152.52 700.308 1152.12 700.308C1151.41 700.308 1150.6 699.8 1149.79 699.292C1148.97 698.783 1148.13 698.275 1147.26 696.75C1146.58 696.242 1145.97 695.225 1145.45 694.717C1144.42 693.7 1143.62 693.191 1143.11 692.683C1142.92 692.683 1142.71 693.191 1142.59 693.191C1142.27 693.7 1142.15 694.208 1142.1 695.225C1142.05 696.241 1141.99 697.767 1142.02 698.783C1142.06 700.308 1142.18 701.833 1142.12 703.358H1142.04C1141.98 704.883 1141.9 705.9 1141.59 707.425C1141.28 708.442 1140.69 709.458 1139.95 710.475C1139.57 710.983 1139.2 710.983 1138.67 711.492C1138.11 711.492 1137.53 712 1136.78 712C1125.68 712 1137.19 682.517 1126.28 696.75C1119.37 705.392 1113.09 694.208 1122.12 690.65C1125.12 687.091 1129.49 684.55 1131.66 680.483L1131.72 663.2C1122.83 668.283 1120.79 676.925 1120.72 686.583C1113 690.142 1119.02 672.35 1111.87 682.516C1108.19 688.616 1092.26 702.85 1092.48 688.108C1093.41 682.008 1116.35 670.317 1101.96 670.825C1096.2 661.167 1118.43 670.316 1120.16 659.641C1127.46 653.033 1116.03 656.592 1111.97 655.575C1107.16 654.558 1103.74 657.1 1100.93 660.658L1090.42 670.825C1076.6 665.742 1105.68 653.033 1088.6 656.083C1080.33 659.642 1068.56 647.95 1081.15 645.408C1087.83 645.917 1101.07 645.916 1089.17 639.308C1080.33 632.7 1094.14 627.108 1096.71 636.258C1101.39 641.342 1106.33 647.442 1114.03 645.408C1117.85 644.9 1129.02 647.441 1120.74 641.85C1117.69 631.175 1103.06 639.308 1100.42 632.191C1101.81 628.125 1113.4 632.192 1104.7 625.583C1100.04 623.042 1090.65 613.383 1092.52 608.808Z" fill="#FBFBFB"/>
</g>
<g clip-path="url(#clip2_669_1328)">
<path d="M481.568 891.729C482.158 890.291 483.916 889.812 487.414 889.812C493.519 890.291 504.343 911.854 503.801 898.437C513.04 893.167 504.63 913.771 514.525 915.687C520.764 922.396 517.884 911.375 518.531 908.021C519.537 903.229 517.276 899.875 513.725 897.479L503.849 887.416C508.799 874.479 521.032 901.792 518.085 885.979C515.738 881.187 519.624 874.479 523.294 874H523.236C524.204 874 525.124 874.479 525.996 875.437C526.787 875.916 527.539 876.875 528.071 878.313H528.129C528.397 878.792 528.675 879.75 528.838 880.229H528.891C529.01 880.708 529.169 881.187 529.207 882.146H529.13C529.159 882.625 529.188 883.104 529.082 884.062H529.006C528.891 884.542 528.761 885.5 528.493 885.979H528.416C528.076 887.896 527.98 889.333 528.038 889.812C528.042 889.812 527.961 890.292 527.966 890.292C527.999 890.292 528.153 890.771 528.263 890.771C528.383 890.771 528.584 891.25 528.785 891.25C528.991 891.25 529.212 890.771 529.485 890.771C530.304 890.292 531.339 888.854 532.585 887.896C534.208 886.458 536.14 884.542 537.907 884.062C538.845 884.062 539.705 884.062 540.541 884.541C540.942 884.541 541.266 885.021 541.627 885.5C542.023 885.979 542.393 886.937 542.728 887.416L532.901 897.479C531.124 898.438 529.672 900.354 528.814 901.791C528.603 902.27 528.397 902.75 528.263 903.229C528.124 903.708 528.033 904.188 527.975 904.667C527.841 905.625 527.923 906.583 528.186 908.021C528.349 908.5 528.258 909.937 528.167 911.375C528.124 912.333 528.215 912.812 528.177 913.291C528.148 914.25 528.023 915.208 528.057 915.687C528.081 916.166 528.09 916.646 528.239 917.125C528.455 917.604 528.886 917.604 529.494 917.604C530.084 917.604 530.956 916.646 532.063 915.687H532.139C533.328 915.208 534.287 914.729 535.007 914.25C535.374 913.771 535.626 913.292 535.897 912.812C536.185 912.333 536.483 911.854 536.675 911.375C537.029 910.416 537.202 908.979 537.349 908.021H537.425C537.494 907.062 537.483 906.583 537.526 906.104C537.573 905.625 537.537 905.145 537.572 904.187C537.606 903.708 537.634 903.229 537.674 902.75C537.714 902.271 537.84 901.312 537.907 900.833C537.938 900.833 538.039 900.833 538.079 900.354C538.527 897.958 539.573 896.521 542.755 898.437H542.679C542.652 899.396 542.716 899.875 542.764 900.354C542.767 900.354 542.685 900.354 542.688 900.833C542.741 901.312 542.904 901.312 543.021 901.791C543.15 902.27 543.254 902.271 543.451 902.75H544.184C544.701 902.75 545.374 902.27 546.089 901.791C548.209 899.875 551.039 896.042 553.805 893.167C555.665 891.25 557.519 889.812 559.052 889.812C559.084 889.812 559.096 889.333 559.128 889.333C562.714 889.333 564.351 890.291 564.894 891.729C565.042 892.208 565.163 892.687 565.172 893.167C565.18 893.167 565.072 893.646 564.959 894.125C564.749 895.083 564.318 896.042 563.685 897.479C562.501 899.396 560.694 901.312 558.841 903.229C556.946 905.146 555.017 906.583 553.553 907.542C551.503 908.979 550.556 909.937 550.454 910.417C550.427 910.417 550.505 910.896 550.565 910.896C551.111 911.854 554.81 911.375 556.654 912.333C557.063 912.812 557.369 913.291 557.533 913.77C557.378 914.25 557.164 914.25 556.927 914.729C556.212 915.687 555.228 916.167 553.964 916.646C551.433 917.125 548.085 916.646 545.079 917.125C544.093 917.604 543.172 917.604 542.309 918.083C541.014 918.562 539.91 919.52 539.134 920.958C538.875 921.916 538.666 922.396 538.486 922.875C537.509 923.354 536.811 923.833 536.353 924.312C535.895 924.792 535.707 925.27 535.67 925.75H535.725C535.797 925.75 535.841 925.75 535.989 926.229C537.455 926.708 542.437 925.75 544.682 926.229C546.497 926.708 548.174 926.708 549.706 926.229C551.237 925.75 552.648 925.271 553.967 924.312C554.588 923.833 555.231 923.354 555.817 922.875C556.436 922.396 557.1 921.917 557.688 921.438C558.83 920 559.964 918.562 561.035 917.604C561.186 917.125 561.303 916.645 561.53 916.166C561.771 915.687 562.109 915.208 562.42 914.729C562.682 914.729 562.993 914.25 563.29 913.77C563.62 913.77 563.989 913.771 564.347 913.291H565.514C566.609 912.812 567.763 913.291 568.693 913.291C569.386 913.771 569.843 914.25 570.249 914.729C570.453 914.729 570.633 915.208 570.755 915.208C570.874 915.687 570.955 915.687 570.977 916.166H570.901C570.906 916.645 570.861 916.646 570.785 917.125C570.579 918.083 569.933 919.521 568.267 920.479C565.462 921.916 564.138 923.354 563.828 924.312C563.75 924.312 563.821 924.792 563.863 924.792C563.915 924.792 563.86 925.271 563.974 925.271H564.105C564.74 925.75 565.98 926.229 567.582 926.229H567.714H570.291H570.423H575.75C577.234 926.229 578.316 926.708 579.131 927.666H579.394C580.059 928.146 580.501 928.625 580.722 929.104C580.747 929.104 580.757 929.583 580.778 929.583C580.857 929.583 580.998 930.062 581 930.062C581.002 930.062 580.924 930.541 580.924 930.541C580.913 930.541 580.825 931.021 580.732 931.5C580.361 932.937 579.114 933.895 577.44 935.333C576.612 935.812 575.762 936.292 574.781 936.292C572.781 937.25 570.6 937.25 568.61 936.292C564.835 935.333 563.5 935.812 563.435 936.292C563.487 936.771 563.831 937.25 564.425 937.729C565.051 938.687 565.876 939.645 566.728 940.125C567.492 941.083 568.304 942.042 568.957 943H569.012C569.675 943.958 570.272 944.917 570.487 945.396C570.586 945.875 570.659 946.354 570.613 946.833H570.537C570.528 947.312 570.474 947.312 570.462 947.312C570.255 948.27 569.35 949.708 567.004 950.188L557.13 940.604C557.091 940.604 557.115 940.604 557.075 940.125C556.412 939.645 555.785 938.688 555.034 938.208C552.783 936.292 550.076 935.333 546.67 935.813C544.099 936.292 538.347 934.854 536.94 936.292H536.713C536.693 936.771 536.646 936.771 536.637 936.771C536.633 936.771 536.694 936.771 536.748 937.25C536.957 937.729 537.61 938.687 538.9 939.646H538.824C538.929 940.604 539.118 941.083 539.345 941.083C542.299 947.312 554.815 943.479 556.613 946.833C556.728 946.833 556.889 947.313 556.911 947.792H556.835C556.842 947.792 556.901 948.271 556.774 948.75C556.648 949.229 556.402 949.708 556.071 950.188H555.995C554.299 950.188 553.218 950.187 552.513 950.667C551.909 950.667 551.504 951.146 551.567 951.625C551.94 954.5 562.475 960.729 564.603 965.521C564.779 965.521 564.962 966 565.012 966.479H564.936C564.942 967.437 564.963 968.395 564.869 968.875H564.794C564.695 969.354 564.61 969.833 564.429 970.312C564.413 970.312 564.37 970.791 564.353 970.791C563.961 971.271 563.363 972.229 562.69 972.229C558.477 974.146 549.41 965.521 546.783 961.208C545.099 958.812 544.163 957.854 543.635 957.854C543.433 958.333 543.286 958.333 543.18 958.812H543.104C542.996 959.291 542.948 959.771 542.871 960.729C542.667 962.167 542.364 964.083 541.384 965.042H540.686C540.115 965.521 539.449 965.521 538.468 965.042C538.467 964.562 538.413 964.563 538.412 964.563C538.404 963.604 538.452 962.645 538.388 961.687C538.383 961.687 538.337 961.687 538.332 961.208C538.263 960.25 538.111 959.292 537.969 958.333H537.914C537.762 957.375 537.589 956.417 537.344 955.458C537.085 954.5 536.813 953.063 536.435 952.583C535.787 950.667 534.858 949.229 533.782 947.792C533.574 947.792 533.449 947.312 533.222 946.833C532.547 946.354 531.905 945.395 531.052 944.916C530.199 943.958 529.226 943.479 528.181 942.52L528.201 959.291C530.247 962.645 534.249 965.52 537.076 968.875C538.22 969.354 539.028 969.833 539.684 970.791C539.943 970.791 540.262 971.27 540.451 971.27C540.487 971.27 540.474 971.271 540.507 971.75C540.717 971.75 540.873 972.229 540.992 972.708H541.048C541.204 973.187 541.397 973.667 541.36 974.146C541.329 975.104 541.097 975.583 540.769 976.062C540.304 977.02 539.564 977.5 538.711 977.5C538.38 977.979 538.127 977.979 537.751 977.979C537.08 977.979 536.322 977.5 535.552 977.021C534.782 976.542 533.988 976.062 533.172 974.625C532.527 974.146 531.957 973.187 531.469 972.708C530.496 971.75 529.739 971.271 529.255 970.791C529.082 970.791 528.886 971.27 528.766 971.27C528.469 971.75 528.354 972.229 528.306 973.187C528.258 974.146 528.205 975.583 528.234 976.542C528.268 977.979 528.383 979.416 528.33 980.854H528.253C528.196 982.291 528.114 983.25 527.822 984.687C527.53 985.646 526.979 986.604 526.284 987.562C525.925 988.041 525.575 988.042 525.076 988.521C524.549 988.521 524.003 989 523.289 989C512.834 989 523.682 961.208 513.394 974.625C506.878 982.771 500.965 972.229 509.47 968.875C512.297 965.52 516.423 963.125 518.469 959.291L518.526 943C510.141 947.792 508.224 955.937 508.152 965.042C500.879 968.396 506.552 951.625 499.815 961.208C496.341 966.958 481.324 980.375 481.535 966.479C482.411 960.729 504.036 949.708 490.471 950.188C485.037 941.083 505.991 949.708 507.625 939.646C514.506 933.416 503.73 936.771 499.906 935.813C495.368 934.854 492.153 937.25 489.498 940.604L479.594 950.188C466.57 945.396 493.979 933.417 477.874 936.292C470.078 939.646 458.99 928.625 470.859 926.229C477.15 926.708 489.628 926.708 478.41 920.479C470.078 914.25 483.097 908.979 485.521 917.604C489.93 922.396 494.592 928.146 501.851 926.229C505.445 925.75 515.982 928.146 508.171 922.875C505.296 912.812 491.506 920.479 489.019 913.77C490.332 909.937 501.252 913.771 493.054 907.542C488.66 905.146 479.81 896.041 481.568 891.729Z" fill="#FBFBFB"/>
</g>
<g clip-path="url(#clip3_669_1328)">
<path d="M703.835 763.837C704.927 761.175 708.184 760.287 714.662 760.287C725.969 761.174 746.018 801.112 745.015 776.262C762.126 766.5 746.55 804.662 764.877 808.212C776.432 820.637 771.099 800.225 772.297 794.012C774.16 785.137 769.971 778.925 763.395 774.488L745.104 755.849C754.272 731.887 776.929 782.475 771.471 753.188C767.122 744.312 774.32 731.888 781.118 731H781.012C782.805 731 784.509 731.887 786.124 733.662C787.588 734.549 788.982 736.325 789.967 738.988H790.073C790.57 739.875 791.085 741.649 791.387 742.537H791.484C791.706 743.424 791.999 744.312 792.07 746.087H791.928C791.981 746.975 792.035 747.862 791.839 749.637H791.697C791.484 750.525 791.245 752.3 790.748 753.188H790.606C789.976 756.738 789.798 759.399 789.905 760.287C789.913 760.287 789.763 761.175 789.772 761.175C789.834 761.175 790.118 762.062 790.322 762.062C790.544 762.062 790.916 762.95 791.289 762.95C791.671 762.95 792.079 762.062 792.585 762.062C794.102 761.175 796.019 758.513 798.327 756.738C801.334 754.075 804.911 750.525 808.184 749.637C809.921 749.637 811.515 749.637 813.062 750.525C813.806 750.525 814.406 751.413 815.074 752.3C815.807 753.188 816.492 754.962 817.114 755.849L798.913 774.488C795.62 776.263 792.931 779.812 791.342 782.474C790.952 783.362 790.57 784.25 790.322 785.137C790.064 786.025 789.896 786.913 789.789 787.8C789.541 789.575 789.692 791.35 790.18 794.012C790.481 794.9 790.313 797.562 790.144 800.224C790.064 801.999 790.233 802.887 790.162 803.775C790.109 805.55 789.878 807.325 789.94 808.212C789.985 809.1 790.002 809.987 790.277 810.875C790.677 811.763 791.476 811.762 792.603 811.762C793.694 811.762 795.309 809.987 797.36 808.212H797.502C799.703 807.325 801.479 806.438 802.812 805.55C803.493 804.663 803.96 803.775 804.461 802.887C804.995 802 805.546 801.112 805.903 800.224C806.558 798.449 806.878 795.787 807.151 794.012H807.291C807.419 792.237 807.399 791.35 807.479 790.462C807.566 789.575 807.499 788.687 807.564 786.912C807.626 786.024 807.678 785.138 807.752 784.25C807.828 783.362 808.06 781.587 808.184 780.7C808.241 780.7 808.429 780.7 808.503 779.812C809.332 775.375 811.27 772.712 817.163 776.262H817.022C816.973 778.037 817.092 778.925 817.18 779.812C817.185 779.812 817.035 779.812 817.04 780.7C817.138 781.587 817.439 781.587 817.657 782.474C817.895 783.362 818.087 783.362 818.453 784.25H819.81C820.767 784.25 822.015 783.362 823.339 782.474C827.265 778.924 832.507 771.825 837.63 766.5C841.076 762.95 844.509 760.287 847.349 760.287C847.408 760.287 847.431 759.4 847.49 759.4C854.13 759.4 857.164 761.175 858.169 763.837C858.444 764.725 858.666 765.612 858.684 766.5C858.699 766.5 858.499 767.387 858.29 768.275C857.9 770.05 857.102 771.825 855.929 774.488C853.736 778.038 850.39 781.587 846.958 785.137C843.448 788.687 839.875 791.35 837.163 793.125C833.367 795.788 831.613 797.562 831.423 798.45C831.373 798.45 831.518 799.337 831.629 799.337C832.64 801.112 839.491 800.225 842.908 802C843.665 802.888 844.232 803.774 844.536 804.662C844.248 805.549 843.852 805.55 843.412 806.438C842.089 808.213 840.265 809.1 837.925 809.988C833.237 810.875 827.036 809.987 821.468 810.875C819.641 811.763 817.935 811.762 816.337 812.65C813.939 813.537 811.893 815.312 810.456 817.974C809.977 819.749 809.589 820.637 809.257 821.525C807.448 822.412 806.154 823.3 805.305 824.188C804.457 825.075 804.109 825.962 804.041 826.849H804.144C804.276 826.849 804.358 826.85 804.631 827.738C807.348 828.625 816.574 826.85 820.732 827.738C824.094 828.625 827.2 828.625 830.037 827.738C832.874 826.85 835.488 825.963 837.93 824.188C839.081 823.3 840.271 822.412 841.357 821.525C842.503 820.637 843.732 819.75 844.821 818.863C846.938 816.2 849.037 813.537 851.021 811.762C851.301 810.875 851.518 809.987 851.939 809.099C852.384 808.212 853.011 807.325 853.587 806.438C854.073 806.438 854.649 805.549 855.198 804.662C855.809 804.662 856.492 804.662 857.155 803.775H859.318C861.346 802.887 863.484 803.775 865.205 803.775C866.49 804.662 867.335 805.55 868.088 806.438C868.464 806.438 868.799 807.325 869.024 807.325C869.244 808.212 869.394 808.212 869.435 809.099H869.295C869.305 809.987 869.221 809.987 869.079 810.875C868.698 812.65 867.501 815.312 864.416 817.087C859.221 819.75 856.769 822.412 856.194 824.188C856.05 824.188 856.181 825.075 856.259 825.075C856.356 825.075 856.254 825.962 856.464 825.962H856.708C857.884 826.85 860.18 827.738 863.148 827.738H863.391H868.165H868.409H878.276C881.024 827.738 883.03 828.625 884.538 830.4H885.025C886.257 831.287 887.076 832.175 887.486 833.062C887.531 833.062 887.55 833.95 887.589 833.95C887.735 833.95 887.997 834.837 888 834.837C888.003 834.837 887.859 835.724 887.859 835.724C887.838 835.724 887.675 836.612 887.503 837.5C886.817 840.163 884.506 841.937 881.407 844.599C879.872 845.487 878.298 846.375 876.482 846.375C872.777 848.15 868.738 848.15 865.052 846.375C858.06 844.6 855.587 845.487 855.466 846.375C855.564 847.263 856.2 848.149 857.3 849.037C858.46 850.812 859.988 852.587 861.567 853.474C862.981 855.249 864.486 857.025 865.694 858.8H865.797C867.024 860.575 868.131 862.35 868.528 863.238C868.712 864.125 868.846 865.012 868.762 865.9H868.621C868.605 866.787 868.503 866.787 868.481 866.787C868.098 868.562 866.421 871.225 862.076 872.113L843.789 854.363C843.716 854.363 843.761 854.362 843.687 853.474C842.458 852.587 841.297 850.813 839.906 849.925C835.737 846.375 830.723 844.6 824.414 845.488C819.653 846.375 809 843.712 806.393 846.375H805.972C805.936 847.263 805.849 847.262 805.832 847.262C805.825 847.262 805.938 847.262 806.038 848.15C806.425 849.037 807.634 850.812 810.023 852.587H809.883C810.077 854.362 810.427 855.25 810.847 855.25C816.318 866.787 839.502 859.687 842.831 865.9C843.044 865.9 843.343 866.788 843.383 867.675H843.242C843.256 867.675 843.365 868.562 843.13 869.45C842.895 870.337 842.44 871.225 841.827 872.113H841.687C838.546 872.113 836.543 872.112 835.236 873C834.119 873 833.369 873.887 833.485 874.775C834.177 880.1 853.688 891.637 857.63 900.512C857.955 900.512 858.294 901.399 858.387 902.287H858.247C858.258 904.062 858.296 905.837 858.123 906.724H857.983C857.801 907.612 857.643 908.5 857.308 909.387C857.278 909.387 857.198 910.275 857.167 910.275C856.44 911.162 855.334 912.938 854.087 912.938C846.283 916.488 829.49 900.512 824.624 892.525C821.505 888.087 819.771 886.312 818.794 886.312C818.42 887.2 818.148 887.2 817.95 888.087H817.81C817.61 888.975 817.521 889.862 817.379 891.637C817.001 894.3 816.44 897.85 814.624 899.625H813.332C812.273 900.513 811.04 900.513 809.223 899.625C809.221 898.737 809.121 898.738 809.12 898.738C809.104 896.963 809.194 895.187 809.075 893.412C809.066 893.412 808.981 893.412 808.972 892.525C808.843 890.75 808.563 888.975 808.3 887.2H808.197C807.916 885.425 807.596 883.65 807.141 881.875C806.662 880.1 806.158 877.438 805.457 876.55C804.257 873 802.536 870.338 800.545 867.675C800.158 867.675 799.928 866.787 799.506 865.9C798.256 865.012 797.067 863.237 795.487 862.349C793.907 860.574 792.106 859.687 790.171 857.912L790.206 888.974C793.996 895.187 801.409 900.512 806.646 906.724C808.763 907.612 810.261 908.5 811.475 910.275C811.955 910.275 812.546 911.162 812.897 911.162C812.964 911.162 812.938 911.163 813 912.05C813.389 912.05 813.678 912.937 813.898 913.825H814.001C814.291 914.712 814.649 915.6 814.581 916.488C814.522 918.263 814.093 919.149 813.485 920.037C812.624 921.812 811.253 922.7 809.674 922.7C809.06 923.587 808.592 923.587 807.895 923.587C806.653 923.587 805.249 922.7 803.823 921.812C802.397 920.925 800.925 920.038 799.415 917.375C798.22 916.487 797.164 914.712 796.259 913.825C794.457 912.05 793.055 911.162 792.159 910.275C791.839 910.275 791.475 911.162 791.254 911.162C790.703 912.049 790.49 912.937 790.402 914.712C790.313 916.487 790.215 919.15 790.268 920.925C790.331 923.588 790.544 926.249 790.446 928.912H790.304C790.197 931.574 790.047 933.35 789.505 936.012C788.964 937.787 787.943 939.562 786.656 941.337C785.991 942.225 785.343 942.225 784.42 943.113C783.444 943.113 782.432 944 781.109 944C761.744 944 781.837 892.525 762.783 917.375C750.713 932.463 739.761 912.937 755.514 906.724C760.75 900.512 768.392 896.074 772.181 888.974L772.288 858.8C756.756 867.675 753.206 882.763 753.073 899.625C739.601 905.837 750.109 874.775 737.631 892.525C731.196 903.175 703.382 928.024 703.773 902.287C705.397 891.637 745.45 871.225 720.325 872.113C710.26 855.25 749.071 871.225 752.097 852.587C764.842 841.05 744.882 847.263 737.799 845.488C729.395 843.713 723.44 848.15 718.523 854.363L700.178 872.113C676.056 863.238 726.821 841.05 696.992 846.375C682.553 852.587 662.016 832.175 683.999 827.738C695.652 828.625 718.763 828.625 697.986 817.087C682.553 805.55 706.666 795.787 711.157 811.762C719.322 820.637 727.957 831.288 741.403 827.738C748.059 826.85 767.575 831.287 753.109 821.525C747.784 802.887 722.242 817.087 717.635 804.662C720.067 797.562 740.293 804.662 725.108 793.125C716.97 788.688 700.578 771.825 703.835 763.837Z" fill="#FBFBFB"/>
</g>
<g clip-path="url(#clip4_669_1328)">
<path d="M1115.29 872.02C1116.85 868.208 1121.52 866.937 1130.79 866.937C1146.98 868.207 1175.69 925.396 1174.26 889.812C1198.76 875.833 1176.45 930.479 1202.7 935.562C1219.24 953.354 1211.61 924.125 1213.32 915.229C1215.99 902.521 1209.99 893.625 1200.57 887.271L1174.38 860.582C1187.51 826.27 1219.96 898.708 1212.14 856.771C1205.91 844.062 1216.22 826.271 1225.95 825H1225.8C1228.37 825 1230.81 826.27 1233.12 828.812C1235.22 830.082 1237.21 832.625 1238.62 836.438H1238.78C1239.49 837.709 1240.22 840.249 1240.66 841.52H1240.8C1241.11 842.791 1241.53 844.062 1241.64 846.604H1241.43C1241.51 847.874 1241.58 849.146 1241.31 851.687H1241.1C1240.8 852.958 1240.45 855.5 1239.74 856.771H1239.54C1238.64 861.854 1238.38 865.666 1238.53 866.937C1238.55 866.937 1238.33 868.209 1238.34 868.209C1238.43 868.209 1238.84 869.479 1239.13 869.479C1239.45 869.479 1239.98 870.75 1240.52 870.75C1241.06 870.75 1241.65 869.479 1242.37 869.479C1244.55 868.208 1247.29 864.396 1250.59 861.854C1254.9 858.042 1260.02 852.958 1264.71 851.687C1267.2 851.687 1269.48 851.687 1271.69 852.958C1272.76 852.958 1273.62 854.229 1274.58 855.5C1275.63 856.771 1276.61 859.312 1277.5 860.582L1251.43 887.271C1246.72 889.813 1242.87 894.895 1240.59 898.707C1240.03 899.978 1239.49 901.25 1239.13 902.521C1238.76 903.791 1238.52 905.063 1238.37 906.334C1238.01 908.875 1238.23 911.416 1238.93 915.229C1239.36 916.5 1239.12 920.312 1238.88 924.124C1238.76 926.666 1239 927.937 1238.9 929.208C1238.83 931.749 1238.5 934.291 1238.59 935.562C1238.65 936.833 1238.67 938.104 1239.07 939.375C1239.64 940.646 1240.78 940.646 1242.4 940.646C1243.96 940.646 1246.27 938.104 1249.21 935.562H1249.41C1252.56 934.291 1255.11 933.021 1257.02 931.75C1257.99 930.479 1258.66 929.208 1259.38 927.937C1260.14 926.666 1260.93 925.395 1261.44 924.124C1262.38 921.582 1262.84 917.771 1263.23 915.229H1263.43C1263.61 912.687 1263.59 911.416 1263.7 910.145C1263.82 908.874 1263.73 907.603 1263.82 905.062C1263.91 903.791 1263.98 902.521 1264.09 901.25C1264.2 899.979 1264.53 897.437 1264.71 896.166C1264.79 896.166 1265.06 896.167 1265.17 894.896C1266.35 888.542 1269.13 884.729 1277.57 889.812H1277.37C1277.3 892.354 1277.47 893.625 1277.59 894.896C1277.6 894.896 1277.38 894.896 1277.39 896.166C1277.53 897.437 1277.96 897.437 1278.27 898.707C1278.61 899.978 1278.89 899.979 1279.41 901.25H1281.36C1282.73 901.25 1284.51 899.978 1286.41 898.707C1292.03 893.624 1299.54 883.458 1306.87 875.833C1311.81 870.75 1316.72 866.937 1320.79 866.937C1320.88 866.937 1320.91 865.666 1320.99 865.666C1330.5 865.666 1334.84 868.208 1336.28 872.02C1336.68 873.291 1337 874.562 1337.02 875.833C1337.04 875.833 1336.76 877.104 1336.46 878.374C1335.9 880.916 1334.76 883.459 1333.08 887.271C1329.94 892.354 1325.15 897.437 1320.23 902.521C1315.21 907.604 1310.09 911.417 1306.21 913.958C1300.77 917.771 1298.26 920.312 1297.99 921.583C1297.91 921.583 1298.12 922.854 1298.28 922.854C1299.73 925.395 1309.54 924.125 1314.43 926.667C1315.52 927.937 1316.33 929.207 1316.76 930.478C1316.35 931.749 1315.78 931.75 1315.15 933.021C1313.26 935.562 1310.65 936.834 1307.3 938.104C1300.58 939.375 1291.7 938.104 1283.73 939.375C1281.12 940.646 1278.67 940.645 1276.38 941.916C1272.95 943.187 1270.02 945.728 1267.96 949.541C1267.28 952.082 1266.72 953.354 1266.25 954.624C1263.66 955.895 1261.8 957.167 1260.59 958.437C1259.37 959.708 1258.87 960.978 1258.78 962.249H1258.92C1259.11 962.249 1259.23 962.25 1259.62 963.521C1263.51 964.792 1276.72 962.25 1282.68 963.521C1287.49 964.792 1291.94 964.792 1296 963.521C1300.06 962.25 1303.81 960.979 1307.3 958.437C1308.95 957.167 1310.66 955.895 1312.21 954.624C1313.85 953.354 1315.61 952.084 1317.17 950.813C1320.2 947 1323.21 943.187 1326.05 940.646C1326.45 939.375 1326.76 938.103 1327.36 936.832C1328 935.562 1328.9 934.292 1329.72 933.021C1330.42 933.021 1331.24 931.749 1332.03 930.478C1332.91 930.478 1333.88 930.479 1334.83 929.208H1337.93C1340.83 927.937 1343.89 929.208 1346.36 929.208C1348.2 930.479 1349.41 931.75 1350.49 933.021C1351.03 933.021 1351.51 934.291 1351.83 934.291C1352.14 935.562 1352.36 935.562 1352.42 936.832H1352.22C1352.23 938.103 1352.11 938.104 1351.91 939.375C1351.36 941.917 1349.65 945.729 1345.23 948.27C1337.79 952.083 1334.28 955.896 1333.46 958.437C1333.25 958.437 1333.44 959.708 1333.55 959.708C1333.69 959.708 1333.54 960.979 1333.84 960.979H1334.19C1335.88 962.249 1339.16 963.521 1343.41 963.521H1343.76H1350.6H1350.95H1365.08C1369.01 963.521 1371.88 964.791 1374.04 967.333H1374.74C1376.5 968.604 1377.68 969.875 1378.26 971.146C1378.33 971.146 1378.36 972.416 1378.41 972.416C1378.62 972.416 1379 973.687 1379 973.687C1379 973.687 1378.8 974.957 1378.8 974.957C1378.77 974.957 1378.53 976.229 1378.29 977.5C1377.31 981.312 1374 983.853 1369.56 987.666C1367.36 988.937 1365.11 990.208 1362.51 990.208C1357.2 992.75 1351.42 992.75 1346.14 990.208C1336.13 987.667 1332.59 988.937 1332.41 990.208C1332.55 991.479 1333.46 992.749 1335.04 994.02C1336.7 996.562 1338.89 999.103 1341.15 1000.37C1343.18 1002.92 1345.33 1005.46 1347.06 1008H1347.21C1348.96 1010.54 1350.55 1013.08 1351.12 1014.35C1351.38 1015.63 1351.57 1016.9 1351.45 1018.17H1351.25C1351.23 1019.44 1351.08 1019.44 1351.05 1019.44C1350.5 1021.98 1348.1 1025.79 1341.88 1027.06L1315.69 1001.65C1315.59 1001.65 1315.65 1001.64 1315.55 1000.37C1313.79 999.103 1312.12 996.563 1310.13 995.292C1304.16 990.209 1296.98 987.667 1287.95 988.938C1281.13 990.209 1265.88 986.396 1262.15 990.208H1261.54C1261.49 991.479 1261.37 991.479 1261.34 991.479C1261.33 991.479 1261.49 991.479 1261.64 992.749C1262.19 994.02 1263.92 996.562 1267.34 999.104H1267.14C1267.42 1001.65 1267.92 1002.92 1268.52 1002.92C1276.36 1019.44 1309.55 1009.27 1314.32 1018.17C1314.63 1018.17 1315.05 1019.44 1315.11 1020.71H1314.91C1314.93 1020.71 1315.09 1021.98 1314.75 1023.25C1314.41 1024.52 1313.76 1025.79 1312.88 1027.06H1312.68C1308.19 1027.06 1305.32 1027.06 1303.45 1028.33C1301.85 1028.33 1300.77 1029.6 1300.94 1030.87C1301.93 1038.5 1329.87 1055.02 1335.51 1067.73C1335.98 1067.73 1336.46 1069 1336.6 1070.27H1336.4C1336.41 1072.81 1336.47 1075.35 1336.22 1076.62H1336.02C1335.76 1077.89 1335.53 1079.17 1335.05 1080.44C1335.01 1080.44 1334.89 1081.71 1334.85 1081.71C1333.81 1082.98 1332.22 1085.52 1330.44 1085.52C1319.26 1090.6 1295.22 1067.73 1288.25 1056.29C1283.78 1049.94 1281.3 1047.4 1279.9 1047.4C1279.37 1048.67 1278.98 1048.67 1278.69 1049.94H1278.49C1278.21 1051.21 1278.08 1052.48 1277.88 1055.02C1277.33 1058.83 1276.53 1063.92 1273.93 1066.46H1272.08C1270.56 1067.73 1268.8 1067.73 1266.2 1066.46C1266.19 1065.19 1266.05 1065.19 1266.05 1065.19C1266.03 1062.65 1266.16 1060.1 1265.98 1057.56C1265.97 1057.56 1265.85 1057.56 1265.84 1056.29C1265.65 1053.75 1265.25 1051.21 1264.88 1048.67H1264.73C1264.33 1046.12 1263.87 1043.58 1263.22 1041.04C1262.53 1038.5 1261.81 1034.69 1260.8 1033.42C1259.09 1028.33 1256.62 1024.52 1253.77 1020.71C1253.22 1020.71 1252.89 1019.44 1252.28 1018.17C1250.49 1016.9 1248.79 1014.35 1246.53 1013.08C1244.27 1010.54 1241.69 1009.27 1238.92 1006.73L1238.97 1051.21C1244.39 1060.1 1255.01 1067.73 1262.51 1076.62C1265.54 1077.89 1267.68 1079.17 1269.42 1081.71C1270.11 1081.71 1270.95 1082.98 1271.46 1082.98C1271.55 1082.98 1271.52 1082.98 1271.61 1084.25C1272.16 1084.25 1272.58 1085.52 1272.89 1086.79H1273.04C1273.45 1088.06 1273.97 1089.33 1273.87 1090.6C1273.79 1093.15 1273.17 1094.42 1272.3 1095.69C1271.07 1098.23 1269.1 1099.5 1266.84 1099.5C1265.96 1100.77 1265.29 1100.77 1264.3 1100.77C1262.52 1100.77 1260.51 1099.5 1258.47 1098.23C1256.42 1096.96 1254.31 1095.69 1252.15 1091.87C1250.44 1090.6 1248.93 1088.06 1247.63 1086.79C1245.05 1084.25 1243.05 1082.98 1241.76 1081.71C1241.31 1081.71 1240.78 1082.98 1240.47 1082.98C1239.68 1084.25 1239.37 1085.52 1239.25 1088.06C1239.12 1090.6 1238.98 1094.42 1239.06 1096.96C1239.14 1100.77 1239.45 1104.58 1239.31 1108.39H1239.11C1238.95 1112.21 1238.74 1114.75 1237.96 1118.56C1237.19 1121.1 1235.73 1123.65 1233.88 1126.19C1232.93 1127.46 1232 1127.46 1230.68 1128.73C1229.28 1128.73 1227.83 1130 1225.94 1130C1198.21 1130 1226.98 1056.29 1199.7 1091.87C1182.41 1113.48 1166.73 1085.52 1189.29 1076.62C1196.79 1067.73 1207.73 1061.37 1213.16 1051.21L1213.31 1008C1191.07 1020.71 1185.99 1042.31 1185.8 1066.46C1166.5 1075.35 1181.55 1030.87 1163.68 1056.29C1154.47 1071.54 1114.64 1107.12 1115.2 1070.27C1117.53 1055.02 1174.88 1025.79 1138.9 1027.06C1124.49 1002.92 1180.06 1025.79 1184.4 999.104C1202.65 982.583 1174.07 991.479 1163.92 988.938C1151.89 986.396 1143.36 992.75 1136.32 1001.65L1110.05 1027.06C1075.51 1014.35 1148.2 982.583 1105.49 990.208C1084.81 999.104 1055.41 969.875 1086.89 963.521C1103.57 964.792 1136.66 964.791 1106.91 948.27C1084.81 931.749 1119.34 917.771 1125.77 940.646C1137.47 953.354 1149.83 968.604 1169.08 963.521C1178.61 962.25 1206.56 968.604 1185.85 954.624C1178.22 927.937 1141.65 948.27 1135.05 930.478C1138.53 920.312 1167.5 930.479 1145.75 913.958C1134.1 907.604 1110.63 883.458 1115.29 872.02Z" fill="#FBFBFB"/>
</g>
<defs>
<linearGradient id="paint0_linear_669_1328" x1="681.539" y1="21.2324" x2="681.539" y2="694.1" gradientUnits="userSpaceOnUse">
<stop stop-color="#BFE9F7"/>
<stop offset="1" stop-color="#92E3FE"/>
</linearGradient>
<linearGradient id="paint1_linear_669_1328" x1="680" y1="0" x2="680" y2="711.95" gradientUnits="userSpaceOnUse">
<stop stop-color="#BFE9F7"/>
<stop offset="1" stop-color="#92E3FE"/>
</linearGradient>
<clipPath id="clip0_669_1328">
<rect width="174" height="174" fill="white" transform="matrix(-1 0 0 1 274 744)"/>
</clipPath>
<clipPath id="clip1_669_1328">
<rect width="122" height="122" fill="white" transform="matrix(-1 0 0 1 1198 590)"/>
</clipPath>
<clipPath id="clip2_669_1328">
<rect width="115" height="115" fill="white" transform="matrix(-1 0 0 1 581 874)"/>
</clipPath>
<clipPath id="clip3_669_1328">
<rect width="213" height="213" fill="white" transform="matrix(-1 0 0 1 888 731)"/>
</clipPath>
<clipPath id="clip4_669_1328">
<rect width="305" height="305" fill="white" transform="matrix(-1 0 0 1 1379 825)"/>
</clipPath>
</defs>
</svg>
