<svg width="987" height="809" viewBox="0 0 987 809" fill="none" xmlns="http://www.w3.org/2000/svg">
<g clip-path="url(#clip0_673_2200)">
<mask id="mask0_673_2200" style="mask-type:luminance" maskUnits="userSpaceOnUse" x="71" y="532" width="126" height="126">
<path d="M71.5737 532.651H196.112V657.223H71.5737V532.651Z" fill="white"/>
</mask>
<g mask="url(#mask0_673_2200)">
<path d="M88.4331 551.856C89.0716 550.299 90.9761 549.779 94.7638 549.779C101.375 550.298 113.097 573.656 112.51 559.123C122.515 553.413 113.409 575.732 124.124 577.809C130.88 585.075 127.761 573.137 128.462 569.504C129.551 564.313 127.102 560.68 123.257 558.085L112.563 547.184C117.923 533.17 131.17 562.756 127.98 545.628C125.437 540.437 129.645 533.17 133.62 532.651H133.557C134.606 532.651 135.602 533.17 136.546 534.208C137.403 534.727 138.218 535.766 138.794 537.323H138.856C139.147 537.842 139.447 538.879 139.624 539.398H139.681C139.811 539.917 139.982 540.437 140.023 541.475H139.94C139.971 541.994 140.003 542.513 139.888 543.551H139.805C139.681 544.07 139.541 545.109 139.25 545.628H139.167C138.799 547.704 138.695 549.26 138.757 549.779C138.762 549.779 138.674 550.299 138.679 550.299C138.716 550.299 138.882 550.818 139.001 550.818C139.131 550.818 139.348 551.337 139.567 551.337C139.79 551.337 140.028 550.818 140.324 550.818C141.211 550.299 142.332 548.742 143.682 547.704C145.439 546.147 147.531 544.07 149.445 543.551C150.46 543.551 151.393 543.551 152.297 544.07C152.732 544.07 153.083 544.59 153.473 545.109C153.902 545.628 154.302 546.665 154.666 547.184L144.024 558.085C142.099 559.123 140.527 561.198 139.598 562.755C139.369 563.275 139.147 563.794 139.001 564.313C138.85 564.832 138.752 565.351 138.69 565.871C138.545 566.909 138.633 567.947 138.918 569.504C139.094 570.023 138.996 571.579 138.898 573.136C138.85 574.175 138.949 574.694 138.908 575.213C138.877 576.251 138.741 577.29 138.778 577.809C138.804 578.328 138.814 578.847 138.975 579.366C139.209 579.885 139.676 579.885 140.335 579.885C140.973 579.885 141.917 578.847 143.116 577.809H143.199C144.486 577.29 145.525 576.771 146.304 576.251C146.702 575.732 146.975 575.213 147.267 574.694C147.58 574.175 147.902 573.656 148.111 573.136C148.494 572.098 148.681 570.542 148.841 569.504H148.923C148.997 568.466 148.986 567.947 149.032 567.428C149.083 566.909 149.045 566.389 149.082 565.351C149.119 564.832 149.149 564.313 149.193 563.794C149.236 563.275 149.372 562.237 149.445 561.718C149.478 561.718 149.588 561.718 149.631 561.199C150.116 558.604 151.249 557.047 154.695 559.123H154.612C154.584 560.161 154.653 560.68 154.705 561.199C154.708 561.199 154.619 561.199 154.623 561.718C154.68 562.237 154.856 562.236 154.983 562.755C155.123 563.275 155.235 563.275 155.449 563.794H156.242C156.802 563.794 157.532 563.275 158.306 562.755C160.601 560.679 163.666 556.528 166.662 553.413C168.676 551.337 170.683 549.779 172.344 549.779C172.379 549.779 172.392 549.261 172.426 549.261C176.309 549.261 178.083 550.299 178.67 551.856C178.831 552.375 178.961 552.894 178.972 553.413C178.98 553.413 178.863 553.932 178.741 554.451C178.513 555.49 178.046 556.528 177.36 558.085C176.079 560.161 174.122 562.237 172.115 564.313C170.064 566.39 167.974 567.947 166.388 568.985C164.169 570.542 163.143 571.58 163.032 572.099C163.003 572.099 163.088 572.618 163.152 572.618C163.744 573.656 167.75 573.137 169.747 574.175C170.19 574.694 170.522 575.213 170.699 575.732C170.531 576.251 170.3 576.251 170.042 576.771C169.268 577.809 168.202 578.328 166.834 578.847C164.093 579.366 160.467 578.847 157.212 579.366C156.144 579.885 155.146 579.885 154.211 580.404C152.809 580.923 151.613 581.96 150.774 583.517C150.493 584.556 150.266 585.075 150.072 585.594C149.014 586.113 148.258 586.632 147.762 587.151C147.266 587.671 147.062 588.189 147.023 588.708H147.083C147.16 588.708 147.208 588.709 147.368 589.228C148.956 589.747 154.35 588.709 156.782 589.228C158.747 589.747 160.563 589.747 162.222 589.228C163.88 588.709 165.408 588.19 166.837 587.151C167.51 586.632 168.205 586.113 168.84 585.594C169.511 585.075 170.23 584.556 170.866 584.037C172.103 582.48 173.331 580.923 174.49 579.885C174.655 579.366 174.782 578.846 175.028 578.327C175.288 577.808 175.655 577.29 175.991 576.771C176.275 576.771 176.612 576.251 176.933 575.732C177.291 575.732 177.69 575.732 178.078 575.213H179.342C180.528 574.694 181.778 575.213 182.784 575.213C183.535 575.732 184.029 576.251 184.47 576.771C184.69 576.771 184.886 577.29 185.017 577.29C185.146 577.809 185.234 577.808 185.257 578.327H185.176C185.181 578.846 185.133 578.847 185.05 579.366C184.826 580.404 184.127 581.961 182.323 582.999C179.285 584.556 177.851 586.113 177.515 587.151C177.431 587.151 177.508 587.671 177.553 587.671C177.61 587.671 177.551 588.19 177.674 588.19H177.816C178.504 588.709 179.845 589.228 181.582 589.228H181.724H184.515H184.657H190.426C192.033 589.228 193.206 589.747 194.088 590.785H194.372C195.093 591.304 195.572 591.823 195.811 592.342C195.838 592.342 195.849 592.861 195.872 592.861C195.957 592.861 196.11 593.38 196.112 593.38C196.114 593.38 196.03 593.898 196.03 593.898C196.018 593.898 195.922 594.418 195.821 594.937C195.421 596.494 194.069 597.532 192.257 599.089C191.36 599.608 190.439 600.128 189.378 600.128C187.211 601.166 184.85 601.166 182.695 600.128C178.607 599.09 177.161 599.609 177.09 600.128C177.147 600.647 177.519 601.165 178.162 601.684C178.84 602.722 179.734 603.76 180.657 604.279C181.484 605.317 182.363 606.356 183.07 607.394H183.13C183.848 608.432 184.495 609.471 184.727 609.99C184.835 610.509 184.913 611.028 184.864 611.547H184.782C184.772 612.066 184.712 612.065 184.7 612.065C184.476 613.103 183.495 614.661 180.955 615.18L170.263 604.799C170.22 604.799 170.246 604.798 170.203 604.279C169.484 603.76 168.805 602.723 167.992 602.204C165.554 600.128 162.623 599.09 158.935 599.609C156.15 600.128 149.922 598.571 148.398 600.128H148.151C148.131 600.647 148.08 600.647 148.07 600.647C148.065 600.647 148.132 600.647 148.19 601.166C148.417 601.685 149.123 602.723 150.52 603.761H150.438C150.551 604.799 150.757 605.318 151.002 605.318C154.201 612.066 167.756 607.913 169.702 611.547C169.827 611.547 170.001 612.066 170.025 612.585H169.943C169.95 612.585 170.015 613.104 169.877 613.623C169.74 614.142 169.474 614.661 169.115 615.18H169.034C167.197 615.18 166.025 615.18 165.262 615.699C164.609 615.699 164.17 616.218 164.238 616.737C164.643 619.852 176.051 626.599 178.355 631.79C178.546 631.79 178.744 632.308 178.798 632.827H178.715C178.723 633.865 178.745 634.903 178.644 635.422H178.561C178.455 635.941 178.362 636.461 178.167 636.98C178.149 636.98 178.103 637.499 178.085 637.499C177.66 638.018 177.013 639.056 176.283 639.056C171.72 641.133 161.902 631.79 159.057 627.118C157.233 624.523 156.219 623.485 155.648 623.485C155.43 624.004 155.27 624.004 155.155 624.523H155.073C154.956 625.042 154.904 625.561 154.821 626.599C154.6 628.156 154.272 630.233 153.21 631.271H152.455C151.836 631.79 151.115 631.79 150.052 631.271C150.051 630.752 149.992 630.752 149.992 630.752C149.983 629.713 150.036 628.675 149.966 627.637C149.96 627.637 149.911 627.637 149.906 627.118C149.83 626.08 149.666 625.042 149.513 624.004H149.452C149.288 622.966 149.101 621.928 148.835 620.89C148.555 619.852 148.26 618.294 147.851 617.775C147.149 615.699 146.143 614.142 144.978 612.585C144.752 612.585 144.618 612.066 144.371 611.547C143.64 611.028 142.944 609.989 142.021 609.47C141.097 608.432 140.044 607.913 138.913 606.875L138.933 625.041C141.149 628.675 145.484 631.789 148.545 635.422C149.783 635.941 150.659 636.461 151.369 637.499C151.649 637.499 151.995 638.018 152.2 638.018C152.24 638.018 152.225 638.018 152.26 638.537C152.488 638.537 152.657 639.056 152.786 639.575H152.846C153.015 640.094 153.224 640.614 153.185 641.133C153.151 642.171 152.899 642.689 152.544 643.208C152.041 644.246 151.239 644.766 150.316 644.766C149.956 645.285 149.683 645.285 149.276 645.285C148.549 645.285 147.728 644.766 146.895 644.247C146.061 643.728 145.2 643.209 144.318 641.652C143.619 641.133 143.002 640.094 142.473 639.575C141.419 638.537 140.599 638.018 140.075 637.499C139.888 637.499 139.676 638.018 139.546 638.018C139.224 638.537 139.099 639.056 139.048 640.094C138.996 641.133 138.938 642.69 138.97 643.728C139.006 645.285 139.131 646.841 139.074 648.399H138.991C138.928 649.956 138.84 650.994 138.523 652.552C138.207 653.59 137.61 654.628 136.858 655.666C136.468 656.185 136.09 656.185 135.55 656.704C134.98 656.704 134.388 657.223 133.615 657.223C122.292 657.223 134.04 627.118 122.899 641.652C115.842 650.475 109.439 639.056 118.649 635.422C121.711 631.789 126.179 629.194 128.394 625.041L128.456 607.394C119.376 612.585 117.3 621.409 117.222 631.271C109.346 634.904 115.489 616.737 108.193 627.118C104.431 633.347 88.169 647.879 88.3973 632.827C89.3464 626.598 112.765 614.661 98.0748 615.18C92.19 605.318 114.882 614.661 116.652 603.761C124.103 597.013 112.432 600.647 108.292 599.609C103.378 598.571 99.8956 601.166 97.0212 604.799L86.2952 615.18C72.1916 609.99 101.873 597.013 84.4329 600.128C75.9901 603.761 63.9823 591.823 76.8353 589.228C83.6491 589.747 97.1615 589.747 85.0133 582.999C75.9901 576.251 90.0886 570.542 92.7139 579.885C97.4879 585.075 102.537 591.304 110.398 589.228C114.291 588.709 125.702 591.304 117.243 585.594C114.129 574.694 99.1956 582.998 96.5023 575.732C97.9245 571.579 109.75 575.732 100.871 568.985C96.113 566.39 86.5293 556.528 88.4331 551.856Z" fill="#FBFBFB"/>
</g>
<path d="M248.922 181.779L198.395 251.735L177.961 278.748H169.416H149.725L66.5031 295.371C52.1373 315.226 22.2168 355.768 17.4613 359.093C12.7057 362.418 15.4797 393.725 17.4613 408.963L50.5272 469.914L88.0513 480.65L128.919 496.927H409.051H593.699L633.824 470.953L668.376 412.426L660.946 361.864H840.024L909.128 343.509L960.768 264.895L935.503 189.744L859.714 142.646L793.207 152.342L768.686 100.742L686.21 26.6296L624.536 15.2012L526.082 26.6296L454.006 89.3132L427.999 142.646C421.063 145.878 406.079 152.342 401.62 152.342C397.162 152.342 359.142 145.878 340.69 142.646L248.922 181.779Z" fill="url(#paint0_linear_673_2200)"/>
<path d="M841.777 131.75C827.534 131.75 813.699 133.813 800.479 137.897C776.423 57.0424 697.211 0 605.553 0C515.028 0 435.472 56.9276 411.04 137.066C397.088 134.21 382.67 132.554 367.832 132.554C276.19 132.554 196.993 189.58 172.933 270.449C159.712 266.352 145.886 264.288 131.64 264.288C59.055 264.288 0 319.323 0 386.983C0 454.658 59.055 509.706 131.64 509.706H572.342C633.091 509.706 682.507 463.629 682.507 407.004C682.507 396.608 680.791 386.594 677.697 377.139H841.777C914.36 377.139 973.401 322.106 973.401 254.444C973.401 186.783 914.36 131.75 841.777 131.75ZM572.342 481.351H131.64C75.8236 481.351 30.4188 439.014 30.4188 386.983C30.4188 334.968 75.8236 292.643 131.64 292.643C147.578 292.643 162.803 295.994 176.913 302.612C181.191 304.619 186.225 304.619 190.533 302.625C194.825 300.632 197.856 296.866 198.717 292.462C213.495 216.232 284.625 160.908 367.832 160.908C462.014 160.908 539.13 232.307 539.71 320.07C539.74 324.265 541.76 328.239 545.221 330.911C548.695 333.582 553.285 334.677 557.683 333.929C562.554 333.099 567.485 332.669 572.342 332.669C616.307 332.669 652.088 366.022 652.088 407.004C652.088 447.999 616.307 481.351 572.342 481.351ZM841.777 348.784H663.018C642.608 321.299 608.157 303.508 569.342 304.356C562.405 231.555 510.651 170.504 440.199 145.168C460.808 76.8908 528.496 28.3546 605.553 28.3546C688.774 28.3546 759.918 83.68 774.698 159.91C775.557 164.314 778.592 168.079 782.865 170.073C787.145 172.067 792.212 172.08 796.485 170.06C810.614 163.455 825.852 160.105 841.777 160.105C897.576 160.105 942.982 202.429 942.982 254.444C942.982 306.461 897.576 348.784 841.777 348.784Z" fill="url(#paint1_linear_673_2200)"/>
<mask id="mask1_673_2200" style="mask-type:luminance" maskUnits="userSpaceOnUse" x="770" y="422" width="88" height="88">
<path d="M770.132 422.398H857.452V509.742H770.132V422.398Z" fill="white"/>
</mask>
<g mask="url(#mask1_673_2200)">
<path d="M781.956 435.864C782.4 434.772 783.738 434.408 786.393 434.408C791.024 434.772 799.248 451.149 798.833 440.959C805.847 436.955 799.463 452.604 806.978 454.06C811.716 459.155 809.526 450.785 810.02 448.238C810.786 444.598 809.068 442.051 806.37 440.231L798.869 432.588C802.626 422.762 811.916 443.506 809.683 431.496C807.894 427.857 810.85 422.762 813.634 422.398H813.591C814.328 422.398 815.023 422.762 815.688 423.49C816.29 423.854 816.862 424.582 817.263 425.674H817.306C817.514 426.038 817.721 426.766 817.843 427.129H817.886C817.979 427.493 818.093 427.857 818.122 428.585H818.065C818.086 428.949 818.108 429.313 818.029 430.041H817.972C817.886 430.405 817.786 431.133 817.585 431.496H817.528C817.263 432.953 817.191 434.044 817.234 434.408C817.242 434.408 817.177 434.772 817.184 434.772C817.206 434.772 817.327 435.136 817.406 435.136C817.499 435.136 817.65 435.5 817.807 435.5C817.964 435.5 818.129 435.136 818.337 435.136C818.959 434.772 819.747 433.68 820.691 432.953C821.922 431.861 823.39 430.405 824.728 430.041C825.444 430.041 826.095 430.041 826.732 430.405C827.033 430.405 827.283 430.769 827.555 431.133C827.856 431.496 828.135 432.225 828.393 432.588L820.928 440.231C819.582 440.959 818.48 442.414 817.828 443.506C817.664 443.87 817.514 444.234 817.406 444.598C817.306 444.962 817.234 445.326 817.191 445.69C817.091 446.418 817.148 447.146 817.349 448.238C817.471 448.601 817.406 449.693 817.335 450.785C817.306 451.512 817.37 451.877 817.342 452.241C817.32 452.969 817.227 453.696 817.249 454.06C817.27 454.424 817.277 454.789 817.392 455.152C817.556 455.516 817.879 455.516 818.344 455.516C818.788 455.516 819.453 454.788 820.291 454.06H820.355C821.257 453.696 821.98 453.332 822.531 452.969C822.81 452.605 822.996 452.241 823.204 451.877C823.426 451.513 823.647 451.149 823.798 450.785C824.062 450.057 824.198 448.965 824.306 448.238H824.363C824.42 447.51 824.406 447.145 824.442 446.782C824.478 446.418 824.449 446.053 824.478 445.326C824.499 444.962 824.521 444.598 824.556 444.234C824.585 443.871 824.678 443.142 824.728 442.779C824.757 442.779 824.828 442.779 824.864 442.414C825.201 440.595 825.995 439.503 828.414 440.959H828.357C828.335 441.687 828.386 442.051 828.421 442.414C828.421 442.414 828.357 442.414 828.364 442.779C828.4 443.142 828.522 443.142 828.615 443.506C828.715 443.87 828.794 443.871 828.944 444.234H829.495C829.889 444.234 830.404 443.87 830.941 443.506C832.551 442.051 834.706 439.139 836.803 436.955C838.213 435.5 839.623 434.408 840.789 434.408C840.811 434.408 840.818 434.044 840.847 434.044C843.566 434.044 844.812 434.772 845.22 435.864C845.334 436.227 845.427 436.592 845.434 436.955C845.442 436.955 845.356 437.319 845.27 437.684C845.112 438.411 844.783 439.139 844.304 440.231C843.402 441.687 842.035 443.142 840.625 444.598C839.186 446.054 837.726 447.146 836.609 447.873C835.056 448.965 834.333 449.693 834.255 450.057C834.24 450.057 834.298 450.421 834.34 450.421C834.756 451.149 837.568 450.785 838.964 451.513C839.279 451.877 839.508 452.24 839.63 452.604C839.515 452.969 839.351 452.969 839.172 453.332C838.628 454.06 837.883 454.424 836.924 454.789C834.999 455.152 832.458 454.789 830.175 455.152C829.431 455.516 828.729 455.516 828.071 455.88C827.09 456.244 826.253 456.971 825.666 458.063C825.465 458.791 825.308 459.155 825.172 459.519C824.428 459.883 823.898 460.247 823.554 460.611C823.204 460.975 823.061 461.339 823.032 461.703H823.075C823.132 461.703 823.161 461.703 823.275 462.067C824.385 462.431 828.171 461.703 829.874 462.067C831.256 462.431 832.53 462.431 833.689 462.067C834.856 461.703 835.922 461.339 836.924 460.611C837.397 460.247 837.883 459.883 838.327 459.519C838.8 459.155 839.301 458.791 839.751 458.428C840.617 457.336 841.476 456.244 842.292 455.516C842.407 455.152 842.493 454.788 842.672 454.424C842.851 454.06 843.108 453.697 843.344 453.332C843.545 453.332 843.781 452.969 844.003 452.604C844.253 452.604 844.533 452.604 844.805 452.241H845.692C846.522 451.877 847.403 452.241 848.104 452.241C848.634 452.604 848.977 452.969 849.292 453.332C849.442 453.332 849.579 453.697 849.672 453.697C849.765 454.06 849.822 454.06 849.843 454.424H849.786C849.786 454.788 849.75 454.789 849.693 455.152C849.536 455.88 849.049 456.971 847.782 457.699C845.656 458.791 844.647 459.883 844.411 460.611C844.354 460.611 844.411 460.975 844.439 460.975C844.482 460.975 844.439 461.339 844.525 461.339H844.626C845.105 461.703 846.05 462.067 847.267 462.067H847.36H849.321H849.421H853.465C854.589 462.067 855.412 462.43 856.034 463.158H856.235C856.736 463.522 857.072 463.887 857.244 464.25C857.258 464.25 857.266 464.615 857.28 464.615C857.344 464.615 857.452 464.978 857.452 464.978L857.394 465.342C857.387 465.342 857.316 465.706 857.251 466.07C856.965 467.162 856.02 467.889 854.746 468.981C854.116 469.345 853.472 469.709 852.728 469.709C851.21 470.437 849.557 470.437 848.047 469.709C845.177 468.982 844.16 469.346 844.117 469.709C844.153 470.074 844.418 470.437 844.869 470.801C845.341 471.529 845.971 472.256 846.615 472.621C847.195 473.348 847.811 474.076 848.304 474.804H848.347C848.856 475.533 849.307 476.26 849.471 476.624C849.543 476.988 849.6 477.352 849.564 477.715H849.507C849.5 478.08 849.457 478.08 849.45 478.08C849.292 478.807 848.605 479.9 846.823 480.263L839.329 472.985C839.301 472.985 839.315 472.985 839.286 472.621C838.778 472.256 838.306 471.529 837.733 471.165C836.03 469.709 833.968 468.982 831.384 469.346C829.43 469.709 825.065 468.617 823.998 469.709H823.826C823.812 470.074 823.776 470.074 823.769 470.074C823.762 470.074 823.812 470.073 823.848 470.437C824.012 470.801 824.506 471.529 825.487 472.256H825.43C825.508 472.985 825.651 473.349 825.823 473.349C828.064 478.08 837.568 475.168 838.936 477.715C839.021 477.715 839.143 478.08 839.157 478.444H839.1C839.107 478.444 839.15 478.808 839.057 479.172C838.964 479.535 838.771 479.9 838.52 480.263H838.463C837.175 480.263 836.359 480.263 835.822 480.627C835.364 480.627 835.056 480.991 835.106 481.355C835.385 483.539 843.387 488.27 844.998 491.909C845.134 491.909 845.277 492.273 845.313 492.637H845.255C845.255 493.365 845.277 494.092 845.205 494.457H845.148C845.069 494.82 845.005 495.185 844.869 495.548C844.855 495.548 844.826 495.912 844.812 495.912C844.511 496.276 844.06 497.004 843.552 497.004C840.353 498.46 833.467 491.909 831.47 488.633C830.189 486.814 829.481 486.086 829.08 486.086C828.93 486.45 828.815 486.45 828.736 486.814H828.679C828.593 487.178 828.557 487.542 828.5 488.27C828.343 489.361 828.114 490.818 827.369 491.545H826.84C826.41 491.909 825.902 491.909 825.158 491.545C825.158 491.181 825.115 491.181 825.115 491.181C825.107 490.453 825.143 489.725 825.093 488.998C825.093 488.998 825.057 488.998 825.05 488.633C825 487.906 824.886 487.178 824.778 486.45H824.735C824.621 485.722 824.492 484.994 824.306 484.267C824.105 483.539 823.898 482.447 823.612 482.083C823.118 480.627 822.416 479.535 821.6 478.444C821.443 478.444 821.35 478.08 821.171 477.715C820.663 477.352 820.176 476.624 819.525 476.26C818.881 475.532 818.136 475.168 817.349 474.44L817.363 487.178C818.916 489.725 821.951 491.909 824.098 494.457C824.972 494.82 825.58 495.184 826.081 495.912C826.274 495.912 826.517 496.276 826.661 496.276C826.689 496.276 826.682 496.277 826.704 496.64C826.861 496.64 826.983 497.004 827.076 497.368H827.119C827.233 497.732 827.383 498.096 827.355 498.46C827.326 499.188 827.154 499.551 826.904 499.916C826.553 500.643 825.988 501.007 825.344 501.007C825.093 501.371 824.9 501.371 824.614 501.371C824.105 501.371 823.526 501.007 822.946 500.644C822.359 500.279 821.758 499.916 821.135 498.824C820.648 498.46 820.212 497.732 819.84 497.368C819.102 496.64 818.53 496.276 818.165 495.912C818.029 495.912 817.879 496.276 817.793 496.276C817.564 496.64 817.478 497.004 817.442 497.732C817.406 498.459 817.363 499.552 817.385 500.279C817.413 501.371 817.499 502.463 817.456 503.555H817.399C817.356 504.647 817.299 505.375 817.077 506.466C816.855 507.195 816.433 507.922 815.903 508.65C815.631 509.014 815.366 509.014 814.987 509.378C814.586 509.378 814.171 509.742 813.634 509.742C805.69 509.742 813.928 488.634 806.119 498.824C801.173 505.011 796.678 497.004 803.142 494.457C805.289 491.909 808.417 490.09 809.97 487.178L810.013 474.804C803.65 478.444 802.19 484.631 802.139 491.545C796.614 494.093 800.923 481.355 795.805 488.633C793.171 493.001 781.77 503.191 781.927 492.637C782.593 488.27 799.012 479.9 788.712 480.263C784.59 473.349 800.5 479.899 801.739 472.256C806.964 467.526 798.783 470.074 795.877 469.346C792.434 468.617 789.986 470.437 787.975 472.985L780.453 480.263C770.561 476.624 791.375 467.526 779.15 469.709C773.231 472.257 764.807 463.887 773.818 462.067C778.599 462.431 788.075 462.43 779.558 457.699C773.231 452.969 783.115 448.965 784.955 455.516C788.304 459.156 791.84 463.523 797.351 462.067C800.085 461.703 808.08 463.522 802.154 459.519C799.971 451.877 789.5 457.699 787.61 452.604C788.605 449.693 796.9 452.605 790.673 447.873C787.338 446.054 780.617 439.139 781.956 435.864Z" fill="#FBFBFB"/>
</g>
<mask id="mask2_673_2200" style="mask-type:luminance" maskUnits="userSpaceOnUse" x="333" y="625" width="83" height="84">
<path d="M333.533 625.722H415.843V708.054H333.533V625.722Z" fill="white"/>
</mask>
<g mask="url(#mask2_673_2200)">
<path d="M344.676 638.414C345.098 637.385 346.356 637.042 348.86 637.042C353.23 637.385 360.977 652.822 360.589 643.217C367.201 639.444 361.182 654.195 368.264 655.567C372.73 660.37 370.669 652.48 371.132 650.078C371.852 646.648 370.233 644.246 367.692 642.531L360.623 635.327C364.166 626.065 372.922 645.619 370.812 634.298C369.133 630.867 371.914 626.065 374.541 625.722H374.499C375.192 625.722 375.85 626.065 376.475 626.75C377.041 627.093 377.579 627.78 377.96 628.809H378.001C378.193 629.152 378.392 629.838 378.509 630.181H378.547C378.632 630.524 378.746 630.867 378.773 631.554H378.718C378.738 631.897 378.759 632.24 378.683 632.925H378.629C378.547 633.269 378.454 633.955 378.262 634.298H378.207C377.963 635.67 377.895 636.699 377.936 637.042C377.939 637.042 377.881 637.386 377.885 637.386C377.908 637.386 378.018 637.729 378.097 637.729C378.183 637.729 378.327 638.071 378.471 638.071C378.618 638.071 378.776 637.729 378.972 637.729C379.558 637.386 380.299 636.356 381.191 635.67C382.352 634.641 383.735 633.269 385 632.925C385.671 632.925 386.287 632.925 386.885 633.268C387.172 633.268 387.404 633.612 387.662 633.955C387.946 634.298 388.211 634.984 388.45 635.327L381.417 642.531C380.145 643.218 379.106 644.589 378.492 645.618C378.341 645.961 378.193 646.305 378.097 646.648C377.998 646.991 377.932 647.334 377.891 647.677C377.795 648.363 377.854 649.049 378.042 650.078C378.159 650.421 378.094 651.45 378.028 652.48C377.998 653.165 378.063 653.508 378.036 653.851C378.015 654.538 377.925 655.224 377.95 655.567C377.967 655.91 377.973 656.253 378.08 656.596C378.235 656.939 378.543 656.939 378.978 656.939C379.401 656.939 380.025 656.253 380.817 655.567H380.871C381.722 655.224 382.409 654.881 382.924 654.538C383.187 654.195 383.367 653.852 383.561 653.508C383.767 653.165 383.98 652.822 384.118 652.48C384.371 651.793 384.495 650.764 384.6 650.078H384.655C384.704 649.392 384.696 649.049 384.727 648.706C384.761 648.363 384.735 648.019 384.76 647.333C384.784 646.991 384.804 646.648 384.833 646.305C384.862 645.962 384.952 645.275 385 644.932C385.022 644.932 385.094 644.932 385.123 644.589C385.443 642.874 386.192 641.845 388.47 643.217H388.415C388.396 643.903 388.442 644.246 388.476 644.589C388.478 644.589 388.419 644.589 388.422 644.932C388.46 645.275 388.576 645.275 388.66 645.618C388.752 645.961 388.827 645.962 388.968 646.305H389.492C389.862 646.305 390.344 645.961 390.856 645.618C392.373 644.246 394.399 641.502 396.378 639.444C397.71 638.071 399.037 637.042 400.134 637.042C400.157 637.042 400.165 636.699 400.188 636.699C402.755 636.699 403.927 637.385 404.315 638.414C404.421 638.757 404.508 639.1 404.514 639.444C404.52 639.444 404.443 639.787 404.362 640.13C404.211 640.816 403.903 641.502 403.45 642.531C402.603 643.903 401.309 645.275 399.983 646.648C398.627 648.02 397.246 649.049 396.198 649.735C394.731 650.764 394.053 651.45 393.98 651.794C393.961 651.794 394.017 652.137 394.059 652.137C394.45 652.822 397.098 652.48 398.418 653.165C398.71 653.508 398.929 653.851 399.047 654.194C398.936 654.538 398.783 654.538 398.613 654.881C398.101 655.567 397.397 655.91 396.492 656.253C394.681 656.596 392.284 656.253 390.133 656.596C389.427 656.939 388.768 656.939 388.15 657.282C387.224 657.625 386.433 658.311 385.878 659.34C385.693 660.026 385.543 660.37 385.414 660.713C384.715 661.056 384.215 661.399 383.887 661.742C383.56 662.085 383.425 662.427 383.399 662.771H383.438C383.489 662.771 383.521 662.771 383.627 663.114C384.676 663.457 388.242 662.771 389.849 663.114C391.148 663.457 392.348 663.457 393.445 663.114C394.54 662.771 395.55 662.428 396.494 661.742C396.939 661.399 397.399 661.056 397.819 660.713C398.262 660.37 398.737 660.027 399.158 659.684C399.975 658.654 400.787 657.625 401.553 656.939C401.661 656.596 401.745 656.252 401.908 655.91C402.08 655.567 402.322 655.224 402.545 654.881C402.732 654.881 402.955 654.538 403.167 654.194C403.403 654.194 403.668 654.195 403.924 653.851H404.759C405.543 653.508 406.369 653.851 407.034 653.851C407.53 654.195 407.857 654.538 408.148 654.881C408.294 654.881 408.423 655.224 408.51 655.224C408.595 655.567 408.653 655.567 408.669 655.91H408.615C408.618 656.252 408.586 656.253 408.532 656.596C408.384 657.282 407.922 658.311 406.729 658.997C404.722 660.026 403.774 661.056 403.552 661.742C403.496 661.742 403.547 662.085 403.577 662.085C403.615 662.085 403.575 662.428 403.657 662.428H403.751C404.205 662.771 405.093 663.114 406.239 663.114H406.334H408.178H408.273H412.085C413.147 663.114 413.922 663.457 414.505 664.143H414.693C415.169 664.486 415.486 664.829 415.644 665.172C415.662 665.172 415.669 665.515 415.684 665.515C415.741 665.515 415.841 665.858 415.843 665.858C415.844 665.858 415.789 666.201 415.789 666.201C415.781 666.201 415.718 666.545 415.651 666.888C415.386 667.916 414.493 668.602 413.295 669.632C412.702 669.975 412.094 670.318 411.392 670.318C409.96 671.004 408.399 671.004 406.975 670.318C404.273 669.632 403.318 669.975 403.271 670.318C403.308 670.661 403.554 671.004 403.98 671.347C404.428 672.033 405.018 672.719 405.628 673.062C406.175 673.748 406.756 674.435 407.223 675.121H407.263C407.737 675.807 408.164 676.493 408.318 676.836C408.389 677.179 408.441 677.522 408.409 677.865H408.354C408.348 678.208 408.309 678.208 408.3 678.208C408.152 678.894 407.505 679.923 405.825 680.267L398.758 673.405C398.73 673.405 398.748 673.405 398.719 673.062C398.244 672.719 397.796 672.034 397.258 671.69C395.647 670.318 393.709 669.632 391.272 669.975C389.432 670.318 385.315 669.289 384.308 670.318H384.145C384.131 670.661 384.097 670.661 384.091 670.661C384.088 670.661 384.131 670.661 384.17 671.004C384.32 671.347 384.787 672.033 385.71 672.72H385.656C385.731 673.405 385.866 673.748 386.029 673.748C388.143 678.208 397.101 675.464 398.388 677.865C398.471 677.865 398.586 678.209 398.602 678.552H398.547C398.552 678.552 398.594 678.894 398.503 679.237C398.413 679.58 398.237 679.923 398 680.267H397.946C396.732 680.267 395.958 680.266 395.454 680.61C395.021 680.61 394.732 680.953 394.777 681.296C395.044 683.354 402.584 687.814 404.107 691.244C404.233 691.244 404.364 691.587 404.4 691.93H404.345C404.35 692.616 404.365 693.302 404.297 693.645H404.244C404.173 693.988 404.112 694.331 403.982 694.674C403.971 694.674 403.94 695.017 403.928 695.017C403.648 695.361 403.219 696.047 402.738 696.047C399.722 697.419 393.233 691.244 391.353 688.156C390.147 686.441 389.477 685.755 389.099 685.755C388.955 686.098 388.85 686.098 388.774 686.441H388.719C388.642 686.784 388.608 687.128 388.553 687.814C388.407 688.843 388.19 690.215 387.488 690.901H386.989C386.58 691.244 386.103 691.244 385.401 690.901C385.401 690.558 385.361 690.558 385.361 690.558C385.355 689.872 385.39 689.185 385.344 688.499C385.34 688.499 385.307 688.499 385.304 688.156C385.254 687.471 385.146 686.785 385.044 686.098H385.005C384.896 685.412 384.772 684.726 384.597 684.04C384.411 683.354 384.217 682.325 383.946 681.982C383.482 680.61 382.817 679.58 382.047 678.552C381.898 678.552 381.809 678.208 381.646 677.865C381.163 677.522 380.704 676.835 380.093 676.493C379.483 675.807 378.786 675.464 378.038 674.777L378.053 686.784C379.517 689.185 382.382 691.244 384.405 693.645C385.224 693.988 385.802 694.331 386.272 695.017C386.457 695.017 386.685 695.36 386.821 695.36C386.846 695.36 386.837 695.361 386.861 695.704C387.011 695.704 387.123 696.047 387.208 696.39H387.248C387.359 696.733 387.498 697.076 387.471 697.419C387.449 698.105 387.283 698.448 387.048 698.791C386.715 699.477 386.186 699.82 385.575 699.82C385.338 700.163 385.157 700.163 384.888 700.163C384.408 700.163 383.865 699.82 383.314 699.477C382.763 699.134 382.195 698.791 381.611 697.762C381.149 697.419 380.741 696.733 380.392 696.39C379.695 695.704 379.154 695.361 378.807 695.017C378.683 695.017 378.543 695.36 378.457 695.36C378.245 695.704 378.162 696.047 378.128 696.733C378.094 697.419 378.056 698.448 378.076 699.134C378.101 700.163 378.183 701.192 378.145 702.222H378.09C378.049 703.25 377.991 703.937 377.782 704.966C377.573 705.652 377.178 706.338 376.681 707.024C376.424 707.367 376.173 707.368 375.816 707.711C375.439 707.711 375.048 708.054 374.537 708.054C367.054 708.054 374.818 688.156 367.455 697.762C362.791 703.594 358.559 696.047 364.646 693.645C366.67 691.244 369.623 689.529 371.087 686.784L371.128 675.121C365.127 678.552 363.755 684.383 363.703 690.901C358.497 693.303 362.558 681.296 357.736 688.156C355.249 692.273 344.501 701.879 344.652 691.93C345.279 687.814 360.757 679.923 351.048 680.267C347.159 673.748 362.156 679.923 363.326 672.72C368.251 668.259 360.538 670.661 357.801 669.975C354.553 669.289 352.252 671.004 350.352 673.405L343.263 680.267C333.941 676.836 353.559 668.26 342.032 670.318C336.452 672.72 328.516 664.829 337.011 663.114C341.514 663.457 350.445 663.457 342.416 658.997C336.452 654.538 345.77 650.764 347.505 656.939C350.661 660.37 353.998 664.486 359.193 663.114C361.765 662.771 369.307 664.486 363.717 660.713C361.659 653.508 351.789 658.997 350.009 654.194C350.949 651.45 358.764 654.195 352.897 649.735C349.752 648.02 343.418 641.501 344.676 638.414Z" fill="#FBFBFB"/>
</g>
<mask id="mask3_673_2200" style="mask-type:luminance" maskUnits="userSpaceOnUse" x="483" y="523" width="153" height="153">
<path d="M483.122 523.344H635.574V675.837H483.122V523.344Z" fill="white"/>
</mask>
<g mask="url(#mask3_673_2200)">
<path d="M503.76 546.853C504.542 544.947 506.873 544.311 511.51 544.311C519.603 544.946 533.952 573.539 533.234 555.748C545.481 548.759 534.333 576.081 547.45 578.622C555.721 587.517 551.904 572.904 552.761 568.456C554.095 562.102 551.096 557.655 546.39 554.478L533.298 541.134C539.86 523.979 556.076 560.196 552.17 539.229C549.057 532.874 554.209 523.979 559.075 523.344H558.999C560.282 523.344 561.502 523.979 562.658 525.25C563.706 525.885 564.703 527.156 565.408 529.063H565.484C565.84 529.698 566.208 530.968 566.425 531.603H566.494C566.653 532.238 566.863 532.874 566.913 534.145H566.812C566.85 534.781 566.888 535.416 566.748 536.687H566.646C566.494 537.322 566.323 538.593 565.967 539.229H565.866C565.415 541.77 565.287 543.675 565.364 544.311C565.37 544.311 565.262 544.947 565.269 544.947C565.313 544.947 565.516 545.582 565.662 545.582C565.821 545.582 566.087 546.218 566.354 546.218C566.628 546.218 566.92 545.582 567.282 545.582C568.368 544.947 569.74 543.041 571.392 541.77C573.544 539.864 576.104 537.322 578.447 536.687C579.69 536.687 580.831 536.687 581.938 537.322C582.471 537.322 582.9 537.958 583.378 538.593C583.903 539.229 584.393 540.499 584.838 541.134L571.811 554.478C569.454 555.749 567.53 558.29 566.392 560.195C566.113 560.831 565.84 561.467 565.662 562.102C565.478 562.738 565.357 563.373 565.281 564.009C565.103 565.279 565.211 566.55 565.561 568.456C565.776 569.092 565.656 570.997 565.535 572.903C565.478 574.174 565.599 574.81 565.548 575.446C565.51 576.716 565.345 577.987 565.389 578.622C565.421 579.258 565.433 579.893 565.63 580.529C565.916 581.164 566.488 581.164 567.295 581.164C568.076 581.164 569.232 579.893 570.7 578.622H570.801C572.377 577.987 573.648 577.352 574.602 576.716C575.089 576.081 575.424 575.446 575.782 574.81C576.164 574.175 576.559 573.539 576.814 572.903C577.283 571.632 577.512 569.727 577.707 568.456H577.808C577.899 567.185 577.885 566.55 577.942 565.914C578.004 565.279 577.957 564.644 578.003 563.373C578.047 562.737 578.085 562.103 578.138 561.467C578.192 560.831 578.358 559.56 578.447 558.925C578.488 558.925 578.622 558.925 578.675 558.29C579.268 555.113 580.656 553.207 584.873 555.748H584.772C584.737 557.019 584.823 557.655 584.886 558.29C584.889 558.29 584.782 558.29 584.785 558.925C584.855 559.56 585.071 559.56 585.227 560.195C585.397 560.831 585.535 560.831 585.797 561.467H586.768C587.453 561.467 588.346 560.831 589.294 560.195C592.104 557.654 595.856 552.572 599.522 548.759C601.989 546.218 604.446 544.311 606.479 544.311C606.521 544.311 606.537 543.676 606.58 543.676C611.332 543.676 613.504 544.947 614.223 546.853C614.42 547.488 614.579 548.123 614.592 548.759C614.602 548.759 614.459 549.394 614.309 550.03C614.03 551.301 613.459 552.572 612.62 554.478C611.05 557.02 608.655 559.56 606.199 562.102C603.687 564.644 601.129 566.55 599.188 567.821C596.471 569.727 595.216 570.997 595.08 571.633C595.044 571.633 595.148 572.268 595.227 572.268C595.951 573.539 600.854 572.904 603.3 574.175C603.842 574.81 604.248 575.445 604.465 576.081C604.259 576.716 603.976 576.716 603.661 577.352C602.714 578.623 601.408 579.258 599.734 579.894C596.378 580.529 591.94 579.893 587.955 580.529C586.647 581.164 585.426 581.164 584.282 581.799C582.566 582.434 581.101 583.705 580.073 585.611C579.73 586.882 579.452 587.518 579.215 588.153C577.92 588.788 576.994 589.424 576.386 590.06C575.779 590.695 575.53 591.33 575.482 591.965H575.555C575.65 591.965 575.708 591.966 575.904 592.601C577.848 593.236 584.452 591.966 587.428 592.601C589.834 593.236 592.057 593.236 594.088 592.601C596.118 591.966 597.989 591.331 599.737 590.06C600.561 589.424 601.413 588.788 602.19 588.153C603.01 587.518 603.89 586.882 604.669 586.247C606.184 584.341 607.687 582.434 609.107 581.164C609.307 580.529 609.463 579.893 609.764 579.257C610.082 578.622 610.531 577.987 610.943 577.352C611.291 577.352 611.703 576.716 612.096 576.081C612.534 576.081 613.023 576.081 613.497 575.446H615.045C616.497 574.81 618.027 575.446 619.259 575.446C620.179 576.081 620.783 576.716 621.322 577.352C621.591 577.352 621.831 577.987 621.992 577.987C622.15 578.622 622.257 578.622 622.286 579.257H622.186C622.193 579.893 622.133 579.893 622.032 580.529C621.759 581.799 620.902 583.705 618.694 584.976C614.976 586.882 613.221 588.788 612.809 590.06C612.706 590.06 612.8 590.695 612.856 590.695C612.925 590.695 612.852 591.33 613.003 591.33H613.177C614.019 591.966 615.662 592.601 617.787 592.601H617.96H621.377H621.552H628.614C630.581 592.601 632.017 593.236 633.096 594.507H633.445C634.326 595.142 634.913 595.778 635.206 596.413C635.238 596.413 635.252 597.049 635.28 597.049C635.384 597.049 635.572 597.684 635.574 597.684C635.576 597.684 635.473 598.319 635.473 598.319C635.458 598.319 635.341 598.954 635.218 599.59C634.727 601.497 633.073 602.767 630.855 604.673C629.756 605.308 628.63 605.944 627.33 605.944C624.678 607.215 621.787 607.215 619.149 605.944C614.145 604.673 612.375 605.308 612.288 605.944C612.358 606.58 612.814 607.214 613.601 607.85C614.431 609.121 615.525 610.391 616.655 611.026C617.667 612.297 618.744 613.569 619.609 614.839H619.683C620.561 616.11 621.353 617.381 621.637 618.017C621.769 618.652 621.865 619.287 621.805 619.923H621.704C621.692 620.558 621.619 620.558 621.604 620.558C621.329 621.828 620.129 623.735 617.019 624.371L603.931 611.663C603.878 611.663 603.911 611.662 603.858 611.026C602.978 610.391 602.147 609.121 601.151 608.486C598.167 605.944 594.579 604.673 590.063 605.309C586.656 605.944 579.031 604.038 577.165 605.944H576.864C576.838 606.58 576.776 606.579 576.763 606.579C576.758 606.579 576.839 606.579 576.911 607.215C577.188 607.85 578.053 609.121 579.763 610.391H579.663C579.802 611.662 580.052 612.298 580.353 612.298C584.269 620.558 600.862 615.475 603.245 619.923C603.397 619.923 603.611 620.558 603.64 621.193H603.539C603.549 621.193 603.627 621.828 603.459 622.464C603.291 623.099 602.965 623.735 602.526 624.371H602.426C600.178 624.371 598.744 624.37 597.809 625.006C597.009 625.006 596.473 625.641 596.556 626.276C597.051 630.089 611.016 638.348 613.837 644.702C614.07 644.702 614.312 645.337 614.379 645.973H614.279C614.287 647.244 614.314 648.515 614.19 649.15H614.09C613.959 649.785 613.846 650.421 613.607 651.056C613.585 651.056 613.528 651.692 613.506 651.692C612.985 652.327 612.194 653.598 611.301 653.598C605.716 656.14 593.696 644.702 590.214 638.984C587.981 635.807 586.74 634.536 586.041 634.536C585.773 635.172 585.578 635.172 585.437 635.807H585.336C585.193 636.443 585.13 637.078 585.028 638.348C584.757 640.255 584.356 642.797 583.056 644.067H582.131C581.373 644.703 580.491 644.703 579.19 644.067C579.189 643.432 579.117 643.432 579.117 643.432C579.105 642.161 579.17 640.89 579.085 639.619C579.078 639.619 579.017 639.619 579.011 638.984C578.918 637.713 578.718 636.443 578.53 635.172H578.456C578.255 633.901 578.026 632.63 577.7 631.36C577.357 630.089 576.997 628.183 576.495 627.547C575.636 625.006 574.404 623.1 572.979 621.193C572.702 621.193 572.538 620.558 572.236 619.923C571.341 619.287 570.49 618.016 569.359 617.38C568.228 616.11 566.939 615.475 565.554 614.204L565.579 636.442C568.292 640.89 573.598 644.702 577.346 649.15C578.861 649.785 579.933 650.421 580.802 651.692C581.146 651.692 581.569 652.327 581.82 652.327C581.868 652.327 581.849 652.328 581.894 652.963C582.172 652.963 582.379 653.598 582.537 654.234H582.61C582.818 654.869 583.074 655.504 583.025 656.14C582.983 657.411 582.676 658.045 582.241 658.681C581.625 659.952 580.643 660.587 579.513 660.587C579.074 661.222 578.739 661.222 578.24 661.222C577.351 661.222 576.346 660.587 575.325 659.952C574.305 659.317 573.251 658.682 572.171 656.775C571.315 656.139 570.559 654.869 569.912 654.234C568.622 652.963 567.618 652.327 566.977 651.692C566.748 651.692 566.488 652.327 566.329 652.327C565.935 652.962 565.783 653.598 565.72 654.869C565.656 656.139 565.586 658.046 565.624 659.317C565.669 661.223 565.821 663.128 565.751 665.035H565.649C565.573 666.941 565.466 668.212 565.078 670.118C564.69 671.389 563.96 672.659 563.038 673.93C562.562 674.566 562.099 674.566 561.438 675.202C560.739 675.202 560.015 675.837 559.068 675.837C545.208 675.837 559.589 638.984 545.952 656.775C537.313 667.577 529.474 653.598 540.749 649.15C544.497 644.702 549.966 641.525 552.678 636.442L552.755 614.839C541.638 621.193 539.097 631.995 539.002 644.067C529.359 648.515 536.88 626.276 527.949 638.984C523.344 646.609 503.436 664.399 503.716 645.973C504.878 638.348 533.546 623.735 515.563 624.371C508.359 612.298 536.137 623.735 538.303 610.391C547.425 602.132 533.139 606.58 528.07 605.309C522.055 604.038 517.792 607.215 514.273 611.663L501.143 624.371C483.878 618.017 520.212 602.132 498.863 605.944C488.528 610.391 473.829 595.778 489.563 592.601C497.904 593.236 514.445 593.236 499.574 584.976C488.528 576.716 505.787 569.727 509.001 581.164C514.845 587.518 521.025 595.143 530.649 592.601C535.413 591.966 549.381 595.142 539.028 588.153C535.216 574.81 516.935 584.976 513.638 576.081C515.378 570.997 529.855 576.081 518.986 567.821C513.162 564.644 501.429 552.572 503.76 546.853Z" fill="#FBFBFB"/>
</g>
<mask id="mask4_673_2200" style="mask-type:luminance" maskUnits="userSpaceOnUse" x="768" y="590" width="219" height="219">
<path d="M768.7 590.642H987V809H768.7V590.642Z" fill="white"/>
</mask>
<g mask="url(#mask4_673_2200)">
<path d="M798.254 624.305C799.37 621.575 802.713 620.666 809.347 620.666C820.935 621.575 841.484 662.518 840.46 637.042C857.996 627.034 842.028 666.157 860.816 669.796C872.654 682.534 867.193 661.608 868.417 655.239C870.328 646.141 866.034 639.772 859.291 635.223L840.546 616.116C849.944 591.551 873.17 643.411 867.573 613.387C863.114 604.289 870.493 591.552 877.457 590.642H877.35C879.189 590.642 880.935 591.551 882.589 593.371C884.092 594.28 885.516 596.101 886.525 598.83H886.64C887.148 599.74 887.67 601.559 887.985 602.469H888.086C888.307 603.379 888.608 604.289 888.687 606.109H888.536C888.594 607.018 888.644 607.928 888.451 609.748H888.3C888.086 610.658 887.835 612.477 887.327 613.387H887.184C886.54 617.026 886.353 619.756 886.461 620.666C886.475 620.666 886.318 621.576 886.325 621.576C886.389 621.576 886.683 622.485 886.89 622.485C887.119 622.485 887.499 623.395 887.885 623.395C888.272 623.395 888.694 622.485 889.209 622.485C890.77 621.575 892.731 618.846 895.093 617.026C898.177 614.297 901.842 610.658 905.199 609.748C906.981 609.748 908.613 609.748 910.195 610.658C910.96 610.658 911.576 611.567 912.263 612.477C913.015 613.387 913.716 615.207 914.353 616.116L895.694 635.223C892.323 637.043 889.567 640.681 887.935 643.411C887.534 644.321 887.148 645.231 886.89 646.141C886.625 647.05 886.454 647.961 886.346 648.871C886.089 650.69 886.246 652.509 886.747 655.239C887.055 656.149 886.883 658.878 886.711 661.607C886.625 663.427 886.797 664.337 886.726 665.247C886.676 667.066 886.439 668.886 886.504 669.796C886.547 670.706 886.561 671.616 886.847 672.526C887.255 673.436 888.071 673.436 889.231 673.436C890.347 673.436 892.001 671.616 894.105 669.796H894.248C896.503 668.886 898.328 667.977 899.695 667.067C900.389 666.157 900.869 665.247 901.384 664.337C901.928 663.427 902.493 662.517 902.858 661.607C903.531 659.787 903.86 657.059 904.139 655.239H904.283C904.412 653.419 904.397 652.509 904.476 651.599C904.562 650.689 904.497 649.78 904.562 647.96C904.626 647.05 904.676 646.141 904.755 645.231C904.834 644.321 905.07 642.501 905.199 641.591C905.256 641.591 905.449 641.592 905.528 640.682C906.373 636.133 908.362 633.403 914.403 637.042H914.26C914.21 638.862 914.332 639.772 914.417 640.682C914.425 640.682 914.267 640.682 914.274 641.591C914.375 642.501 914.682 642.501 914.904 643.411C915.148 644.321 915.348 644.321 915.72 645.231H917.116C918.096 645.231 919.37 644.321 920.73 643.411C924.753 639.772 930.128 632.493 935.374 627.034C938.91 623.395 942.424 620.666 945.337 620.666C945.402 620.666 945.423 619.756 945.48 619.756C952.287 619.756 955.393 621.575 956.424 624.305C956.71 625.215 956.939 626.124 956.954 627.034C956.968 627.034 956.768 627.944 956.553 628.854C956.152 630.674 955.336 632.494 954.134 635.223C951.886 638.862 948.458 642.501 944.936 646.141C941.343 649.78 937.679 652.51 934.902 654.329C931.008 657.059 929.212 658.878 929.018 659.788C928.961 659.788 929.112 660.698 929.226 660.698C930.264 662.517 937.285 661.608 940.785 663.428C941.565 664.337 942.145 665.246 942.453 666.156C942.159 667.066 941.751 667.067 941.301 667.977C939.948 669.796 938.08 670.707 935.682 671.616C930.872 672.526 924.516 671.616 918.812 672.526C916.944 673.436 915.19 673.435 913.551 674.345C911.096 675.255 908.999 677.074 907.525 679.804C907.038 681.623 906.637 682.534 906.301 683.443C904.447 684.353 903.116 685.264 902.25 686.173C901.377 687.083 901.019 687.992 900.955 688.902H901.055C901.191 688.902 901.277 688.903 901.556 689.813C904.34 690.723 913.795 688.903 918.061 689.813C921.503 690.723 924.688 690.723 927.594 689.813C930.5 688.903 933.184 687.993 935.682 686.173C936.863 685.264 938.087 684.353 939.196 683.443C940.37 682.534 941.63 681.625 942.746 680.715C944.915 677.985 947.069 675.255 949.102 673.436C949.388 672.526 949.61 671.615 950.04 670.705C950.498 669.796 951.142 668.887 951.729 667.977C952.23 667.977 952.817 667.066 953.382 666.156C954.012 666.156 954.706 666.157 955.386 665.247H957.605C959.681 664.337 961.871 665.247 963.639 665.247C964.956 666.157 965.822 667.067 966.595 667.977C966.981 667.977 967.325 668.886 967.554 668.886C967.776 669.796 967.933 669.796 967.976 670.705H967.833C967.84 671.615 967.754 671.616 967.611 672.526C967.217 674.346 965.993 677.075 962.83 678.894C957.505 681.624 954.993 684.354 954.406 686.173C954.255 686.173 954.391 687.083 954.47 687.083C954.57 687.083 954.463 687.993 954.678 687.993H954.928C956.138 688.902 958.485 689.813 961.527 689.813H961.778H966.673H966.924H977.037C979.85 689.813 981.904 690.722 983.45 692.542H983.951C985.211 693.452 986.056 694.362 986.471 695.272C986.521 695.272 986.542 696.181 986.578 696.181C986.728 696.181 987 697.091 987 697.091L986.857 698C986.836 698 986.664 698.911 986.492 699.821C985.791 702.55 983.422 704.369 980.244 707.099C978.669 708.009 977.059 708.919 975.198 708.919C971.397 710.739 967.26 710.739 963.481 708.919C956.317 707.1 953.783 708.009 953.654 708.919C953.754 709.829 954.406 710.738 955.537 711.648C956.725 713.468 958.292 715.287 959.91 716.194C961.363 718.02 962.901 719.838 964.14 721.657H964.247C965.5 723.475 966.638 725.294 967.046 726.203C967.232 727.119 967.368 728.028 967.282 728.938H967.139C967.124 729.847 967.017 729.847 966.995 729.847C966.602 731.665 964.884 734.393 960.432 735.302L941.687 717.111C941.615 717.111 941.658 717.103 941.587 716.194C940.327 715.287 939.132 713.469 937.708 712.559C933.435 708.92 928.296 707.1 921.832 708.01C916.951 708.92 906.036 706.19 903.367 708.919H902.93C902.894 709.829 902.808 709.829 902.787 709.829C902.78 709.829 902.894 709.829 903.001 710.738C903.395 711.648 904.633 713.468 907.081 715.288H906.938C907.138 717.11 907.496 718.02 907.926 718.02C913.537 729.847 937.292 722.566 940.706 728.938C940.928 728.938 941.229 729.847 941.272 730.756H941.129C941.143 730.756 941.258 731.665 941.014 732.575C940.771 733.484 940.306 734.393 939.676 735.302H939.533C936.319 735.302 934.265 735.302 932.926 736.211C931.781 736.211 931.008 737.121 931.13 738.03C931.838 743.492 951.836 755.32 955.873 764.419C956.209 764.419 956.553 765.328 956.653 766.238H956.51C956.517 768.056 956.56 769.874 956.381 770.784H956.238C956.052 771.693 955.887 772.609 955.544 773.519C955.515 773.519 955.429 774.428 955.401 774.428C954.656 775.337 953.518 777.155 952.244 777.155C944.242 780.792 927.036 764.419 922.047 756.229C918.848 751.683 917.073 749.864 916.071 749.864C915.692 750.774 915.412 750.773 915.205 751.683H915.062C914.861 752.592 914.768 753.501 914.625 755.32C914.231 758.047 913.659 761.691 911.798 763.51H910.474C909.386 764.419 908.126 764.419 906.265 763.51C906.258 762.601 906.158 762.601 906.158 762.601C906.144 760.782 906.237 758.957 906.108 757.138C906.101 757.138 906.015 757.138 906.008 756.229C905.872 754.41 905.585 752.592 905.32 750.774H905.213C904.927 748.948 904.598 747.129 904.132 745.311C903.638 743.493 903.123 740.765 902.4 739.856C901.176 736.212 899.409 733.484 897.369 730.756C896.975 730.756 896.739 729.847 896.302 728.938C895.021 728.028 893.804 726.203 892.187 725.294C890.569 723.475 888.723 722.566 886.74 720.747L886.776 752.592C890.655 758.957 898.256 764.419 903.624 770.784C905.793 771.693 907.325 772.609 908.57 774.428C909.064 774.428 909.665 775.337 910.03 775.337C910.094 775.337 910.073 775.337 910.137 776.246C910.531 776.246 910.832 777.156 911.054 778.065H911.161C911.454 778.974 911.827 779.883 911.755 780.792C911.698 782.618 911.254 783.527 910.631 784.436C909.751 786.255 908.341 787.164 906.723 787.164C906.093 788.073 905.614 788.073 904.905 788.073C903.631 788.073 902.193 787.164 900.733 786.255C899.265 785.346 897.755 784.436 896.209 781.702C894.985 780.792 893.904 778.974 892.974 778.065C891.127 776.246 889.696 775.337 888.773 774.428C888.451 774.428 888.071 775.337 887.849 775.337C887.284 776.246 887.062 777.156 886.976 778.974C886.883 780.792 886.783 783.527 886.84 785.346C886.897 788.073 887.119 790.801 887.019 793.529H886.876C886.761 796.264 886.611 798.082 886.053 800.81C885.502 802.628 884.457 804.454 883.133 806.272C882.453 807.182 881.787 807.182 880.842 808.091C879.84 808.091 878.802 809 877.45 809C857.602 809 878.194 756.229 858.669 781.702C846.294 797.173 835.071 777.155 851.218 770.784C856.586 764.419 864.416 759.866 868.303 752.592L868.41 721.657C852.492 730.756 848.856 746.22 848.72 763.51C834.906 769.874 845.678 738.03 832.888 756.229C826.296 767.147 797.788 792.62 798.189 766.238C799.857 755.32 840.904 734.393 815.152 735.302C804.838 718.02 844.612 734.393 847.718 715.288C860.78 703.46 840.325 709.829 833.06 708.01C824.449 706.19 818.344 710.739 813.305 717.111L794.503 735.302C769.782 726.203 821.808 703.46 791.239 708.919C776.438 715.288 755.395 694.362 777.927 689.813C789.865 690.723 813.549 690.722 792.256 678.894C776.438 667.066 801.152 657.059 805.754 673.436C814.129 682.534 822.975 693.452 836.753 689.813C843.574 688.903 863.579 693.452 848.756 683.443C843.295 664.337 817.12 678.894 812.396 666.156C814.887 658.878 835.622 666.157 820.055 654.329C811.717 649.78 794.918 632.493 798.254 624.305Z" fill="#FBFBFB"/>
</g>
</g>
<defs>
<linearGradient id="paint0_linear_673_2200" x1="487.802" y1="15.2012" x2="487.802" y2="496.927" gradientUnits="userSpaceOnUse">
<stop stop-color="#BFE9F7"/>
<stop offset="1" stop-color="#92E3FE"/>
</linearGradient>
<linearGradient id="paint1_linear_673_2200" x1="486.701" y1="0" x2="486.701" y2="509.706" gradientUnits="userSpaceOnUse">
<stop stop-color="#BFE9F7"/>
<stop offset="1" stop-color="#92E3FE"/>
</linearGradient>
<clipPath id="clip0_673_2200">
<rect width="987" height="809" fill="white"/>
</clipPath>
</defs>
</svg>
