<svg width="885" height="806" viewBox="0 0 885 806" fill="none" xmlns="http://www.w3.org/2000/svg">
<g clip-path="url(#clip0_673_2052)">
<path d="M243.03 443.417L297.14 449.429L184.153 651.616L219.503 498.432L219.813 497.089L218.445 496.918L170.458 490.92L277.175 283.415L241.954 441.91L241.653 443.264L243.03 443.417Z" fill="#FAC546" stroke="black" stroke-width="4"/>
<path d="M182.987 139.216L145.843 192.792L130.822 213.479H124.54H110.065L48.8863 226.21C38.3257 241.416 16.3305 272.465 12.8346 275.012C9.33865 277.558 11.378 301.534 12.8346 313.204L37.142 359.884L64.7271 368.106L94.7699 380.571H300.7H436.44L465.937 360.68L491.336 315.856L485.874 277.134H617.517L668.314 263.076L706.282 202.87L687.705 145.316L631.994 109.245L583.104 116.671L565.078 77.1523L504.446 20.3941L459.109 11.6416L386.732 20.3941L333.748 68.4001L314.629 109.245C309.531 111.721 298.516 116.671 295.238 116.671C291.961 116.671 264.012 111.721 250.447 109.245L182.987 139.216Z" fill="url(#paint0_linear_673_2052)"/>
<path d="M618.806 100.901C608.336 100.901 598.17 102.481 588.451 105.608C570.764 43.686 512.535 0 445.155 0C378.608 0 320.125 43.5981 302.164 104.972C291.908 102.784 281.309 101.516 270.401 101.516C203.034 101.516 144.814 145.191 127.126 207.124C117.408 203.986 107.243 202.405 96.7716 202.405C43.4126 202.405 0 244.554 0 296.371C0 348.2 43.4126 390.358 96.7716 390.358H420.741C465.399 390.358 501.725 355.071 501.725 311.704C501.725 303.743 500.464 296.074 498.189 288.832H618.806C672.164 288.832 715.567 246.685 715.567 194.867C715.567 143.048 672.164 100.901 618.806 100.901ZM420.741 368.643H96.7716C55.7394 368.643 22.3615 336.219 22.3615 296.371C22.3615 256.535 55.7394 224.12 96.7716 224.12C108.488 224.12 119.68 226.687 130.052 231.755C133.197 233.293 136.898 233.293 140.065 231.765C143.22 230.239 145.448 227.355 146.081 223.983C156.945 165.602 209.234 123.232 270.401 123.232C339.636 123.232 396.326 177.912 396.752 245.126C396.775 248.339 398.259 251.382 400.803 253.429C403.358 255.475 406.732 256.312 409.965 255.74C413.546 255.104 417.17 254.775 420.741 254.775C453.061 254.775 479.364 280.318 479.364 311.704C479.364 343.1 453.061 368.643 420.741 368.643ZM618.806 267.117H487.399C472.395 246.067 447.069 232.442 418.536 233.091C413.436 177.337 375.391 130.58 323.6 111.178C338.75 58.8868 388.509 21.7154 445.155 21.7154C506.333 21.7154 558.633 64.0863 569.497 122.467C570.131 125.84 572.358 128.724 575.502 130.25C578.648 131.778 582.37 131.788 585.515 130.241C595.898 125.182 607.101 122.616 618.806 122.616C659.825 122.616 693.204 155.031 693.204 194.867C693.204 234.703 659.825 267.117 618.806 267.117Z" fill="url(#paint1_linear_673_2052)"/>
<path d="M433.473 426.767L444.459 389.318" stroke="#3CAED6" stroke-width="12" stroke-linecap="round"/>
<path d="M620.097 658.638L631.087 621.191" stroke="#3CAED6" stroke-width="12" stroke-linecap="round"/>
<path d="M508.553 565.43L519.539 527.981" stroke="#3CAED6" stroke-width="12" stroke-linecap="round"/>
<path d="M377.019 504.022L388.005 466.573" stroke="#3CAED6" stroke-width="12" stroke-linecap="round"/>
<path d="M540.646 463.994L551.633 426.546" stroke="#3CAED6" stroke-width="12" stroke-linecap="round"/>
<path d="M389.121 565.43L400.108 527.981" stroke="#3CAED6" stroke-width="12" stroke-linecap="round"/>
<path d="M342.814 626.839L353.801 589.39" stroke="#3CAED6" stroke-width="12" stroke-linecap="round"/>
<path d="M422.259 658.638L433.246 621.191" stroke="#3CAED6" stroke-width="12" stroke-linecap="round"/>
<path d="M477.513 546.787L488.499 509.339" stroke="#3CAED6" stroke-width="12" stroke-linecap="round"/>
<path d="M326.505 463.994L337.492 426.546" stroke="#3CAED6" stroke-width="12" stroke-linecap="round"/>
<path d="M459.099 485.377L470.085 447.929" stroke="#3CAED6" stroke-width="12" stroke-linecap="round"/>
<path d="M433.31 584.072L444.296 546.624" stroke="#3CAED6" stroke-width="12" stroke-linecap="round"/>
<path d="M554.331 621.356L565.318 583.907" stroke="#3CAED6" stroke-width="12" stroke-linecap="round"/>
<path d="M565.377 541.304L576.364 503.855" stroke="#3CAED6" stroke-width="12" stroke-linecap="round"/>
<path d="M683.483 361.465L694.466 324.017" stroke="#3CAED6" stroke-width="12" stroke-linecap="round"/>
<path d="M870.106 593.338L881.096 555.89" stroke="#3CAED6" stroke-width="12" stroke-linecap="round"/>
<path d="M758.561 500.129L769.55 462.681" stroke="#3CAED6" stroke-width="12" stroke-linecap="round"/>
<path d="M627.025 438.721L638.015 401.272" stroke="#3CAED6" stroke-width="12" stroke-linecap="round"/>
<path d="M790.657 398.693L801.64 361.245" stroke="#3CAED6" stroke-width="12" stroke-linecap="round"/>
<path d="M639.128 500.129L650.117 462.681" stroke="#3CAED6" stroke-width="12" stroke-linecap="round"/>
<path d="M592.824 561.537L603.811 524.089" stroke="#3CAED6" stroke-width="12" stroke-linecap="round"/>
<path d="M672.27 593.338L683.253 555.89" stroke="#3CAED6" stroke-width="12" stroke-linecap="round"/>
<path d="M727.521 481.485L738.51 444.037" stroke="#3CAED6" stroke-width="12" stroke-linecap="round"/>
<path d="M576.514 398.693L587.5 361.245" stroke="#3CAED6" stroke-width="12" stroke-linecap="round"/>
<path d="M709.105 420.076L720.095 382.628" stroke="#3CAED6" stroke-width="12" stroke-linecap="round"/>
<path d="M683.321 518.771L694.304 481.323" stroke="#3CAED6" stroke-width="12" stroke-linecap="round"/>
<path d="M804.34 556.055L815.329 518.606" stroke="#3CAED6" stroke-width="12" stroke-linecap="round"/>
<path d="M815.385 476.002L826.374 438.554" stroke="#3CAED6" stroke-width="12" stroke-linecap="round"/>
<path d="M118.784 478.572L129.771 441.123" stroke="#3CAED6" stroke-width="12" stroke-linecap="round"/>
<path d="M305.409 710.443L316.396 672.998" stroke="#3CAED6" stroke-width="12" stroke-linecap="round"/>
<path d="M193.864 617.236L204.851 579.787" stroke="#3CAED6" stroke-width="12" stroke-linecap="round"/>
<path d="M62.3301 555.827L73.3168 518.379" stroke="#3CAED6" stroke-width="12" stroke-linecap="round"/>
<path d="M225.959 515.8L236.946 478.353" stroke="#3CAED6" stroke-width="12" stroke-linecap="round"/>
<path d="M74.4326 617.236L85.4193 579.787" stroke="#3CAED6" stroke-width="12" stroke-linecap="round"/>
<path d="M28.126 678.645L39.1127 641.199" stroke="#3CAED6" stroke-width="12" stroke-linecap="round"/>
<path d="M107.57 710.443L118.557 672.998" stroke="#3CAED6" stroke-width="12" stroke-linecap="round"/>
<path d="M162.824 598.593L173.81 561.146" stroke="#3CAED6" stroke-width="12" stroke-linecap="round"/>
<path d="M11.8164 515.8L22.8031 478.353" stroke="#3CAED6" stroke-width="12" stroke-linecap="round"/>
<path d="M144.411 537.184L155.398 499.735" stroke="#3CAED6" stroke-width="12" stroke-linecap="round"/>
<path d="M118.621 635.875L129.608 598.429" stroke="#3CAED6" stroke-width="12" stroke-linecap="round"/>
<path d="M239.644 673.159L250.63 635.714" stroke="#3CAED6" stroke-width="12" stroke-linecap="round"/>
<path d="M250.689 593.11L261.676 555.661" stroke="#3CAED6" stroke-width="12" stroke-linecap="round"/>
<mask id="mask0_673_2052" style="mask-type:luminance" maskUnits="userSpaceOnUse" x="426" y="420" width="132" height="386">
<path d="M557.235 420.414H426.633V806H557.235V420.414Z" fill="white"/>
</mask>
<g mask="url(#mask0_673_2052)">
<path d="M501.125 589.567L555.235 595.579L442.248 797.766L477.598 644.583L477.908 643.239L476.54 643.071L428.553 637.07L535.269 429.565L500.049 588.061L499.748 589.414L501.125 589.567Z" fill="#FAC546" stroke="black" stroke-width="4"/>
</g>
</g>
<defs>
<linearGradient id="paint0_linear_673_2052" x1="358.592" y1="11.6416" x2="358.592" y2="380.571" gradientUnits="userSpaceOnUse">
<stop stop-color="#E2E2E2"/>
<stop offset="1" stop-color="#757575"/>
</linearGradient>
<linearGradient id="paint1_linear_673_2052" x1="357.784" y1="0" x2="357.784" y2="390.358" gradientUnits="userSpaceOnUse">
<stop stop-color="#E2E2E2"/>
<stop offset="1" stop-color="#757575"/>
</linearGradient>
<clipPath id="clip0_673_2052">
<rect width="884.983" height="806" fill="white"/>
</clipPath>
</defs>
</svg>
