<svg width="1423" height="1296" viewBox="0 0 1423 1296" fill="none" xmlns="http://www.w3.org/2000/svg">
<path d="M390.779 712.988L477.784 722.655L296.108 1047.76L352.949 801.45L353.447 799.29L351.248 799.015L274.087 789.37L445.681 455.715L389.048 710.566L388.564 712.742L390.779 712.988Z" fill="#FAC546" stroke="black" stroke-width="4"/>
<path d="M294.233 223.851L234.507 309.998L210.354 343.262H200.253H176.978L78.607 363.733C61.6261 388.184 26.2591 438.109 20.6379 442.203C15.0167 446.297 18.2958 484.85 20.6379 503.614L59.7229 578.673L104.078 591.893L152.385 611.937H483.509H701.77L749.199 579.952L790.04 507.879L781.257 445.615H992.931L1074.61 423.012L1135.66 326.204L1105.79 233.66L1016.21 175.66L937.597 187.601L908.613 124.057L811.12 32.7932L738.22 18.7197L621.843 32.7932L536.647 109.984L505.906 175.66C497.708 179.641 479.996 187.601 474.726 187.601C469.456 187.601 424.516 179.641 402.704 175.66L294.233 223.851Z" fill="url(#paint0_linear_670_1433)"/>
<path d="M995.004 162.242C978.168 162.242 961.822 164.783 946.195 169.812C917.754 70.2445 824.125 0 715.783 0C608.779 0 514.742 70.1031 485.862 168.789C469.371 165.271 452.328 163.232 434.788 163.232C326.466 163.232 232.853 233.458 204.411 333.043C188.785 327.997 172.441 325.455 155.603 325.455C69.8049 325.455 0 393.228 0 476.547C0 559.885 69.8049 627.673 155.603 627.673H676.526C748.334 627.673 806.744 570.933 806.744 501.202C806.744 488.4 804.716 476.069 801.059 464.425H995.004C1080.8 464.425 1150.59 396.655 1150.59 313.334C1150.59 230.013 1080.8 162.242 995.004 162.242ZM676.526 592.756H155.603C89.6256 592.756 35.956 540.62 35.956 476.547C35.956 412.493 89.6256 360.372 155.603 360.372C174.442 360.372 192.438 364.5 209.116 372.649C214.173 375.121 220.124 375.121 225.216 372.665C230.289 370.21 233.872 365.573 234.89 360.151C252.359 266.278 336.436 198.149 434.788 198.149C546.115 198.149 637.269 286.072 637.954 394.148C637.99 399.314 640.377 404.207 644.467 407.498C648.575 410.788 654.001 412.135 659.199 411.215C664.957 410.192 670.785 409.663 676.526 409.663C728.495 409.663 770.788 450.734 770.788 501.202C770.788 551.685 728.495 592.756 676.526 592.756ZM995.004 429.508H783.709C759.583 395.661 718.86 373.753 672.981 374.797C664.781 285.147 603.606 209.965 520.33 178.767C544.69 94.6864 624.699 34.9171 715.783 34.9171C814.153 34.9171 898.248 103.047 915.718 196.92C916.737 202.343 920.318 206.98 925.373 209.435C930.431 211.891 936.417 211.907 941.473 209.419C958.169 201.285 976.183 197.159 995.004 197.159C1060.96 197.159 1114.63 249.28 1114.63 313.334C1114.63 377.389 1060.96 429.508 995.004 429.508Z" fill="url(#paint1_linear_670_1433)"/>
<path d="M696.998 686.215L714.664 626" stroke="#3CAED6" stroke-width="12" stroke-linecap="round"/>
<path d="M997.079 1059.05L1014.75 998.838" stroke="#3CAED6" stroke-width="12" stroke-linecap="round"/>
<path d="M817.722 909.178L835.388 848.963" stroke="#3CAED6" stroke-width="12" stroke-linecap="round"/>
<path d="M606.223 810.437L623.889 750.222" stroke="#3CAED6" stroke-width="12" stroke-linecap="round"/>
<path d="M869.328 746.075L886.994 685.861" stroke="#3CAED6" stroke-width="12" stroke-linecap="round"/>
<path d="M625.683 909.178L643.349 848.963" stroke="#3CAED6" stroke-width="12" stroke-linecap="round"/>
<path d="M551.226 1007.92L568.892 947.703" stroke="#3CAED6" stroke-width="12" stroke-linecap="round"/>
<path d="M678.967 1059.05L696.633 998.838" stroke="#3CAED6" stroke-width="12" stroke-linecap="round"/>
<path d="M767.812 879.2L785.478 818.986" stroke="#3CAED6" stroke-width="12" stroke-linecap="round"/>
<path d="M525 746.075L542.666 685.861" stroke="#3CAED6" stroke-width="12" stroke-linecap="round"/>
<path d="M738.204 780.457L755.87 720.243" stroke="#3CAED6" stroke-width="12" stroke-linecap="round"/>
<path d="M696.736 939.153L714.402 878.939" stroke="#3CAED6" stroke-width="12" stroke-linecap="round"/>
<path d="M891.332 999.103L908.998 938.888" stroke="#3CAED6" stroke-width="12" stroke-linecap="round"/>
<path d="M909.093 870.384L926.759 810.169" stroke="#3CAED6" stroke-width="12" stroke-linecap="round"/>
<path d="M1099 581.215L1116.66 521" stroke="#3CAED6" stroke-width="12" stroke-linecap="round"/>
<path d="M1399.08 954.053L1416.75 893.838" stroke="#3CAED6" stroke-width="12" stroke-linecap="round"/>
<path d="M1219.72 804.178L1237.39 743.963" stroke="#3CAED6" stroke-width="12" stroke-linecap="round"/>
<path d="M1008.22 705.437L1025.89 645.222" stroke="#3CAED6" stroke-width="12" stroke-linecap="round"/>
<path d="M1271.33 641.075L1288.99 580.861" stroke="#3CAED6" stroke-width="12" stroke-linecap="round"/>
<path d="M1027.68 804.178L1045.35 743.963" stroke="#3CAED6" stroke-width="12" stroke-linecap="round"/>
<path d="M953.226 902.917L970.892 842.703" stroke="#3CAED6" stroke-width="12" stroke-linecap="round"/>
<path d="M1080.97 954.053L1098.63 893.838" stroke="#3CAED6" stroke-width="12" stroke-linecap="round"/>
<path d="M1169.81 774.2L1187.48 713.986" stroke="#3CAED6" stroke-width="12" stroke-linecap="round"/>
<path d="M927 641.075L944.666 580.861" stroke="#3CAED6" stroke-width="12" stroke-linecap="round"/>
<path d="M1140.2 675.457L1157.87 615.243" stroke="#3CAED6" stroke-width="12" stroke-linecap="round"/>
<path d="M1098.74 834.153L1116.4 773.939" stroke="#3CAED6" stroke-width="12" stroke-linecap="round"/>
<path d="M1293.33 894.103L1311 833.888" stroke="#3CAED6" stroke-width="12" stroke-linecap="round"/>
<path d="M1311.09 765.384L1328.76 705.169" stroke="#3CAED6" stroke-width="12" stroke-linecap="round"/>
<path d="M190.998 769.514L208.664 709.299" stroke="#3CAED6" stroke-width="12" stroke-linecap="round"/>
<path d="M491.079 1142.35L508.745 1082.14" stroke="#3CAED6" stroke-width="12" stroke-linecap="round"/>
<path d="M311.722 992.479L329.388 932.264" stroke="#3CAED6" stroke-width="12" stroke-linecap="round"/>
<path d="M100.223 893.737L117.889 833.523" stroke="#3CAED6" stroke-width="12" stroke-linecap="round"/>
<path d="M363.328 829.377L380.994 769.163" stroke="#3CAED6" stroke-width="12" stroke-linecap="round"/>
<path d="M119.683 992.479L137.349 932.264" stroke="#3CAED6" stroke-width="12" stroke-linecap="round"/>
<path d="M45.2256 1091.22L62.8916 1031.01" stroke="#3CAED6" stroke-width="12" stroke-linecap="round"/>
<path d="M172.967 1142.35L190.633 1082.14" stroke="#3CAED6" stroke-width="12" stroke-linecap="round"/>
<path d="M261.812 962.502L279.477 902.288" stroke="#3CAED6" stroke-width="12" stroke-linecap="round"/>
<path d="M19 829.377L36.666 769.163" stroke="#3CAED6" stroke-width="12" stroke-linecap="round"/>
<path d="M232.204 863.759L249.87 803.544" stroke="#3CAED6" stroke-width="12" stroke-linecap="round"/>
<path d="M190.736 1022.45L208.402 962.238" stroke="#3CAED6" stroke-width="12" stroke-linecap="round"/>
<path d="M385.332 1082.4L402.998 1022.19" stroke="#3CAED6" stroke-width="12" stroke-linecap="round"/>
<path d="M403.094 953.685L420.76 893.47" stroke="#3CAED6" stroke-width="12" stroke-linecap="round"/>
<g clip-path="url(#clip0_670_1433)">
<path d="M805.779 947.988L892.784 957.655L711.108 1282.76L767.949 1036.45L768.447 1034.29L766.248 1034.02L689.087 1024.37L860.681 690.715L804.048 945.566L803.564 947.742L805.779 947.988Z" fill="#FAC546" stroke="black" stroke-width="4"/>
</g>
<defs>
<linearGradient id="paint0_linear_670_1433" x1="576.595" y1="18.7197" x2="576.595" y2="611.937" gradientUnits="userSpaceOnUse">
<stop stop-color="#E2E2E2"/>
<stop offset="1" stop-color="#757575"/>
</linearGradient>
<linearGradient id="paint1_linear_670_1433" x1="575.295" y1="0" x2="575.295" y2="627.673" gradientUnits="userSpaceOnUse">
<stop stop-color="#E2E2E2"/>
<stop offset="1" stop-color="#757575"/>
</linearGradient>
<clipPath id="clip0_670_1433">
<rect width="210" height="620" fill="white" transform="translate(686 676)"/>
</clipPath>
</defs>
</svg>
