<svg width="800" height="806" viewBox="0 0 800 806" fill="none" xmlns="http://www.w3.org/2000/svg">
<path d="M400 0C392.64 0 386.667 5.94347 386.667 13.2667V92.8667C386.667 100.19 392.64 106.133 400 106.133C407.36 106.133 413.334 100.19 413.334 92.8667V13.2667C413.334 5.94347 407.36 0 400 0Z" fill="#F0C419"/>
<path d="M400 689.866C392.64 689.866 386.667 695.81 386.667 703.133V782.733C386.667 790.056 392.64 796 400 796C407.36 796 413.334 790.056 413.334 782.733V703.133C413.334 695.81 407.36 689.866 400 689.866Z" fill="#F0C419"/>
<path d="M786.666 384.733H706.666C699.306 384.733 693.333 390.677 693.333 398C693.333 405.323 699.306 411.267 706.666 411.267H786.666C794.026 411.267 800 405.323 800 398C800 390.677 794.026 384.733 786.666 384.733Z" fill="#F0C419"/>
<path d="M106.667 398C106.667 390.677 100.693 384.733 93.3333 384.733H13.3333C5.97333 384.733 0 390.677 0 398C0 405.323 5.97333 411.267 13.3333 411.267H93.3333C100.693 411.267 106.667 405.323 106.667 398Z" fill="#F0C419"/>
<path d="M616.853 195.498C620.267 195.498 623.68 194.197 626.28 191.61L702.76 115.513C707.973 110.326 707.973 101.941 702.76 96.7537C697.547 91.5665 689.12 91.5665 683.907 96.7537L607.427 172.851C602.213 178.039 602.213 186.423 607.427 191.61C610.027 194.211 613.44 195.498 616.853 195.498Z" fill="#F0C419"/>
<path d="M173.72 604.389L97.2401 680.487C92.0267 685.674 92.0267 694.059 97.2401 699.246C99.8401 701.833 103.253 703.133 106.667 703.133C110.08 703.133 113.493 701.833 116.093 699.246L192.573 623.149C197.787 617.961 197.787 609.577 192.573 604.389C187.36 599.202 178.933 599.202 173.72 604.389Z" fill="#F0C419"/>
<path d="M626.28 604.389C621.067 599.202 612.64 599.202 607.427 604.389C602.213 609.577 602.213 617.961 607.427 623.149L683.907 699.246C686.507 701.833 689.92 703.133 693.333 703.133C696.747 703.133 700.16 701.833 702.76 699.246C707.973 694.059 707.973 685.674 702.76 680.487L626.28 604.389Z" fill="#F0C419"/>
<path d="M116.093 96.7537C110.88 91.5665 102.453 91.5665 97.2401 96.7537C92.0267 101.941 92.0267 110.326 97.2401 115.513L173.72 191.61C176.32 194.197 179.733 195.498 183.147 195.498C186.56 195.498 189.973 194.197 192.573 191.61C197.787 186.423 197.787 178.039 192.573 172.851L116.093 96.7537Z" fill="#F0C419"/>
<path d="M670.013 283.959C672.173 289.014 677.107 292.052 682.293 292.052C684.027 292.052 685.8 291.707 687.493 290.99L724.32 275.442C731.093 272.576 734.267 264.789 731.387 258.049C728.507 251.31 720.667 248.152 713.907 251.018L677.08 266.567C670.293 269.432 667.133 277.22 670.013 283.959Z" fill="#F0C419"/>
<path d="M129.986 512.041C127.106 505.301 119.28 502.144 112.506 505.009L75.6798 520.558C68.9065 523.423 65.7331 531.211 68.6131 537.95C70.7731 543.005 75.7065 546.043 80.8931 546.043C82.6265 546.043 84.3998 545.698 86.0931 544.982L122.92 529.433C129.706 526.568 132.866 518.78 129.986 512.041Z" fill="#F0C419"/>
<path d="M726.413 514.919L689.333 499.994C682.52 497.247 674.733 500.538 671.973 507.33C669.213 514.123 672.52 521.857 679.346 524.603L716.44 539.515C718.08 540.165 719.773 540.484 721.426 540.484C726.706 540.484 731.706 537.353 733.8 532.179C736.546 525.399 733.253 517.665 726.413 514.919Z" fill="#F0C419"/>
<path d="M73.5865 281.094L110.666 296.006C112.306 296.656 114 296.974 115.653 296.974C120.933 296.974 125.933 293.844 128.026 288.67C130.786 281.877 127.48 274.143 120.653 271.396L83.5598 256.485C76.7198 253.738 68.9598 257.015 66.1998 263.821C63.4531 270.6 66.7465 278.335 73.5865 281.094Z" fill="#F0C419"/>
<path d="M532.093 673.694C529.213 666.955 521.387 663.81 514.613 666.663C507.84 669.528 504.667 677.316 507.547 684.055L523.173 720.698C525.333 725.753 530.267 728.791 535.453 728.791C537.187 728.791 538.96 728.446 540.653 727.729C547.427 724.864 550.6 717.076 547.72 710.337L532.093 673.694Z" fill="#F0C419"/>
<path d="M280.187 130.397C281.92 130.397 283.693 130.052 285.387 129.336C292.16 126.47 295.333 118.683 292.453 111.943L276.827 75.3009C273.96 68.5482 266.133 65.3907 259.347 68.2696C252.573 71.1352 249.4 78.9227 252.28 85.6622L267.907 122.305C270.053 127.359 275 130.397 280.187 130.397Z" fill="#F0C419"/>
<path d="M290.12 668.613C283.306 665.894 275.52 669.144 272.76 675.95L257.773 712.858C255.013 719.65 258.32 727.385 265.146 730.131C266.786 730.781 268.48 731.099 270.133 731.099C275.413 731.099 280.413 727.968 282.506 722.794L297.493 685.886C300.253 679.094 296.946 671.359 290.12 668.613Z" fill="#F0C419"/>
<path d="M514.866 128.355C520.146 128.355 525.146 125.224 527.24 120.05L542.226 83.1418C544.986 76.3493 541.68 68.6148 534.853 65.8686C528.04 63.1224 520.253 66.4126 517.493 73.2051L502.506 110.113C499.746 116.906 503.053 124.64 509.88 127.386C511.52 128.036 513.213 128.355 514.866 128.355Z" fill="#F0C419"/>
<path d="M400 671.666C547.276 671.666 666.666 551.38 666.666 403C666.666 254.619 547.276 134.333 400 134.333C252.724 134.333 133.333 254.619 133.333 403C133.333 551.38 252.724 671.666 400 671.666Z" fill="#F0C419"/>
<path d="M400 604.5C510.457 604.5 600 514.285 600 403C600 291.715 510.457 201.5 400 201.5C289.543 201.5 200 291.715 200 403C200 514.285 289.543 604.5 400 604.5Z" fill="#EDE21B"/>
</svg>
